<svg xmlns="http://www.w3.org/2000/svg"  viewBox="0 0 48 48" width="48px" height="48px"><g data-name="4"><path fill="#bec6c6" d="M11,2H27a2,2,0,0,1,2,2V8a0,0,0,0,1,0,0H9A0,0,0,0,1,9,8V4A2,2,0,0,1,11,2Z"/><path fill="#f8f9f9" d="M13,9a1,1,0,0,1-1-1V6a1,1,0,0,1,2,0V8A1,1,0,0,1,13,9Z"/><path fill="#f8f9f9" d="M17,9a1,1,0,0,1-1-1V6a1,1,0,0,1,2,0V8A1,1,0,0,1,17,9Z"/><path fill="#f8f9f9" d="M21,9a1,1,0,0,1-1-1V6a1,1,0,0,1,2,0V8A1,1,0,0,1,21,9Z"/><path fill="#f8f9f9" d="M25,9a1,1,0,0,1-1-1V6a1,1,0,0,1,2,0V8A1,1,0,0,1,25,9Z"/><path fill="#f8f9f9" d="M32,16V43a3,3,0,0,1-3,3H9a3,3,0,0,1-3-3V16a3,3,0,0,1,1.89-2.78L11,12V8H27v4l3.11,1.25A3,3,0,0,1,32,16Z"/><rect width="26" height="16" x="6" y="21" fill="#6457ff"/><path fill="#414141" d="M29,9H9A1,1,0,0,1,8,8V4a3,3,0,0,1,3-3H27a3,3,0,0,1,3,3V8A1,1,0,0,1,29,9ZM10,7H28V4a1,1,0,0,0-1-1H11a1,1,0,0,0-1,1Z"/><path fill="#414141" d="M29,47H9a4,4,0,0,1-4-4V16a4,4,0,0,1,2.51-3.71l2.49-1V8a1,1,0,0,1,1-1H27a1,1,0,0,1,1,1v3.32l2.49,1A4,4,0,0,1,33,16V43A4,4,0,0,1,29,47ZM12,9v3a1,1,0,0,1-.63.93L8.26,14.17A2,2,0,0,0,7,16V43a2,2,0,0,0,2,2H29a2,2,0,0,0,2-2V16a2,2,0,0,0-1.26-1.86l-3.11-1.24A1,1,0,0,1,26,12V9Z"/><circle cx="19" cy="29" r="4" fill="#bec6c6"/><path fill="#f8f9f9" d="M21.83,31.83l-5.66-5.66a4,4,0,0,1,5.66,5.66Z"/><circle cx="33" cy="37" r="9" fill="#bec6c6"/><path fill="#414141" d="M33,47A10,10,0,1,1,43,37,10,10,0,0,1,33,47Zm0-18a8,8,0,1,0,8,8A8,8,0,0,0,33,29Z"/><rect width="4" height="10" x="31" y="32" fill="#f8f9f9" transform="rotate(90 33 37)"/><rect width="4" height="10" x="31" y="32" fill="#f8f9f9" transform="rotate(180 33 37)"/></g></svg>