<svg xmlns="http://www.w3.org/2000/svg"  viewBox="0 0 256 256" width="64px" height="64px"><path fill="#6BDDDD" d="M177.409,252h-160c-5.523,0-10-4.477-10-10V47.5c0-5.523,4.477-10,10-10h160c5.523,0,10,4.477,10,10V242 C187.409,247.523,182.932,252,177.409,252z"/><path fill="#E0EBFC" d="M22.409,232V57.5c0-2.761,2.239-5,5-5h140c2.761,0,5,2.239,5,5V232c0,2.761-2.239,5-5,5h-140 C24.648,237,22.409,234.761,22.409,232z"/><path fill="#F9A7A7" d="M91.808,181.482c3.359,2.648,7.988,2.643,11.341-0.012l40.881-32.365 c11.523-9.084,15.573-25.262,9.785-39.091l0,0C147.532,95,131.566,87.21,116.536,91.824l0,0 c-8.587,2.636-15.396,8.89-19.154,16.855c-3.757-7.965-10.566-14.219-19.153-16.855l0,0c-15.793-4.848-32.618,3.999-38.16,20.531 c-4.547,13.565,0.399,28.657,11.371,37.306L91.808,181.482z"/><path fill="#3762CC" d="M177.409,254h-160c-6.617,0-12-5.383-12-12V47.5c0-6.617,5.383-12,12-12h160c6.617,0,12,5.383,12,12V242 C189.409,248.617,184.026,254,177.409,254z M17.409,39.5c-4.411,0-8,3.589-8,8V242c0,4.411,3.589,8,8,8h160c4.411,0,8-3.589,8-8 V47.5c0-4.411-3.589-8-8-8H17.409z"/><path fill="#3762CC" d="M167.409,239h-140c-3.86,0-7-3.14-7-7V57.5c0-3.86,3.14-7,7-7h140c3.86,0,7,3.14,7,7V232 C174.409,235.86,171.269,239,167.409,239z M27.409,54.5c-1.654,0-3,1.346-3,3V232c0,1.654,1.346,3,3,3h140c1.654,0,3-1.346,3-3 V57.5c0-1.654-1.346-3-3-3H27.409z"/><path fill="#4671C6" d="M118.887,35.5H75.931V17c0-7.18,5.82-13,13-13h16.956c7.18,0,13,5.82,13,13V35.5z"/><path fill="#3762CC" d="M118.887,37.5H75.931c-1.104,0-2-0.896-2-2V17c0-8.271,6.729-15,15-15h16.956c8.271,0,15,6.729,15,15 v18.5C120.887,36.604,119.991,37.5,118.887,37.5z M77.931,33.5h38.956V17c0-6.065-4.935-11-11-11H88.931c-6.065,0-11,4.935-11,11 V33.5z"/><path fill="#4671C6" d="M143.201,24.5H51.617c-3.705,0-6.708,3.003-6.708,6.708v24.084c0,3.705,3.003,6.708,6.708,6.708h91.584 c3.705,0,6.708-3.003,6.708-6.708V31.208C149.909,27.503,146.906,24.5,143.201,24.5z"/><path fill="#3762CC" d="M143.201,64H51.617c-4.802,0-8.708-3.906-8.708-8.708V31.208c0-4.802,3.906-8.708,8.708-8.708h91.583 c4.802,0,8.708,3.906,8.708,8.708v24.084C151.909,60.094,148.002,64,143.201,64z M51.617,26.5c-2.596,0-4.708,2.112-4.708,4.708 v24.084c0,2.596,2.112,4.708,4.708,4.708h91.583c2.596,0,4.708-2.112,4.708-4.708V31.208c0-2.596-2.112-4.708-4.708-4.708H51.617 z"/><path fill="#F9CFCF" d="M120.164,203.96c-0.081,0-0.162-0.003-0.244-0.008c-1.542-0.107-2.832-1.213-3.172-2.721l-6.075-26.914 l-5.836,8.625c-0.768,1.134-2.125,1.718-3.477,1.49c-1.351-0.226-2.446-1.22-2.802-2.542l-7.418-27.559l-12.427,35.675 c-0.459,1.318-1.658,2.238-3.05,2.339c-1.393,0.1-2.711-0.633-3.358-1.871L61.17,169.146H35.327c-1.933,0-3.5-1.567-3.5-3.5 s1.567-3.5,3.5-3.5h27.964c1.304,0,2.499,0.725,3.103,1.88l8.373,16.035l13.499-38.753c0.505-1.45,1.909-2.397,3.432-2.346 c1.535,0.055,2.854,1.105,3.253,2.588l8.379,31.13l6.08-8.985c0.782-1.156,2.176-1.737,3.548-1.478 c1.371,0.259,2.458,1.307,2.765,2.669l5.284,23.41l9.079-24.093c0.514-1.363,1.818-2.266,3.275-2.266h16.967 c1.933,0,3.5,1.567,3.5,3.5s-1.567,3.5-3.5,3.5h-14.546l-12.343,32.755C122.921,203.065,121.611,203.96,120.164,203.96z"/><path fill="#4671C6" d="M231.924,165.333c-2.209,0-4,1.791-4,4V236c0,4.411-3.589,8-8,8h-35.052c-4.411,0-8-3.589-8-8v-79h-8v79 c0,8.823,7.178,16,16,16h35.052c8.822,0,16-7.177,16-16v-66.667C235.924,167.124,234.133,165.333,231.924,165.333z"/><circle cx="231.924" cy="157" r="16.667" fill="#A4C9FF"/><path fill="#E0EBFC" d="M231.924,164.667c-4.228,0-7.667-3.439-7.667-7.667c0-4.227,3.439-7.667,7.667-7.667 s7.667,3.439,7.667,7.667C239.591,161.228,236.152,164.667,231.924,164.667z"/><path fill="#A4C9FF" d="M143.783,78.703h6.266c2.225,0,4.028,1.803,4.028,4.028c0,2.224-1.803,4.028-4.028,4.028h-6.266 c-1.48,0-2.685,1.205-2.685,2.685v33.81c0,17.52,14.254,31.774,31.775,31.774s31.774-14.254,31.774-31.774v-33.81 c0-1.481-1.205-2.685-2.685-2.685h-6.264c-2.225,0-4.028-1.803-4.028-4.028c0-2.224,1.803-4.028,4.028-4.028h6.264 c5.922,0,10.741,4.818,10.741,10.741v33.81c0,21.962-17.868,39.83-39.829,39.83c-21.962,0-39.83-17.868-39.83-39.83v-33.81 C133.043,83.522,137.861,78.703,143.783,78.703z"/><path fill="#3762CC" d="M172.873,165.083c-23.065,0-41.831-18.765-41.831-41.83v-33.81c0-7.025,5.715-12.74,12.741-12.74 h6.266c3.324,0,6.027,2.704,6.027,6.027s-2.704,6.028-6.027,6.028h-6.266c-0.378,0-0.685,0.307-0.685,0.685v33.81 c0,16.417,13.357,29.774,29.775,29.774c16.417,0,29.773-13.357,29.773-29.774v-33.81c0-0.378-0.307-0.685-0.685-0.685h-6.265 c-3.324,0-6.028-2.704-6.028-6.028s2.704-6.027,6.028-6.027h6.265c7.025,0,12.741,5.715,12.741,12.74v33.81 C214.702,146.318,195.938,165.083,172.873,165.083z M143.783,80.704c-4.82,0-8.741,3.921-8.741,8.74v33.81 c0,20.859,16.971,37.83,37.831,37.83c20.859,0,37.829-16.971,37.829-37.83v-33.81c0-4.819-3.921-8.74-8.741-8.74h-6.265 c-1.118,0-2.028,0.91-2.028,2.027c0,1.118,0.91,2.028,2.028,2.028h6.265c2.583,0,4.685,2.102,4.685,4.685v33.81 c0,18.623-15.151,33.774-33.773,33.774c-18.624,0-33.775-15.151-33.775-33.774v-33.81c0-2.583,2.102-4.685,4.685-4.685h6.266 c1.118,0,2.027-0.91,2.027-2.028c0-1.118-0.91-2.027-2.027-2.027H143.783z"/><path fill="#4671C6" d="M187.249,76.755h10.015c1.427,0,2.584,1.157,2.584,2.584v6.784c0,1.427-1.157,2.584-2.584,2.584 h-10.015c-1.427,0-2.584-1.157-2.584-2.584v-6.784C184.664,77.912,185.821,76.755,187.249,76.755z"/><path fill="#4671C6" d="M148.482,76.755h10.015c1.427,0,2.584,1.157,2.584,2.584v6.784c0,1.427-1.157,2.584-2.584,2.584 h-10.015c-1.427,0-2.584-1.157-2.584-2.584v-6.784C145.897,77.912,147.054,76.755,148.482,76.755z"/><path fill="#3762CC" d="M197.263,90.708h-10.015c-2.528,0-4.584-2.057-4.584-4.584v-6.784c0-2.528,2.057-4.584,4.584-4.584 h10.015c2.528,0,4.584,2.057,4.584,4.584v6.784C201.848,88.651,199.791,90.708,197.263,90.708z M187.249,78.754 c-0.322,0-0.584,0.262-0.584,0.584v6.784c0,0.322,0.262,0.584,0.584,0.584h10.015c0.322,0,0.584-0.262,0.584-0.584v-6.784 c0-0.322-0.262-0.584-0.584-0.584H187.249z"/><path fill="#3762CC" d="M158.497,90.708h-10.015c-2.528,0-4.584-2.057-4.584-4.584v-6.784c0-2.528,2.057-4.584,4.584-4.584 h10.015c2.528,0,4.584,2.057,4.584,4.584v6.784C163.081,88.651,161.024,90.708,158.497,90.708z M148.481,78.754 c-0.322,0-0.584,0.262-0.584,0.584v6.784c0,0.322,0.262,0.584,0.584,0.584h10.015c0.322,0,0.584-0.262,0.584-0.584v-6.784 c0-0.322-0.262-0.584-0.584-0.584H148.481z"/><g><path fill="#3762CC" d="M231.924,175.667c-10.293,0-18.667-8.374-18.667-18.667s8.374-18.667,18.667-18.667 s18.667,8.374,18.667,18.667S242.217,175.667,231.924,175.667z M231.924,142.333c-8.087,0-14.667,6.58-14.667,14.667 c0,8.087,6.58,14.667,14.667,14.667c8.087,0,14.667-6.58,14.667-14.667C246.591,148.913,240.011,142.333,231.924,142.333z"/></g><g><path fill="#3762CC" d="M231.924,166.667c-5.33,0-9.667-4.336-9.667-9.667c0-5.33,4.336-9.667,9.667-9.667 c5.331,0,9.667,4.336,9.667,9.667C241.591,162.331,237.254,166.667,231.924,166.667z M231.924,151.333 c-3.125,0-5.667,2.542-5.667,5.667c0,3.125,2.542,5.667,5.667,5.667c3.125,0,5.667-2.542,5.667-5.667 C237.591,153.875,235.049,151.333,231.924,151.333z"/></g></svg>