<?xml version="1.0" encoding="UTF-8"?>
<svg xmlns="http://www.w3.org/2000/svg" xmlns:xlink="http://www.w3.org/1999/xlink" width="505px" height="284px" viewBox="0 0 504 284" version="1.1">
<defs>
<clipPath id="clip1">
  <path d="M 0 0 L 503.605469 0 L 503.605469 284 L 0 284 Z M 0 0 "/>
</clipPath>
<clipPath id="clip2">
  <path d="M 68.117188 48.121094 L 224.832031 48.121094 L 224.832031 234.300781 L 68.117188 234.300781 Z M 68.117188 48.121094 "/>
</clipPath>
<clipPath id="clip3">
  <path d="M 293.738281 47.726562 L 444.148438 47.726562 L 444.148438 234.300781 L 293.738281 234.300781 Z M 293.738281 47.726562 "/>
</clipPath>
<clipPath id="clip4">
  <path d="M 370 124.25 L 407 124.25 L 407 127 L 370 127 Z M 370 124.25 "/>
</clipPath>
<clipPath id="clip5">
  <path d="M 347.679688 124.25 L 428.792969 124.25 L 428.792969 234.300781 L 347.679688 234.300781 Z M 347.679688 124.25 "/>
</clipPath>
<clipPath id="clip6">
  <path d="M 347.679688 181 L 428.792969 181 L 428.792969 234.300781 L 347.679688 234.300781 Z M 347.679688 181 "/>
</clipPath>
<clipPath id="clip7">
  <path d="M 349.257812 164.484375 L 415.011719 164.484375 L 415.011719 234.300781 L 349.257812 234.300781 Z M 349.257812 164.484375 "/>
</clipPath>
<clipPath id="clip8">
  <path d="M 315 88.75 L 365 88.75 L 365 92 L 315 92 Z M 315 88.75 "/>
</clipPath>
<clipPath id="clip9">
  <path d="M 286 181 L 394.929688 181 L 394.929688 234 L 286 234 Z M 286 181 "/>
</clipPath>
<clipPath id="clip10">
  <path d="M 285.46875 88.75 L 394.929688 88.75 L 394.929688 234.695312 L 285.46875 234.695312 Z M 285.46875 88.75 "/>
</clipPath>
<clipPath id="clip11">
  <path d="M 94.5 190.910156 L 197.269531 190.910156 L 197.269531 228.382812 L 94.5 228.382812 Z M 94.5 190.910156 "/>
</clipPath>
<clipPath id="clip12">
  <path d="M 94.5 191 L 197.269531 191 L 197.269531 228.382812 L 94.5 228.382812 Z M 94.5 191 "/>
</clipPath>
<clipPath id="clip13">
  <path d="M 144 190.910156 L 148 190.910156 L 148 228.382812 L 144 228.382812 Z M 144 190.910156 "/>
</clipPath>
<clipPath id="clip14">
  <path d="M 94.105469 77.707031 L 193.726562 77.707031 L 193.726562 179.078125 L 94.105469 179.078125 Z M 94.105469 77.707031 "/>
</clipPath>
<clipPath id="clip15">
  <path d="M 101.980469 67.449219 L 252 67.449219 L 252 171.1875 L 101.980469 171.1875 Z M 101.980469 67.449219 "/>
</clipPath>
<clipPath id="clip16">
  <path d="M 101.980469 67.449219 L 252 67.449219 L 252 94 L 101.980469 94 Z M 101.980469 67.449219 "/>
</clipPath>
<clipPath id="clip17">
  <path d="M 114.976562 57.984375 L 264.207031 57.984375 L 264.207031 161.328125 L 114.976562 161.328125 Z M 114.976562 57.984375 "/>
</clipPath>
<clipPath id="clip18">
  <path d="M 114.976562 57.984375 L 264.207031 57.984375 L 264.207031 84 L 114.976562 84 Z M 114.976562 57.984375 "/>
</clipPath>
<clipPath id="clip19">
  <path d="M 265 150 L 318.9375 150 L 318.9375 234 L 265 234 Z M 265 150 "/>
</clipPath>
<clipPath id="clip20">
  <path d="M 263.8125 149.496094 L 318.9375 149.496094 L 318.9375 234.300781 L 263.8125 234.300781 Z M 263.8125 149.496094 "/>
</clipPath>
<clipPath id="clip21">
  <path d="M 275 149.496094 L 309 149.496094 L 309 153 L 275 153 Z M 275 149.496094 "/>
</clipPath>
<clipPath id="clip22">
  <path d="M 286 187 L 318.9375 187 L 318.9375 234 L 286 234 Z M 286 187 "/>
</clipPath>
<clipPath id="clip23">
  <path d="M 285 185 L 318.9375 185 L 318.9375 234.300781 L 285 234.300781 Z M 285 185 "/>
</clipPath>
<clipPath id="clip24">
  <path d="M 263.8125 181 L 311 181 L 311 234.300781 L 263.8125 234.300781 Z M 263.8125 181 "/>
</clipPath>
<clipPath id="clip25">
  <path d="M 127.574219 48.121094 L 277.59375 48.121094 L 277.59375 151.859375 L 127.574219 151.859375 Z M 127.574219 48.121094 "/>
</clipPath>
<clipPath id="clip26">
  <path d="M 127.574219 48.121094 L 277.59375 48.121094 L 277.59375 75 L 127.574219 75 Z M 127.574219 48.121094 "/>
</clipPath>
<clipPath id="clip27">
  <path d="M 248 217.339844 L 251 217.339844 L 251 226.410156 L 248 226.410156 Z M 248 217.339844 "/>
</clipPath>
<clipPath id="clip28">
  <path d="M 244.914062 220 L 253.96875 220 L 253.96875 224 L 244.914062 224 Z M 244.914062 220 "/>
</clipPath>
<clipPath id="clip29">
  <path d="M 294 104.921875 L 298 104.921875 L 298 113.996094 L 294 113.996094 Z M 294 104.921875 "/>
</clipPath>
<clipPath id="clip30">
  <path d="M 291.375 108 L 300.429688 108 L 300.429688 112 L 291.375 112 Z M 291.375 108 "/>
</clipPath>
<clipPath id="clip31">
  <path d="M 83 135.292969 L 87 135.292969 L 87 143.578125 L 83 143.578125 Z M 83 135.292969 "/>
</clipPath>
<clipPath id="clip32">
  <path d="M 80.71875 138 L 88.988281 138 L 88.988281 141 L 80.71875 141 Z M 80.71875 138 "/>
</clipPath>
<clipPath id="clip33">
  <path d="M 389.023438 65.476562 L 422.101562 65.476562 L 422.101562 98.609375 L 389.023438 98.609375 Z M 389.023438 65.476562 "/>
</clipPath>
<clipPath id="clip34">
  <path d="M 246.488281 180.261719 L 254 180.261719 L 254 199.984375 L 246.488281 199.984375 Z M 246.488281 180.261719 "/>
</clipPath>
<clipPath id="clip35">
  <path d="M 250 180.261719 L 257.117188 180.261719 L 257.117188 199.984375 L 250 199.984375 Z M 250 180.261719 "/>
</clipPath>
<clipPath id="clip36">
  <path d="M 390.992188 125.433594 L 436.273438 125.433594 L 436.273438 158.960938 L 390.992188 158.960938 Z M 390.992188 125.433594 "/>
</clipPath>
<clipPath id="clip37">
  <path d="M 230.738281 192.09375 L 238 192.09375 L 238 212.210938 L 230.738281 212.210938 Z M 230.738281 192.09375 "/>
</clipPath>
<clipPath id="clip38">
  <path d="M 234 192.09375 L 241.367188 192.09375 L 241.367188 212.210938 L 234 212.210938 Z M 234 192.09375 "/>
</clipPath>
<clipPath id="clip39">
  <path d="M 415.40625 231.933594 L 444.542969 231.933594 L 444.542969 234.300781 L 415.40625 234.300781 Z M 415.40625 231.933594 "/>
</clipPath>
<clipPath id="clip40">
  <path d="M 141.75 86.777344 L 259.085938 86.777344 L 259.085938 132.140625 L 141.75 132.140625 Z M 141.75 86.777344 "/>
</clipPath>
</defs>
<g id="surface1">
<g clip-path="url(#clip1)" clip-rule="nonzero">
<path style=" stroke:none;fill-rule:nonzero;fill:rgb(93.333333%,74.509804%,82.745098%);fill-opacity:1;" d="M 0 0 L 503.605469 0 L 503.605469 284.394531 L 0 284.394531 Z M 0 0 "/>
</g>
<g clip-path="url(#clip2)" clip-rule="nonzero">
<path style=" stroke:none;fill-rule:nonzero;fill:rgb(95.294118%,96.470588%,90.196078%);fill-opacity:1;" d="M 224.820312 232.800781 C 221.0625 200.386719 208.867188 190.109375 195.988281 179.253906 C 195.199219 178.570312 194.382812 177.910156 193.570312 177.226562 C 180.585938 166.1875 168.363281 153.464844 161.136719 119.945312 C 158.140625 105.960938 153.199219 97.050781 145.65625 91.898438 C 138.875 87.269531 130.832031 86.273438 122.316406 85.21875 C 113.824219 84.167969 105.046875 83.0625 96.320312 78.386719 C 86.121094 72.917969 77.710938 63.242188 70.617188 48.863281 C 70.351562 48.3125 69.722656 48.023438 69.144531 48.152344 C 68.539062 48.285156 68.117188 48.8125 68.117188 49.441406 L 68.117188 232.984375 C 68.117188 233.722656 68.695312 234.300781 69.433594 234.300781 L 223.503906 234.300781 C 223.875 234.300781 224.242188 234.140625 224.476562 233.851562 C 224.742188 233.5625 224.871094 233.167969 224.820312 232.800781 Z M 224.820312 232.800781 "/>
</g>
<g clip-path="url(#clip3)" clip-rule="nonzero">
<path style=" stroke:none;fill-rule:nonzero;fill:rgb(95.294118%,96.470588%,90.196078%);fill-opacity:1;" d="M 442.832031 47.726562 L 295.039062 47.726562 C 294.59375 47.726562 294.171875 47.964844 293.933594 48.359375 C 293.695312 48.757812 293.667969 49.230469 293.878906 49.65625 C 310.492188 83.390625 328.976562 86.1875 345.269531 88.640625 C 360.90625 91.019531 374.382812 93.050781 384.558594 120.609375 C 393.550781 144.945312 405.230469 157.195312 415.566406 167.992188 C 422.554688 175.277344 429.121094 182.164062 433.839844 191.851562 C 439.085938 202.621094 441.511719 215.820312 441.511719 233.375 C 441.511719 234.113281 442.09375 234.695312 442.832031 234.695312 C 443.570312 234.695312 444.148438 234.113281 444.148438 233.375 L 444.148438 49.046875 C 444.148438 48.335938 443.570312 47.726562 442.832031 47.726562 Z M 442.832031 47.726562 "/>
</g>
<g clip-path="url(#clip4)" clip-rule="nonzero">
<path style=" stroke:none;fill-rule:nonzero;fill:rgb(21.960784%,22.745098%,28.235294%);fill-opacity:1;" d="M 404.917969 126.882812 L 372.003906 126.882812 C 371.652344 126.882812 371.3125 126.746094 371.066406 126.5 C 370.816406 126.253906 370.679688 125.914062 370.683594 125.566406 C 370.679688 125.214844 370.816406 124.878906 371.066406 124.632812 C 371.3125 124.382812 371.652344 124.246094 372.003906 124.25 L 404.917969 124.25 C 405.269531 124.246094 405.609375 124.382812 405.855469 124.632812 C 406.105469 124.878906 406.242188 125.214844 406.238281 125.566406 C 406.242188 125.914062 406.105469 126.253906 405.855469 126.5 C 405.609375 126.746094 405.269531 126.882812 404.917969 126.882812 Z M 404.917969 126.882812 "/>
</g>
<g clip-path="url(#clip5)" clip-rule="nonzero">
<path style=" stroke:none;fill-rule:nonzero;fill:rgb(21.960784%,22.745098%,28.235294%);fill-opacity:1;" d="M 415.890625 234.695312 L 415.835938 234.695312 L 388.449219 234.617188 L 361.058594 234.695312 L 361.003906 234.695312 C 357.472656 234.695312 354.082031 233.300781 351.582031 230.8125 C 349.082031 228.328125 347.679688 224.953125 347.679688 221.433594 L 347.679688 214.066406 C 347.679688 208.15625 349.90625 202.457031 353.921875 198.097656 L 375.46875 174.738281 L 375.46875 125.566406 C 375.464844 125.214844 375.601562 124.878906 375.851562 124.632812 C 376.097656 124.382812 376.4375 124.246094 376.789062 124.25 L 400.054688 124.25 C 400.40625 124.246094 400.742188 124.382812 400.992188 124.632812 C 401.242188 124.878906 401.378906 125.214844 401.375 125.566406 L 401.375 174.738281 L 422.921875 198.097656 C 426.9375 202.457031 429.164062 208.15625 429.160156 214.066406 L 429.160156 221.433594 C 429.167969 224.960938 427.757812 228.339844 425.25 230.828125 C 422.78125 233.320312 419.40625 234.714844 415.890625 234.695312 Z M 388.449219 231.957031 L 405.339844 232.011719 L 415.835938 232.039062 L 415.863281 232.039062 C 421.757812 232.027344 426.535156 227.273438 426.542969 221.410156 L 426.542969 214.042969 C 426.539062 208.78125 424.558594 203.714844 420.992188 199.835938 L 399.101562 176.078125 C 398.882812 175.832031 398.757812 175.515625 398.757812 175.183594 L 398.757812 126.882812 L 378.136719 126.882812 L 378.136719 175.238281 C 378.136719 175.566406 378.015625 175.882812 377.792969 176.132812 L 355.902344 199.886719 C 352.320312 203.757812 350.335938 208.832031 350.351562 214.09375 L 350.351562 221.460938 C 350.359375 227.328125 355.136719 232.082031 361.03125 232.089844 L 361.058594 232.089844 Z M 388.449219 231.957031 "/>
</g>
<path style=" stroke:none;fill-rule:nonzero;fill:rgb(87.843137%,44.313725%,61.960784%);fill-opacity:1;" d="M 427.890625 214.066406 L 427.890625 221.433594 C 427.894531 224.605469 426.625 227.648438 424.367188 229.890625 C 422.113281 232.132812 419.050781 233.386719 415.863281 233.378906 L 405.367188 233.351562 L 388.472656 233.300781 L 361.085938 233.378906 C 357.898438 233.386719 354.835938 232.132812 352.578125 229.890625 C 350.324219 227.648438 349.054688 224.605469 349.054688 221.433594 L 349.054688 214.066406 C 349.066406 208.480469 351.167969 203.09375 354.953125 198.96875 L 370.230469 182.390625 L 406.742188 182.390625 L 422.023438 198.96875 C 425.789062 203.105469 427.878906 208.484375 427.890625 214.066406 Z M 427.890625 214.066406 "/>
<g clip-path="url(#clip6)" clip-rule="nonzero">
<path style=" stroke:none;fill-rule:nonzero;fill:rgb(21.960784%,22.745098%,28.235294%);fill-opacity:1;" d="M 415.890625 234.695312 L 415.835938 234.695312 L 388.449219 234.617188 L 361.058594 234.695312 L 361.003906 234.695312 C 357.472656 234.695312 354.082031 233.300781 351.582031 230.8125 C 349.082031 228.328125 347.679688 224.953125 347.679688 221.433594 L 347.679688 214.066406 C 347.679688 208.15625 349.90625 202.457031 353.921875 198.097656 L 369.203125 181.523438 C 369.453125 181.253906 369.808594 181.101562 370.179688 181.101562 L 406.6875 181.101562 C 407.058594 181.109375 407.410156 181.257812 407.667969 181.523438 L 422.949219 198.097656 C 426.964844 202.457031 429.191406 208.15625 429.1875 214.066406 L 429.1875 221.433594 C 429.195312 224.960938 427.785156 228.339844 425.273438 230.828125 C 422.792969 233.316406 419.414062 234.710938 415.890625 234.695312 Z M 388.449219 231.957031 L 415.835938 232.039062 L 415.863281 232.039062 C 421.757812 232.027344 426.535156 227.273438 426.542969 221.410156 L 426.542969 214.042969 C 426.539062 208.78125 424.558594 203.714844 420.992188 199.835938 L 406.109375 183.707031 L 370.761719 183.707031 L 355.875 199.835938 C 352.292969 203.707031 350.3125 208.78125 350.324219 214.042969 L 350.324219 221.410156 C 350.332031 227.273438 355.109375 232.027344 361.003906 232.039062 L 361.03125 232.039062 Z M 388.449219 231.957031 "/>
</g>
<g clip-path="url(#clip7)" clip-rule="nonzero">
<path style=" stroke:none;fill-rule:nonzero;fill:rgb(21.960784%,22.745098%,28.235294%);fill-opacity:1;" d="M 413.289062 217.972656 L 389.878906 182.078125 L 378.792969 165.078125 C 378.480469 164.585938 377.886719 164.378906 377.34375 164.535156 C 376.800781 164.691406 376.414062 165.207031 376.414062 165.777344 L 376.414062 175.210938 L 370.289062 181.921875 L 355.355469 198.25 C 351.425781 202.554688 349.257812 208.152344 349.257812 213.980469 L 349.257812 221.238281 C 349.257812 224.738281 350.625 228.027344 353.082031 230.492188 C 355.535156 232.953125 358.792969 234.300781 362.28125 234.300781 C 362.304688 234.300781 362.304688 234.300781 362.332031 234.300781 L 389.101562 234.222656 L 405.613281 234.273438 C 405.664062 234.273438 405.71875 234.273438 405.769531 234.273438 C 409.386719 233.832031 412.460938 231.605469 414.011719 228.261719 C 415.5625 224.890625 415.304688 221.058594 413.289062 217.972656 Z M 413.289062 217.972656 "/>
</g>
<g clip-path="url(#clip8)" clip-rule="nonzero">
<path style=" stroke:none;fill-rule:nonzero;fill:rgb(21.960784%,22.745098%,28.235294%);fill-opacity:1;" d="M 363.597656 91.382812 L 317.175781 91.382812 C 316.828125 91.386719 316.492188 91.25 316.246094 91 C 316 90.753906 315.859375 90.417969 315.863281 90.066406 C 315.859375 89.714844 316 89.378906 316.246094 89.132812 C 316.492188 88.882812 316.828125 88.746094 317.175781 88.75 L 363.597656 88.75 C 363.945312 88.746094 364.28125 88.882812 364.527344 89.132812 C 364.773438 89.378906 364.910156 89.714844 364.90625 90.066406 C 364.910156 90.417969 364.773438 90.753906 364.527344 91 C 364.28125 91.25 363.945312 91.386719 363.597656 91.382812 Z M 363.597656 91.382812 "/>
</g>
<g clip-path="url(#clip9)" clip-rule="nonzero">
<path style=" stroke:none;fill-rule:nonzero;fill:rgb(66.666667%,77.647059%,98.823529%);fill-opacity:1;" d="M 384.601562 233.773438 L 296.246094 233.773438 C 288.800781 233.773438 284.316406 225.476562 288.378906 219.210938 L 313.03125 181.105469 L 367.820312 181.105469 L 392.472656 219.210938 C 396.535156 225.476562 392.050781 233.773438 384.601562 233.773438 Z M 384.601562 233.773438 "/>
</g>
<path style=" stroke:none;fill-rule:nonzero;fill:rgb(21.960784%,22.745098%,28.235294%);fill-opacity:1;" d="M 368.867188 180.367188 C 368.625 179.992188 368.210938 179.761719 367.765625 179.761719 L 312.925781 179.761719 C 312.480469 179.761719 312.066406 179.992188 311.824219 180.367188 L 310.496094 182.421875 L 370.195312 182.421875 Z M 368.867188 180.367188 "/>
<path style=" stroke:none;fill-rule:nonzero;fill:rgb(66.666667%,77.647059%,98.823529%);fill-opacity:1;" d="M 363.675781 206.804688 C 363.675781 208.8125 362.054688 210.441406 360.054688 210.441406 C 358.058594 210.441406 356.4375 208.8125 356.4375 206.804688 C 356.4375 204.800781 358.058594 203.171875 360.054688 203.171875 C 362.054688 203.171875 363.675781 204.800781 363.675781 206.804688 Z M 363.675781 206.804688 "/>
<path style=" stroke:none;fill-rule:nonzero;fill:rgb(95.294118%,96.470588%,90.196078%);fill-opacity:1;" d="M 360.054688 211.757812 C 357.332031 211.757812 355.125 209.539062 355.125 206.804688 C 355.125 204.070312 357.332031 201.855469 360.054688 201.855469 C 362.777344 201.855469 364.984375 204.070312 364.984375 206.804688 C 364.980469 209.539062 362.777344 211.75 360.054688 211.757812 Z M 360.054688 204.488281 C 358.78125 204.488281 357.746094 205.527344 357.746094 206.804688 C 357.746094 208.085938 358.78125 209.125 360.054688 209.125 C 361.332031 209.125 362.363281 208.085938 362.363281 206.804688 C 362.363281 205.527344 361.328125 204.492188 360.054688 204.488281 Z M 360.054688 204.488281 "/>
<path style=" stroke:none;fill-rule:nonzero;fill:rgb(66.666667%,77.647059%,98.823529%);fill-opacity:1;" d="M 338.105469 218.710938 C 338.105469 220.714844 336.484375 222.34375 334.484375 222.34375 C 332.488281 222.34375 330.867188 220.714844 330.867188 218.710938 C 330.867188 216.703125 332.488281 215.074219 334.484375 215.074219 C 336.484375 215.074219 338.105469 216.703125 338.105469 218.710938 Z M 338.105469 218.710938 "/>
<path style=" stroke:none;fill-rule:nonzero;fill:rgb(95.294118%,96.470588%,90.196078%);fill-opacity:1;" d="M 334.484375 223.660156 C 331.761719 223.660156 329.554688 221.441406 329.554688 218.710938 C 329.554688 215.976562 331.761719 213.757812 334.484375 213.757812 C 337.207031 213.757812 339.414062 215.976562 339.414062 218.710938 C 339.410156 221.441406 337.207031 223.652344 334.484375 223.660156 Z M 334.484375 216.367188 C 333.210938 216.367188 332.175781 217.402344 332.175781 218.683594 C 332.175781 219.960938 333.210938 221 334.484375 221 C 335.757812 221 336.792969 219.960938 336.792969 218.683594 C 336.792969 217.402344 335.757812 216.367188 334.484375 216.367188 Z M 334.484375 216.367188 "/>
<path style=" stroke:none;fill-rule:nonzero;fill:rgb(66.666667%,77.647059%,98.823529%);fill-opacity:1;" d="M 334.484375 194.480469 C 334.484375 196.488281 332.867188 198.117188 330.867188 198.117188 C 328.867188 198.117188 327.246094 196.488281 327.246094 194.480469 C 327.246094 192.472656 328.867188 190.847656 330.867188 190.847656 C 332.867188 190.847656 334.484375 192.472656 334.484375 194.480469 Z M 334.484375 194.480469 "/>
<path style=" stroke:none;fill-rule:nonzero;fill:rgb(95.294118%,96.470588%,90.196078%);fill-opacity:1;" d="M 330.867188 199.433594 C 328.144531 199.433594 325.933594 197.214844 325.933594 194.480469 C 325.933594 191.746094 328.144531 189.53125 330.867188 189.53125 C 333.589844 189.53125 335.796875 191.746094 335.796875 194.480469 C 335.789062 197.214844 333.585938 199.425781 330.867188 199.433594 Z M 330.867188 192.136719 C 329.589844 192.136719 328.558594 193.175781 328.558594 194.457031 C 328.558594 195.734375 329.589844 196.773438 330.867188 196.773438 C 332.140625 196.773438 333.175781 195.734375 333.175781 194.457031 C 333.171875 193.175781 332.140625 192.140625 330.867188 192.136719 Z M 330.867188 192.136719 "/>
<g clip-path="url(#clip10)" clip-rule="nonzero">
<path style=" stroke:none;fill-rule:nonzero;fill:rgb(21.960784%,22.745098%,28.235294%);fill-opacity:1;" d="M 384.601562 235.089844 L 296.167969 235.089844 C 292.25 235.085938 288.644531 232.929688 286.773438 229.46875 C 284.90625 226.011719 285.066406 221.800781 287.199219 218.5 L 320.980469 166.304688 L 320.980469 90.066406 C 320.976562 89.714844 321.113281 89.378906 321.359375 89.132812 C 321.605469 88.882812 321.941406 88.746094 322.289062 88.75 L 358.457031 88.75 C 358.804688 88.746094 359.140625 88.882812 359.386719 89.132812 C 359.632812 89.378906 359.769531 89.714844 359.765625 90.066406 L 359.765625 166.304688 L 393.574219 218.5 C 395.703125 221.800781 395.867188 226.011719 393.996094 229.46875 C 392.128906 232.929688 388.523438 235.085938 384.601562 235.089844 Z M 323.628906 91.382812 L 323.628906 166.699219 C 323.625 166.953125 323.554688 167.199219 323.417969 167.410156 L 289.429688 219.945312 C 287.785156 222.433594 287.664062 225.636719 289.113281 228.242188 C 290.511719 230.875 293.25 232.507812 296.222656 232.480469 L 384.65625 232.480469 C 387.621094 232.484375 390.347656 230.855469 391.761719 228.242188 C 393.179688 225.628906 393.058594 222.445312 391.449219 219.945312 L 366.796875 181.839844 L 357.460938 167.4375 C 357.328125 167.222656 357.253906 166.976562 357.25 166.726562 L 357.25 91.410156 Z M 323.628906 91.382812 "/>
</g>
<g clip-path="url(#clip11)" clip-rule="nonzero">
<path style=" stroke:none;fill-rule:nonzero;fill:rgb(21.960784%,22.745098%,28.235294%);fill-opacity:1;" d="M 195.96875 228.148438 L 195.785156 228.148438 C 186.046875 226.863281 178.117188 221.0625 171.582031 210.355469 C 165.121094 199.832031 155.382812 193.5625 145.539062 193.5625 C 135.695312 193.5625 125.929688 199.832031 119.496094 210.355469 C 113.984375 219.332031 105.003906 226.046875 96.078125 227.882812 C 95.367188 228.03125 94.675781 227.570312 94.53125 226.863281 C 94.386719 226.152344 94.84375 225.457031 95.554688 225.3125 C 103.796875 223.609375 112.121094 217.363281 117.265625 208.964844 C 124.195312 197.65625 134.773438 190.910156 145.539062 190.910156 C 156.300781 190.910156 166.90625 197.65625 173.8125 208.964844 C 179.929688 218.9375 187.226562 224.34375 196.125 225.523438 C 196.808594 225.617188 197.304688 226.21875 197.261719 226.90625 C 197.222656 227.59375 196.65625 228.136719 195.96875 228.148438 Z M 195.96875 228.148438 "/>
</g>
<g clip-path="url(#clip12)" clip-rule="nonzero">
<path style=" stroke:none;fill-rule:nonzero;fill:rgb(21.960784%,22.745098%,28.235294%);fill-opacity:1;" d="M 145.539062 228.382812 C 134.75 228.382812 124.167969 221.640625 117.265625 210.328125 C 112.121094 201.957031 103.796875 195.6875 95.554688 193.980469 C 94.851562 193.828125 94.394531 193.140625 94.53125 192.433594 C 94.675781 191.722656 95.367188 191.265625 96.078125 191.410156 C 105.03125 193.246094 113.984375 199.964844 119.496094 208.9375 C 125.953125 219.460938 135.695312 225.734375 145.539062 225.734375 C 155.382812 225.734375 165.148438 219.460938 171.582031 208.9375 C 178.144531 198.257812 186.046875 192.433594 195.785156 191.148438 C 196.5 191.058594 197.15625 191.5625 197.253906 192.277344 C 197.34375 192.992188 196.839844 193.644531 196.125 193.746094 C 187.226562 194.925781 179.929688 200.332031 173.8125 210.304688 C 166.882812 221.640625 156.300781 228.382812 145.539062 228.382812 Z M 145.539062 228.382812 "/>
</g>
<path style=" stroke:none;fill-rule:nonzero;fill:rgb(21.960784%,22.745098%,28.235294%);fill-opacity:1;" d="M 100.28125 226.546875 C 99.929688 226.550781 99.59375 226.414062 99.347656 226.164062 C 99.101562 225.917969 98.964844 225.582031 98.96875 225.234375 L 98.96875 194.058594 C 98.96875 193.335938 99.554688 192.746094 100.28125 192.746094 C 101.003906 192.746094 101.59375 193.335938 101.59375 194.058594 L 101.59375 225.234375 C 101.597656 225.582031 101.457031 225.917969 101.210938 226.164062 C 100.964844 226.414062 100.628906 226.550781 100.28125 226.546875 Z M 100.28125 226.546875 "/>
<path style=" stroke:none;fill-rule:nonzero;fill:rgb(21.960784%,22.745098%,28.235294%);fill-opacity:1;" d="M 109.363281 221.167969 C 109.015625 221.171875 108.679688 221.035156 108.429688 220.785156 C 108.183594 220.539062 108.046875 220.203125 108.050781 219.855469 L 108.050781 199.4375 C 108.050781 198.714844 108.636719 198.128906 109.363281 198.128906 C 110.085938 198.128906 110.675781 198.714844 110.675781 199.4375 L 110.675781 219.855469 C 110.679688 220.203125 110.542969 220.539062 110.296875 220.785156 C 110.046875 221.035156 109.710938 221.171875 109.363281 221.167969 Z M 109.363281 221.167969 "/>
<path style=" stroke:none;fill-rule:nonzero;fill:rgb(21.960784%,22.745098%,28.235294%);fill-opacity:1;" d="M 127.554688 221.585938 C 127.207031 221.589844 126.871094 221.453125 126.625 221.207031 C 126.375 220.960938 126.238281 220.625 126.242188 220.273438 L 126.242188 199.152344 C 126.242188 198.425781 126.832031 197.839844 127.554688 197.839844 C 128.28125 197.839844 128.867188 198.425781 128.867188 199.152344 L 128.867188 220.273438 C 128.855469 220.996094 128.277344 221.574219 127.554688 221.585938 Z M 127.554688 221.585938 "/>
<path style=" stroke:none;fill-rule:nonzero;fill:rgb(21.960784%,22.745098%,28.235294%);fill-opacity:1;" d="M 136.640625 226.808594 C 136.289062 226.8125 135.953125 226.675781 135.707031 226.429688 C 135.460938 226.179688 135.324219 225.847656 135.328125 225.496094 L 135.328125 193.824219 C 135.328125 193.097656 135.914062 192.511719 136.640625 192.511719 C 137.363281 192.511719 137.953125 193.097656 137.953125 193.824219 L 137.953125 225.46875 C 137.953125 226.199219 137.367188 226.792969 136.640625 226.808594 Z M 136.640625 226.808594 "/>
<g clip-path="url(#clip13)" clip-rule="nonzero">
<path style=" stroke:none;fill-rule:nonzero;fill:rgb(21.960784%,22.745098%,28.235294%);fill-opacity:1;" d="M 145.722656 228.382812 C 145.375 228.386719 145.039062 228.25 144.789062 228.003906 C 144.542969 227.757812 144.40625 227.421875 144.410156 227.070312 L 144.410156 192.25 C 144.410156 191.523438 144.996094 190.9375 145.722656 190.9375 C 146.445312 190.9375 147.035156 191.523438 147.035156 192.25 L 147.035156 227.070312 C 147.039062 227.421875 146.902344 227.757812 146.652344 228.003906 C 146.40625 228.25 146.070312 228.386719 145.722656 228.382812 Z M 145.722656 228.382812 "/>
<path style=" stroke:none;fill-rule:nonzero;fill:rgb(21.960784%,22.745098%,28.235294%);fill-opacity:1;" d="M 145.722656 228.382812 C 145.375 228.386719 145.039062 228.25 144.789062 228.003906 C 144.542969 227.757812 144.40625 227.421875 144.410156 227.070312 L 144.410156 192.25 C 144.410156 191.523438 144.996094 190.9375 145.722656 190.9375 C 146.445312 190.9375 147.035156 191.523438 147.035156 192.25 L 147.035156 227.070312 C 147.039062 227.421875 146.902344 227.757812 146.652344 228.003906 C 146.40625 228.25 146.070312 228.386719 145.722656 228.382812 Z M 145.722656 228.382812 "/>
</g>
<path style=" stroke:none;fill-rule:nonzero;fill:rgb(21.960784%,22.745098%,28.235294%);fill-opacity:1;" d="M 154.804688 226.652344 C 154.457031 226.65625 154.121094 226.519531 153.875 226.269531 C 153.625 226.023438 153.488281 225.6875 153.492188 225.339844 L 153.492188 193.980469 C 153.492188 193.257812 154.082031 192.667969 154.804688 192.667969 C 155.53125 192.667969 156.117188 193.257812 156.117188 193.980469 L 156.117188 225.339844 C 156.121094 225.6875 155.984375 226.023438 155.738281 226.269531 C 155.492188 226.519531 155.15625 226.65625 154.804688 226.652344 Z M 154.804688 226.652344 "/>
<path style=" stroke:none;fill-rule:nonzero;fill:rgb(21.960784%,22.745098%,28.235294%);fill-opacity:1;" d="M 163.890625 221.089844 C 163.539062 221.089844 163.203125 220.953125 162.957031 220.707031 C 162.710938 220.460938 162.574219 220.125 162.578125 219.777344 L 162.578125 199.386719 C 162.578125 198.664062 163.164062 198.074219 163.890625 198.074219 C 164.613281 198.074219 165.203125 198.664062 165.203125 199.386719 L 165.203125 219.777344 C 165.203125 220.125 165.066406 220.460938 164.820312 220.707031 C 164.574219 220.953125 164.238281 221.089844 163.890625 221.089844 Z M 163.890625 221.089844 "/>
<path style=" stroke:none;fill-rule:nonzero;fill:rgb(21.960784%,22.745098%,28.235294%);fill-opacity:1;" d="M 182.082031 222.085938 C 181.730469 222.089844 181.398438 221.953125 181.148438 221.703125 C 180.902344 221.457031 180.765625 221.121094 180.769531 220.773438 L 180.769531 198.574219 C 180.769531 197.847656 181.355469 197.261719 182.082031 197.261719 C 182.804688 197.261719 183.394531 197.847656 183.394531 198.574219 L 183.394531 220.773438 C 183.382812 221.492188 182.800781 222.074219 182.082031 222.085938 Z M 182.082031 222.085938 "/>
<path style=" stroke:none;fill-rule:nonzero;fill:rgb(21.960784%,22.745098%,28.235294%);fill-opacity:1;" d="M 191.164062 227.070312 C 190.816406 227.074219 190.480469 226.9375 190.234375 226.691406 C 189.984375 226.445312 189.847656 226.109375 189.851562 225.757812 L 189.851562 193.5625 C 189.851562 192.835938 190.441406 192.25 191.164062 192.25 C 191.890625 192.25 192.476562 192.835938 192.476562 193.5625 L 192.476562 225.734375 C 192.476562 226.460938 191.894531 227.058594 191.164062 227.070312 Z M 191.164062 227.070312 "/>
<g clip-path="url(#clip14)" clip-rule="nonzero">
<path style=" stroke:none;fill-rule:nonzero;fill:rgb(21.960784%,22.745098%,28.235294%);fill-opacity:1;" d="M 193.65625 176.761719 C 180.648438 165.714844 168.351562 152.984375 161.097656 119.445312 C 158.089844 105.453125 153.128906 96.535156 145.558594 91.378906 C 138.75 86.75 130.675781 85.75 122.125 84.699219 C 113.605469 83.648438 104.792969 82.542969 96.03125 77.859375 C 95.636719 77.648438 95.136719 77.648438 94.738281 77.886719 C 94.34375 78.125 94.105469 78.542969 94.105469 79.019531 L 94.105469 177.761719 C 94.105469 178.5 94.6875 179.078125 95.425781 179.078125 L 192.785156 179.078125 C 193.339844 179.078125 193.839844 178.734375 194.027344 178.210938 C 194.238281 177.683594 194.078125 177.105469 193.65625 176.761719 Z M 193.65625 176.761719 "/>
</g>
<path style=" stroke:none;fill-rule:nonzero;fill:rgb(95.294118%,96.470588%,90.196078%);fill-opacity:1;" d="M 103.292969 68.738281 L 250.691406 68.738281 L 250.691406 170.242188 L 103.292969 170.242188 Z M 103.292969 68.738281 "/>
<g clip-path="url(#clip15)" clip-rule="nonzero">
<path style=" stroke:none;fill-rule:nonzero;fill:rgb(21.960784%,22.745098%,28.235294%);fill-opacity:1;" d="M 250.691406 171.582031 L 103.292969 171.582031 C 102.558594 171.582031 101.980469 171.003906 101.980469 170.269531 L 101.980469 68.765625 C 101.980469 68.027344 102.558594 67.449219 103.292969 67.449219 L 250.691406 67.449219 C 251.421875 67.449219 252 68.027344 252 68.765625 L 252 170.269531 C 252 170.980469 251.398438 171.582031 250.691406 171.582031 Z M 104.601562 168.953125 L 249.378906 168.953125 L 249.378906 70.078125 L 104.601562 70.078125 Z M 104.601562 168.953125 "/>
</g>
<path style=" stroke:none;fill-rule:nonzero;fill:rgb(96.470588%,87.843137%,28.627451%);fill-opacity:1;" d="M 103.292969 68.738281 L 250.691406 68.738281 L 250.691406 92.140625 L 103.292969 92.140625 Z M 103.292969 68.738281 "/>
<g clip-path="url(#clip16)" clip-rule="nonzero">
<path style=" stroke:none;fill-rule:nonzero;fill:rgb(21.960784%,22.745098%,28.235294%);fill-opacity:1;" d="M 252 93.484375 L 101.980469 93.484375 L 101.980469 67.449219 L 252 67.449219 Z M 104.601562 90.855469 L 249.378906 90.855469 L 249.378906 70.078125 L 104.601562 70.078125 Z M 104.601562 90.855469 "/>
</g>
<path style=" stroke:none;fill-rule:nonzero;fill:rgb(21.960784%,22.745098%,28.235294%);fill-opacity:1;" d="M 234.699219 77.746094 L 236.550781 75.886719 L 242.667969 82.023438 L 240.8125 83.882812 Z M 234.699219 77.746094 "/>
<path style=" stroke:none;fill-rule:nonzero;fill:rgb(21.960784%,22.745098%,28.235294%);fill-opacity:1;" d="M 234.699219 82.023438 L 240.8125 75.886719 L 242.667969 77.746094 L 236.550781 83.882812 Z M 234.699219 82.023438 "/>
<path style=" stroke:none;fill-rule:nonzero;fill:rgb(21.960784%,22.745098%,28.235294%);fill-opacity:1;" d="M 230.433594 84.542969 L 221.132812 84.542969 L 221.132812 75.234375 L 230.433594 75.234375 Z M 223.777344 81.914062 L 227.8125 81.914062 L 227.8125 77.863281 L 223.75 77.863281 Z M 223.777344 81.914062 "/>
<path style=" stroke:none;fill-rule:nonzero;fill:rgb(21.960784%,22.745098%,28.235294%);fill-opacity:1;" d="M 209.183594 81.914062 L 215.863281 81.914062 L 215.863281 84.542969 L 209.183594 84.542969 Z M 209.183594 81.914062 "/>
<path style=" stroke:none;fill-rule:nonzero;fill:rgb(95.294118%,96.470588%,90.196078%);fill-opacity:1;" d="M 116.28125 59.265625 L 263.292969 59.265625 L 263.292969 160.386719 L 116.28125 160.386719 Z M 116.28125 59.265625 "/>
<g clip-path="url(#clip17)" clip-rule="nonzero">
<path style=" stroke:none;fill-rule:nonzero;fill:rgb(21.960784%,22.745098%,28.235294%);fill-opacity:1;" d="M 263.292969 161.722656 L 116.28125 161.722656 C 115.550781 161.722656 114.976562 161.144531 114.976562 160.414062 L 114.976562 59.292969 C 114.976562 58.558594 115.550781 57.984375 116.28125 57.984375 L 263.292969 57.984375 C 264.023438 57.984375 264.601562 58.558594 264.601562 59.292969 L 264.601562 160.414062 C 264.601562 161.121094 264 161.722656 263.292969 161.722656 Z M 117.589844 159.101562 L 261.988281 159.101562 L 261.988281 60.601562 L 117.589844 60.601562 Z M 117.589844 159.101562 "/>
</g>
<path style=" stroke:none;fill-rule:nonzero;fill:rgb(96.470588%,87.843137%,28.627451%);fill-opacity:1;" d="M 116.28125 59.265625 L 263.292969 59.265625 L 263.292969 82.582031 L 116.28125 82.582031 Z M 116.28125 59.265625 "/>
<g clip-path="url(#clip18)" clip-rule="nonzero">
<path style=" stroke:none;fill-rule:nonzero;fill:rgb(21.960784%,22.745098%,28.235294%);fill-opacity:1;" d="M 264.601562 83.917969 L 114.976562 83.917969 L 114.976562 57.984375 L 264.601562 57.984375 Z M 117.589844 81.296875 L 261.988281 81.296875 L 261.988281 60.601562 L 117.589844 60.601562 Z M 117.589844 81.296875 "/>
</g>
<path style=" stroke:none;fill-rule:nonzero;fill:rgb(21.960784%,22.745098%,28.235294%);fill-opacity:1;" d="M 247.34375 68.242188 L 249.191406 66.390625 L 255.289062 72.503906 L 253.441406 74.355469 Z M 247.34375 68.242188 "/>
<path style=" stroke:none;fill-rule:nonzero;fill:rgb(21.960784%,22.745098%,28.235294%);fill-opacity:1;" d="M 247.34375 72.503906 L 253.441406 66.390625 L 255.289062 68.242188 L 249.191406 74.355469 Z M 247.34375 72.503906 "/>
<path style=" stroke:none;fill-rule:nonzero;fill:rgb(21.960784%,22.745098%,28.235294%);fill-opacity:1;" d="M 243.089844 75.011719 L 233.8125 75.011719 L 233.8125 65.738281 L 243.089844 65.738281 Z M 236.453125 72.390625 L 240.476562 72.390625 L 240.476562 68.355469 L 236.425781 68.355469 Z M 236.453125 72.390625 "/>
<path style=" stroke:none;fill-rule:nonzero;fill:rgb(21.960784%,22.745098%,28.235294%);fill-opacity:1;" d="M 221.894531 72.390625 L 228.558594 72.390625 L 228.558594 75.011719 L 221.894531 75.011719 Z M 221.894531 72.390625 "/>
<g clip-path="url(#clip19)" clip-rule="nonzero">
<path style=" stroke:none;fill-rule:nonzero;fill:rgb(93.333333%,74.509804%,82.745098%);fill-opacity:1;" d="M 303.070312 183.085938 L 303.070312 150.816406 L 280.070312 150.816406 L 280.070312 183.113281 C 271.242188 187.398438 265.132812 196.445312 265.132812 206.945312 C 265.132812 221.546875 276.976562 233.398438 291.570312 233.398438 C 306.164062 233.398438 318.007812 221.546875 318.007812 206.945312 C 318.007812 196.445312 311.902344 187.371094 303.070312 183.085938 Z M 303.070312 183.085938 "/>
</g>
<g clip-path="url(#clip20)" clip-rule="nonzero">
<path style=" stroke:none;fill-rule:nonzero;fill:rgb(21.960784%,22.745098%,28.235294%);fill-opacity:1;" d="M 291.570312 234.695312 C 276.265625 234.695312 263.8125 222.234375 263.8125 206.921875 C 263.8125 201.605469 265.320312 196.417969 268.175781 191.976562 C 270.792969 187.875 274.441406 184.542969 278.75 182.292969 L 278.75 150.816406 C 278.75 150.078125 279.332031 149.496094 280.070312 149.496094 L 303.070312 149.496094 C 303.8125 149.496094 304.394531 150.078125 304.394531 150.816406 L 304.394531 182.292969 C 308.703125 184.542969 312.351562 187.875 314.96875 191.976562 C 317.824219 196.445312 319.332031 201.605469 319.332031 206.921875 C 319.332031 222.234375 306.878906 234.695312 291.570312 234.695312 Z M 281.394531 152.140625 L 281.394531 183.113281 C 281.394531 183.617188 281.101562 184.09375 280.652344 184.304688 C 276.476562 186.339844 272.933594 189.488281 270.394531 193.402344 C 267.804688 197.449219 266.457031 202.105469 266.457031 206.921875 C 266.457031 220.78125 277.71875 232.050781 291.570312 232.050781 C 305.425781 232.050781 316.6875 220.78125 316.6875 206.921875 C 316.6875 202.105469 315.3125 197.425781 312.75 193.402344 C 310.238281 189.460938 306.695312 186.316406 302.492188 184.304688 C 302.042969 184.09375 301.75 183.617188 301.75 183.113281 L 301.75 152.140625 Z M 281.394531 152.140625 "/>
</g>
<g clip-path="url(#clip21)" clip-rule="nonzero">
<path style=" stroke:none;fill-rule:nonzero;fill:rgb(21.960784%,22.745098%,28.235294%);fill-opacity:1;" d="M 307.222656 152.140625 L 276.554688 152.140625 C 275.816406 152.140625 275.234375 151.558594 275.234375 150.816406 C 275.234375 150.078125 275.816406 149.496094 276.554688 149.496094 L 307.222656 149.496094 C 307.964844 149.496094 308.542969 150.078125 308.542969 150.816406 C 308.542969 151.558594 307.9375 152.140625 307.222656 152.140625 Z M 307.222656 152.140625 "/>
</g>
<g clip-path="url(#clip22)" clip-rule="nonzero">
<path style=" stroke:none;fill-rule:nonzero;fill:rgb(87.843137%,44.313725%,61.960784%);fill-opacity:1;" d="M 318.007812 206.921875 C 318.007812 220.488281 307.777344 231.679688 294.613281 233.1875 C 288.242188 231.96875 284.777344 224.511719 288.53125 218.746094 L 309.074219 187.109375 C 314.574219 191.949219 318.007812 199.039062 318.007812 206.921875 Z M 318.007812 206.921875 "/>
</g>
<g clip-path="url(#clip23)" clip-rule="nonzero">
<path style=" stroke:none;fill-rule:nonzero;fill:rgb(21.960784%,22.745098%,28.235294%);fill-opacity:1;" d="M 294.613281 234.507812 C 294.53125 234.507812 294.453125 234.507812 294.375 234.484375 C 290.882812 233.820312 287.949219 231.414062 286.546875 228.109375 C 285.121094 224.75 285.4375 221.097656 287.449219 218.03125 L 307.988281 186.394531 C 308.199219 186.078125 308.542969 185.863281 308.914062 185.8125 C 309.285156 185.757812 309.679688 185.863281 309.972656 186.128906 C 315.921875 191.394531 319.332031 198.984375 319.332031 206.921875 C 319.332031 221.046875 308.78125 232.894531 294.769531 234.507812 C 294.71875 234.507812 294.664062 234.507812 294.613281 234.507812 Z M 309.335938 189.171875 L 289.640625 219.484375 C 288.136719 221.785156 287.898438 224.5625 288.980469 227.101562 C 290.011719 229.5625 292.152344 231.335938 294.691406 231.890625 C 307.25 230.355469 316.6875 219.671875 316.6875 206.945312 C 316.6875 200.253906 314.015625 193.851562 309.335938 189.171875 Z M 309.335938 189.171875 "/>
</g>
<path style=" stroke:none;fill-rule:nonzero;fill:rgb(96.470588%,87.843137%,28.627451%);fill-opacity:1;" d="M 294.613281 233.1875 C 293.609375 233.292969 292.601562 233.371094 291.570312 233.371094 C 276.976562 233.371094 265.132812 221.523438 265.132812 206.921875 C 265.132812 196.445312 271.242188 187.371094 280.070312 183.085938 L 303.070312 183.085938 C 305.265625 184.144531 307.277344 185.496094 309.101562 187.109375 L 288.558594 218.746094 C 284.804688 224.511719 288.265625 231.96875 294.613281 233.1875 Z M 294.613281 233.1875 "/>
<g clip-path="url(#clip24)" clip-rule="nonzero">
<path style=" stroke:none;fill-rule:nonzero;fill:rgb(21.960784%,22.745098%,28.235294%);fill-opacity:1;" d="M 291.570312 234.695312 C 276.265625 234.695312 263.8125 222.234375 263.8125 206.921875 C 263.8125 201.605469 265.320312 196.417969 268.175781 191.976562 C 270.949219 187.636719 274.863281 184.144531 279.488281 181.925781 L 279.753906 181.792969 L 303.363281 181.792969 L 303.628906 181.925781 C 305.925781 183.035156 308.042969 184.4375 309.945312 186.128906 L 310.792969 186.898438 L 289.617188 219.484375 C 288.109375 221.785156 287.871094 224.5625 288.953125 227.101562 C 290.011719 229.617188 292.234375 231.414062 294.851562 231.917969 L 303.203125 233.53125 L 294.769531 234.535156 C 293.738281 234.640625 292.65625 234.695312 291.570312 234.695312 Z M 280.390625 184.410156 C 276.316406 186.445312 272.878906 189.542969 270.421875 193.378906 C 267.832031 197.425781 266.484375 202.078125 266.484375 206.894531 C 266.484375 219.960938 276.527344 230.753906 289.296875 231.917969 C 288.136719 230.886719 287.210938 229.5625 286.574219 228.082031 C 285.148438 224.722656 285.464844 221.070312 287.472656 218.003906 L 307.382812 187.347656 C 305.953125 186.210938 304.421875 185.203125 302.808594 184.410156 Z M 280.390625 184.410156 "/>
</g>
<path style=" stroke:none;fill-rule:nonzero;fill:rgb(95.294118%,96.470588%,90.196078%);fill-opacity:1;" d="M 128.886719 49.410156 L 276.675781 49.410156 L 276.675781 150.914062 L 128.886719 150.914062 Z M 128.886719 49.410156 "/>
<g clip-path="url(#clip25)" clip-rule="nonzero">
<path style=" stroke:none;fill-rule:nonzero;fill:rgb(21.960784%,22.745098%,28.235294%);fill-opacity:1;" d="M 276.675781 152.253906 L 128.886719 152.253906 C 128.152344 152.253906 127.574219 151.675781 127.574219 150.941406 L 127.574219 49.4375 C 127.574219 48.699219 128.152344 48.121094 128.886719 48.121094 L 276.675781 48.121094 C 277.410156 48.121094 277.988281 48.699219 277.988281 49.4375 L 277.988281 150.941406 C 277.988281 151.652344 277.382812 152.253906 276.675781 152.253906 Z M 130.203125 149.625 L 275.359375 149.625 L 275.359375 50.75 L 130.203125 50.75 Z M 130.203125 149.625 "/>
</g>
<path style=" stroke:none;fill-rule:nonzero;fill:rgb(96.470588%,87.843137%,28.627451%);fill-opacity:1;" d="M 128.886719 49.410156 L 276.675781 49.410156 L 276.675781 72.8125 L 128.886719 72.8125 Z M 128.886719 49.410156 "/>
<g clip-path="url(#clip26)" clip-rule="nonzero">
<path style=" stroke:none;fill-rule:nonzero;fill:rgb(21.960784%,22.745098%,28.235294%);fill-opacity:1;" d="M 277.988281 74.15625 L 127.574219 74.15625 L 127.574219 48.121094 L 277.988281 48.121094 Z M 130.203125 71.527344 L 275.359375 71.527344 L 275.359375 50.75 L 130.203125 50.75 Z M 130.203125 71.527344 "/>
</g>
<path style=" stroke:none;fill-rule:nonzero;fill:rgb(21.960784%,22.745098%,28.235294%);fill-opacity:1;" d="M 260.640625 58.421875 L 262.5 56.5625 L 268.628906 62.695312 L 266.769531 64.554688 Z M 260.640625 58.421875 "/>
<path style=" stroke:none;fill-rule:nonzero;fill:rgb(21.960784%,22.745098%,28.235294%);fill-opacity:1;" d="M 260.640625 62.695312 L 266.769531 56.5625 L 268.628906 58.421875 L 262.5 64.554688 Z M 260.640625 62.695312 "/>
<path style=" stroke:none;fill-rule:nonzero;fill:rgb(21.960784%,22.745098%,28.235294%);fill-opacity:1;" d="M 256.363281 65.214844 L 247.039062 65.214844 L 247.039062 55.90625 L 256.363281 55.90625 Z M 249.691406 62.585938 L 253.738281 62.585938 L 253.738281 58.535156 L 249.664062 58.535156 Z M 249.691406 62.585938 "/>
<path style=" stroke:none;fill-rule:nonzero;fill:rgb(21.960784%,22.745098%,28.235294%);fill-opacity:1;" d="M 235.058594 62.585938 L 241.757812 62.585938 L 241.757812 65.214844 L 235.058594 65.214844 Z M 235.058594 62.585938 "/>
<g clip-path="url(#clip27)" clip-rule="nonzero">
<path style=" stroke:none;fill-rule:nonzero;fill:rgb(95.294118%,96.470588%,90.196078%);fill-opacity:1;" d="M 248.070312 217.339844 L 250.8125 217.339844 L 250.8125 226.410156 L 248.070312 226.410156 Z M 248.070312 217.339844 "/>
</g>
<g clip-path="url(#clip28)" clip-rule="nonzero">
<path style=" stroke:none;fill-rule:nonzero;fill:rgb(95.294118%,96.470588%,90.196078%);fill-opacity:1;" d="M 244.914062 220.5 L 253.96875 220.5 L 253.96875 223.25 L 244.914062 223.25 Z M 244.914062 220.5 "/>
</g>
<g clip-path="url(#clip29)" clip-rule="nonzero">
<path style=" stroke:none;fill-rule:nonzero;fill:rgb(95.294118%,96.470588%,90.196078%);fill-opacity:1;" d="M 294.667969 104.921875 L 297.53125 104.921875 L 297.53125 114.390625 L 294.667969 114.390625 Z M 294.667969 104.921875 "/>
</g>
<g clip-path="url(#clip30)" clip-rule="nonzero">
<path style=" stroke:none;fill-rule:nonzero;fill:rgb(95.294118%,96.470588%,90.196078%);fill-opacity:1;" d="M 291.375 108.222656 L 300.824219 108.222656 L 300.824219 111.089844 L 291.375 111.089844 Z M 291.375 108.222656 "/>
</g>
<g clip-path="url(#clip31)" clip-rule="nonzero">
<path style=" stroke:none;fill-rule:nonzero;fill:rgb(21.960784%,22.745098%,28.235294%);fill-opacity:1;" d="M 83.582031 135.292969 L 86.097656 135.292969 L 86.097656 143.578125 L 83.582031 143.578125 Z M 83.582031 135.292969 "/>
</g>
<g clip-path="url(#clip32)" clip-rule="nonzero">
<path style=" stroke:none;fill-rule:nonzero;fill:rgb(21.960784%,22.745098%,28.235294%);fill-opacity:1;" d="M 80.71875 138.191406 L 88.988281 138.191406 L 88.988281 140.707031 L 80.71875 140.707031 Z M 80.71875 138.191406 "/>
</g>
<path style=" stroke:none;fill-rule:nonzero;fill:rgb(87.843137%,44.313725%,61.960784%);fill-opacity:1;" d="M 419.589844 76.796875 L 412.792969 76.796875 C 411.914062 76.796875 411.222656 76.101562 411.222656 75.222656 L 411.222656 68.414062 C 411.222656 67.535156 410.527344 66.839844 409.648438 66.839844 L 401.867188 66.839844 C 400.988281 66.839844 400.296875 67.535156 400.296875 68.414062 L 400.296875 75.222656 C 400.296875 76.101562 399.605469 76.796875 398.722656 76.796875 L 391.929688 76.796875 C 391.050781 76.796875 390.355469 77.488281 390.355469 78.371094 L 390.355469 86.164062 C 390.355469 87.046875 391.050781 87.742188 391.929688 87.742188 L 398.722656 87.742188 C 399.605469 87.742188 400.296875 88.433594 400.296875 89.316406 L 400.296875 96.121094 C 400.296875 97.003906 400.988281 97.699219 401.867188 97.699219 L 409.648438 97.699219 C 410.527344 97.699219 411.222656 97.003906 411.222656 96.121094 L 411.222656 89.316406 C 411.222656 88.433594 411.914062 87.742188 412.792969 87.742188 L 419.589844 87.742188 C 420.46875 87.742188 421.160156 87.046875 421.160156 86.164062 L 421.160156 78.371094 C 421.160156 77.488281 420.441406 76.796875 419.589844 76.796875 Z M 419.589844 76.796875 "/>
<g clip-path="url(#clip33)" clip-rule="nonzero">
<path style=" stroke:none;fill-rule:nonzero;fill:rgb(21.960784%,22.745098%,28.235294%);fill-opacity:1;" d="M 409.648438 99.003906 L 401.867188 99.003906 C 400.269531 99.003906 398.964844 97.699219 398.964844 96.097656 L 398.964844 89.289062 C 398.964844 89.15625 398.859375 89.046875 398.722656 89.046875 L 391.929688 89.046875 C 390.332031 89.046875 389.023438 87.742188 389.023438 86.140625 L 389.023438 78.34375 C 389.023438 76.742188 390.332031 75.433594 391.929688 75.433594 L 398.722656 75.433594 C 398.859375 75.433594 398.964844 75.328125 398.964844 75.195312 L 398.964844 68.386719 C 398.964844 66.785156 400.269531 65.476562 401.867188 65.476562 L 409.648438 65.476562 C 411.25 65.476562 412.554688 66.785156 412.554688 68.386719 L 412.554688 75.195312 C 412.554688 75.328125 412.660156 75.433594 412.792969 75.433594 L 419.589844 75.433594 C 421.1875 75.433594 422.492188 76.742188 422.492188 78.34375 L 422.492188 86.140625 C 422.492188 87.742188 421.1875 89.046875 419.589844 89.046875 L 412.792969 89.046875 C 412.660156 89.046875 412.554688 89.15625 412.554688 89.289062 L 412.554688 96.097656 C 412.554688 97.699219 411.25 99.003906 409.648438 99.003906 Z M 391.957031 78.128906 C 391.824219 78.128906 391.714844 78.238281 391.714844 78.371094 L 391.714844 86.164062 C 391.714844 86.300781 391.824219 86.40625 391.957031 86.40625 L 398.75 86.40625 C 400.351562 86.40625 401.65625 87.714844 401.65625 89.316406 L 401.65625 96.121094 C 401.65625 96.257812 401.761719 96.363281 401.894531 96.363281 L 409.675781 96.363281 C 409.808594 96.363281 409.917969 96.257812 409.917969 96.121094 L 409.917969 89.316406 C 409.917969 87.714844 411.222656 86.40625 412.820312 86.40625 L 419.617188 86.40625 C 419.75 86.40625 419.855469 86.300781 419.855469 86.164062 L 419.855469 78.371094 C 419.855469 78.238281 419.75 78.128906 419.617188 78.128906 L 412.820312 78.128906 C 411.222656 78.128906 409.917969 76.824219 409.917969 75.222656 L 409.917969 68.414062 C 409.917969 68.28125 409.808594 68.175781 409.675781 68.175781 L 401.894531 68.175781 C 401.761719 68.175781 401.65625 68.28125 401.65625 68.414062 L 401.65625 75.222656 C 401.65625 76.824219 400.351562 78.128906 398.75 78.128906 Z M 391.957031 78.128906 "/>
</g>
<g clip-path="url(#clip34)" clip-rule="nonzero">
<path style=" stroke:none;fill-rule:nonzero;fill:rgb(21.960784%,22.745098%,28.235294%);fill-opacity:1;" d="M 247.90625 199.984375 C 247.539062 199.980469 247.1875 199.84375 246.917969 199.601562 C 246.359375 199.070312 246.347656 198.203125 246.890625 197.660156 C 249.457031 195.117188 250.703125 192.464844 250.589844 189.8125 C 250.417969 185.65625 247.003906 182.703125 246.972656 182.675781 C 246.382812 182.175781 246.320312 181.308594 246.832031 180.734375 C 247.074219 180.457031 247.421875 180.289062 247.792969 180.265625 C 248.164062 180.238281 248.53125 180.359375 248.808594 180.597656 C 248.980469 180.734375 253.15625 184.316406 253.382812 189.648438 C 253.523438 193.09375 252.027344 196.429688 248.894531 199.546875 C 248.648438 199.828125 248.285156 199.988281 247.90625 199.984375 Z M 247.90625 199.984375 "/>
</g>
<g clip-path="url(#clip35)" clip-rule="nonzero">
<path style=" stroke:none;fill-rule:nonzero;fill:rgb(21.960784%,22.745098%,28.235294%);fill-opacity:1;" d="M 256.09375 199.984375 C 255.710938 199.984375 255.347656 199.835938 255.078125 199.574219 C 251.945312 196.457031 250.445312 193.121094 250.589844 189.675781 C 250.8125 184.34375 254.992188 180.761719 255.164062 180.625 C 255.757812 180.128906 256.652344 180.191406 257.167969 180.761719 C 257.414062 181.03125 257.535156 181.386719 257.507812 181.746094 C 257.484375 182.105469 257.308594 182.441406 257.027344 182.675781 C 256.96875 182.730469 253.582031 185.683594 253.410156 189.8125 C 253.296875 192.464844 254.542969 195.117188 257.109375 197.660156 C 257.652344 198.203125 257.640625 199.070312 257.082031 199.601562 C 256.8125 199.84375 256.460938 199.980469 256.09375 199.984375 Z M 256.09375 199.984375 "/>
</g>
<g clip-path="url(#clip36)" clip-rule="nonzero">
<path style=" stroke:none;fill-rule:nonzero;fill:rgb(21.960784%,22.745098%,28.235294%);fill-opacity:1;" d="M 392.324219 158.960938 C 391.902344 158.960938 391.503906 158.773438 391.242188 158.398438 C 390.816406 157.808594 390.949219 156.953125 391.558594 156.523438 L 434.175781 125.683594 C 434.757812 125.253906 435.605469 125.386719 436.027344 126.003906 C 436.453125 126.59375 436.320312 127.449219 435.710938 127.878906 L 393.09375 158.71875 C 392.855469 158.878906 392.589844 158.960938 392.324219 158.960938 Z M 392.324219 158.960938 "/>
</g>
<g clip-path="url(#clip37)" clip-rule="nonzero">
<path style=" stroke:none;fill-rule:nonzero;fill:rgb(21.960784%,22.745098%,28.235294%);fill-opacity:1;" d="M 232.15625 212.605469 C 231.789062 212.601562 231.4375 212.460938 231.167969 212.207031 C 230.609375 211.65625 230.597656 210.753906 231.140625 210.1875 C 233.707031 207.542969 234.953125 204.785156 234.839844 202.027344 C 234.667969 197.703125 231.253906 194.632812 231.222656 194.605469 C 230.632812 194.085938 230.570312 193.183594 231.082031 192.585938 C 231.324219 192.300781 231.671875 192.125 232.042969 192.097656 C 232.414062 192.070312 232.78125 192.195312 233.058594 192.441406 C 233.230469 192.585938 237.40625 196.308594 237.632812 201.855469 C 237.773438 205.4375 236.277344 208.910156 233.144531 212.152344 C 232.898438 212.445312 232.535156 212.613281 232.15625 212.605469 Z M 232.15625 212.605469 "/>
</g>
<g clip-path="url(#clip38)" clip-rule="nonzero">
<path style=" stroke:none;fill-rule:nonzero;fill:rgb(21.960784%,22.745098%,28.235294%);fill-opacity:1;" d="M 240.34375 212.605469 C 239.960938 212.605469 239.597656 212.453125 239.328125 212.179688 C 236.195312 208.9375 234.695312 205.46875 234.839844 201.882812 C 235.0625 196.339844 239.242188 192.613281 239.414062 192.472656 C 240.007812 191.957031 240.902344 192.019531 241.417969 192.613281 C 241.664062 192.894531 241.785156 193.265625 241.757812 193.636719 C 241.734375 194.011719 241.558594 194.359375 241.277344 194.605469 C 241.21875 194.660156 237.832031 197.730469 237.660156 202.027344 C 237.546875 204.785156 238.792969 207.542969 241.359375 210.1875 C 241.902344 210.753906 241.890625 211.65625 241.332031 212.207031 C 241.0625 212.460938 240.710938 212.601562 240.34375 212.605469 Z M 240.34375 212.605469 "/>
</g>
<g clip-path="url(#clip39)" clip-rule="nonzero">
<path style=" stroke:none;fill-rule:nonzero;fill:rgb(21.960784%,22.745098%,28.235294%);fill-opacity:1;" d="M 443.34375 234.300781 L 416.605469 234.300781 C 415.933594 234.300781 415.40625 233.78125 415.40625 233.117188 C 415.40625 232.453125 415.933594 231.933594 416.605469 231.933594 L 443.34375 231.933594 C 444.015625 231.933594 444.542969 232.453125 444.542969 233.117188 C 444.542969 233.78125 444.015625 234.300781 443.34375 234.300781 Z M 443.34375 234.300781 "/>
</g>
<g clip-path="url(#clip40)" clip-rule="nonzero">
<path style=" stroke:none;fill-rule:nonzero;fill:rgb(21.960784%,22.745098%,28.235294%);fill-opacity:1;" d="M 227.996094 132.503906 L 227.917969 132.503906 C 227.28125 132.46875 226.757812 131.980469 226.683594 131.34375 L 222.839844 96.148438 L 219.34375 111.910156 C 219.210938 112.519531 218.671875 112.949219 218.054688 112.941406 L 208.664062 112.941406 L 186.753906 112.808594 L 184.230469 117.480469 C 183.976562 117.949219 183.46875 118.222656 182.941406 118.167969 C 182.414062 118.113281 181.96875 117.75 181.808594 117.246094 L 179.519531 109.800781 L 178.046875 112.175781 C 177.808594 112.574219 177.378906 112.816406 176.917969 112.808594 L 170.867188 112.808594 C 170.210938 112.808594 169.648438 112.328125 169.550781 111.675781 L 168.789062 106.078125 L 162.949219 131.5 C 162.804688 132.128906 162.234375 132.5625 161.59375 132.53125 C 160.953125 132.5 160.425781 132.007812 160.347656 131.371094 L 156.53125 96.148438 L 153.035156 111.910156 C 152.902344 112.519531 152.363281 112.949219 151.746094 112.941406 L 143.066406 112.941406 C 142.339844 112.941406 141.75 112.351562 141.75 111.621094 C 141.75 110.890625 142.339844 110.300781 143.066406 110.300781 L 150.691406 110.300781 L 155.691406 87.808594 C 155.832031 87.179688 156.40625 86.746094 157.046875 86.777344 C 157.6875 86.808594 158.214844 87.300781 158.292969 87.9375 L 162.160156 123.316406 L 167.867188 98.527344 C 168.015625 97.90625 168.574219 97.476562 169.210938 97.496094 C 169.84375 97.519531 170.367188 98 170.445312 98.632812 L 172.050781 110.167969 L 176.234375 110.167969 L 178.835938 105.945312 C 179.109375 105.507812 179.613281 105.269531 180.121094 105.335938 C 180.632812 105.40625 181.054688 105.765625 181.203125 106.261719 L 183.441406 113.46875 L 184.832031 110.855469 C 185.070312 110.433594 185.511719 110.171875 185.992188 110.167969 L 209.402344 110.300781 L 217.027344 110.300781 L 222.027344 87.808594 C 222.167969 87.179688 222.742188 86.746094 223.382812 86.777344 C 224.023438 86.808594 224.550781 87.300781 224.628906 87.9375 L 228.496094 123.316406 L 234.203125 98.527344 C 234.351562 97.90625 234.910156 97.476562 235.546875 97.496094 C 236.179688 97.519531 236.703125 98 236.78125 98.632812 L 238.386719 110.167969 L 242.570312 110.167969 L 245.171875 105.945312 C 245.445312 105.507812 245.949219 105.269531 246.457031 105.335938 C 246.96875 105.40625 247.390625 105.765625 247.539062 106.261719 L 249.777344 113.46875 L 251.167969 110.855469 C 251.40625 110.433594 251.847656 110.171875 252.328125 110.167969 L 258.167969 110.167969 C 258.890625 110.167969 259.480469 110.761719 259.480469 111.488281 C 259.480469 112.21875 258.890625 112.808594 258.167969 112.808594 L 253.0625 112.808594 L 250.539062 117.480469 C 250.285156 117.949219 249.777344 118.222656 249.25 118.167969 C 248.722656 118.113281 248.277344 117.75 248.117188 117.246094 L 245.832031 109.800781 L 244.355469 112.175781 C 244.117188 112.574219 243.6875 112.816406 243.226562 112.808594 L 237.175781 112.808594 C 236.519531 112.808594 235.960938 112.328125 235.863281 111.675781 L 235.097656 106.078125 L 229.257812 131.5 C 229.121094 132.089844 228.597656 132.503906 227.996094 132.503906 Z M 227.996094 132.503906 "/>
</g>
</g>
</svg>
