<svg xmlns="http://www.w3.org/2000/svg"  viewBox="0 0 128 128" width="64px" height="64px"><path fill="#e6e7e8" d="M114.575,60.576h-5.073V10.8c0-1.74-1.41-3.15-3.15-3.15H34.197c-1.74,0-3.15,1.41-3.15,3.15v5.25h-5.25 c-1.74,0-3.15,1.41-3.15,3.15V49.36h-5.073c-3.866,0-7,3.134-7,7v61.14c0,3.866,3.134,7,7,7h97c3.866,0,7-3.134,7-7V67.576 C121.575,63.71,118.441,60.576,114.575,60.576z"/><path fill="#d4fbff" d="M34.206,46.211c2.11,0,4.11,0.942,5.454,2.568l5.062,6.125c1.321,1.598,3.286,2.523,5.359,2.523h54.171V6.5 c0-1.105-0.895-2-2-2H29.897c-1.105,0-2,0.895-2,2v39.711H34.206z"/><path fill="#d4fbff" d="M34.206,46.211c2.11,0,4.11,0.942,5.454,2.568l5.062,6.125c1.321,1.598,3.286,2.523,5.359,2.523h45.771 V14.899c0-1.105-0.895-2-2-2H21.498c-1.105,0-2,0.895-2,2v31.311H34.206z"/><path fill="#fff" d="M93.853,12.899H21.498c-1.105,0-2,0.895-2,2v3c0-1.105,0.895-2,2-2h72.355c1.105,0,2,0.895,2,2v-3 C95.853,13.795,94.958,12.899,93.853,12.899z"/><path fill="#fa759e" d="M110.326,57.426H50.082c-2.073,0-4.038-0.925-5.359-2.523l-5.062-6.124c-1.344-1.626-3.344-2.568-5.454-2.568 H13.425c-3.314,0-6,2.686-6,6v61.039c0,3.314,2.686,6,6,6h96.901c3.314,0,6-2.686,6-6V63.426 C116.326,60.113,113.639,57.426,110.326,57.426z"/><g><path fill="#6dc9f7" d="M45.799,76.356h-9.037v-9.037c0-0.628-0.509-1.137-1.137-1.137h-8.925c-0.628,0-1.137,0.509-1.137,1.137 v9.037h-9.037c-0.628,0-1.137,0.509-1.137,1.137v8.925c0,0.628,0.509,1.137,1.137,1.137h9.037v9.037 c0,0.628,0.509,1.137,1.137,1.137h8.925c0.628,0,1.137-0.509,1.137-1.137v-9.037h9.037c0.628,0,1.137-0.509,1.137-1.137v-8.925 C46.936,76.865,46.427,76.356,45.799,76.356z"/><path fill="#3a2c60" d="M85.105,26.073H30.247c-0.552,0-1,0.448-1,1s0.448,1,1,1h54.858c0.553,0,1-0.448,1-1 S85.657,26.073,85.105,26.073z"/><path fill="#3a2c60" d="M85.105,36.572H30.247c-0.552,0-1,0.448-1,1s0.448,1,1,1h54.858c0.553,0,1-0.448,1-1 S85.657,36.572,85.105,36.572z"/><path fill="#3a2c60" d="M85.105,47.072h-33.86c-0.552,0-1,0.448-1,1s0.448,1,1,1h33.86c0.553,0,1-0.448,1-1 S85.657,47.072,85.105,47.072z"/><path fill="#3a2c60" d="M116.325,78.228c-0.553,0-1,0.448-1,1v11.625c0,0.552,0.447,1,1,1s1-0.448,1-1V79.228 C117.325,78.676,116.878,78.228,116.325,78.228z"/><path fill="#3a2c60" d="M110.325,56.426h-5.072V6.5c0-1.654-1.346-3-3-3H29.897c-1.654,0-3,1.346-3,3v5.399h-5.399 c-1.654,0-3,1.346-3,3v30.312h-5.073c-3.86,0-7,3.14-7,7v61.04c0,3.86,3.14,7,7,7h96.9c3.859,0,7-3.14,7-7V94.853 c0-0.552-0.447-1-1-1s-1,0.448-1,1v18.397c0,2.757-2.243,5-5,5h-96.9c-2.757,0-5-2.243-5-5v-61.04c0-2.757,2.243-5,5-5h20.781 c1.818,0,3.525,0.804,4.684,2.205l5.063,6.125c1.516,1.834,3.75,2.886,6.13,2.886h60.244c2.757,0,5,2.243,5,5v11.968 c0,0.552,0.447,1,1,1s1-0.448,1-1V63.426C117.325,59.566,114.185,56.426,110.325,56.426z M28.897,6.5c0-0.551,0.449-1,1-1 h72.355c0.552,0,1,0.449,1,1v49.926h-6.399V14.899c0-1.654-1.346-3-3-3H28.897V6.5z M45.494,54.266l-5.063-6.125 c-1.54-1.862-3.809-2.931-6.225-2.931H20.498V14.899c0-0.551,0.449-1,1-1h72.355c0.552,0,1,0.449,1,1v41.527H50.082 C48.3,56.426,46.628,55.639,45.494,54.266z"/><path fill="#3a2c60" d="M26.701,98.729h8.925c1.178,0,2.137-0.958,2.137-2.137v-8.037h8.037c1.178,0,2.137-0.958,2.137-2.137 v-8.925c0-1.178-0.958-2.137-2.137-2.137h-8.037v-8.037c0-1.178-0.958-2.137-2.137-2.137h-8.925 c-1.178,0-2.137,0.958-2.137,2.137v8.037h-8.037c-1.178,0-2.137,0.958-2.137,2.137v8.925c0,1.178,0.958,2.137,2.137,2.137h8.037 v8.037C24.564,97.77,25.522,98.729,26.701,98.729z M16.527,86.555c-0.075,0-0.137-0.062-0.137-0.137v-8.925 c0-0.075,0.062-0.137,0.137-0.137h9.037c0.552,0,1-0.448,1-1v-9.037c0-0.075,0.062-0.137,0.137-0.137h8.925 c0.075,0,0.137,0.062,0.137,0.137v9.037c0,0.552,0.448,1,1,1h9.037c0.075,0,0.137,0.062,0.137,0.137v8.925 c0,0.075-0.062,0.137-0.137,0.137h-9.037c-0.552,0-1,0.448-1,1v9.037c0,0.075-0.062,0.137-0.137,0.137h-8.925 c-0.075,0-0.137-0.062-0.137-0.137v-9.037c0-0.552-0.448-1-1-1H16.527z"/></g></svg>