<svg xmlns="http://www.w3.org/2000/svg"  viewBox="0 0 512 512" width="64px" height="64px"><circle cx="256" cy="200" r="16" fill="#57a4ff"/><path fill="#57a4ff" d="M290.75,245.25a16,16,0,1,1-22.63,0A16.018,16.018,0,0,1,290.75,245.25Z"/><path fill="#57a4ff" d="M290.75,132.12a16,16,0,1,1-22.63,0A16.018,16.018,0,0,1,290.75,132.12Z"/><circle cx="336" cy="280" r="16" fill="#57a4ff"/><circle cx="336" cy="120" r="16" fill="#57a4ff"/><path fill="#57a4ff" d="M358.63,177.37A32.012,32.012,0,1,1,336,168,31.9,31.9,0,0,1,358.63,177.37Z"/><path fill="#57a4ff" d="M403.88,245.25a16,16,0,1,1-22.63,0A16,16,0,0,1,403.88,245.25Z"/><path fill="#57a4ff" d="M381.25,154.75a16,16,0,1,1,22.63,0A16.018,16.018,0,0,1,381.25,154.75Z"/><circle cx="416" cy="200" r="16" fill="#57a4ff"/><path fill="#57a4ff" d="M336,56A144.009,144.009,0,0,0,216.96,281.04L192,360l77.99-32A144.008,144.008,0,1,0,336,56Zm0,264A120,120,0,1,1,456,200,120.005,120.005,0,0,1,336,320Z"/><path fill="#57a4ff" d="M160,344V456a40,40,0,0,1-40,40H104a40,40,0,0,1-40-40V344Z"/><circle cx="112" cy="304" r="8" fill="#57a4ff"/><circle cx="112" cy="200" r="8" fill="#57a4ff"/><circle cx="128" cy="280" r="8" fill="#57a4ff"/><circle cx="256" cy="200" r="16" fill="#57a4ff"/><path fill="#57a4ff" d="M290.75,245.25a16,16,0,1,1-22.63,0A16.018,16.018,0,0,1,290.75,245.25Z"/><path fill="#57a4ff" d="M290.75,132.12a16,16,0,1,1-22.63,0A16.018,16.018,0,0,1,290.75,132.12Z"/><circle cx="336" cy="280" r="16" fill="#57a4ff"/><circle cx="336" cy="120" r="16" fill="#57a4ff"/><path fill="#57a4ff" d="M358.63,177.37A32.012,32.012,0,1,1,336,168,31.9,31.9,0,0,1,358.63,177.37Z"/><path fill="#57a4ff" d="M403.88,245.25a16,16,0,1,1-22.63,0A16,16,0,0,1,403.88,245.25Z"/><path fill="#57a4ff" d="M381.25,154.75a16,16,0,1,1,22.63,0A16.018,16.018,0,0,1,381.25,154.75Z"/><circle cx="416" cy="200" r="16" fill="#57a4ff"/><path fill="#57a4ff" d="M368,200a31.991,31.991,0,1,1-9.37-22.63A31.9,31.9,0,0,1,368,200Z"/><circle cx="336" cy="120" r="16" fill="#57a4ff"/><circle cx="336" cy="280" r="16" fill="#57a4ff"/><circle cx="416" cy="200" r="16" fill="#57a4ff"/><circle cx="256" cy="200" r="16" fill="#57a4ff"/><path fill="#57a4ff" d="M403.88,154.75a16,16,0,1,1,0-22.63A16.018,16.018,0,0,1,403.88,154.75Z"/><path fill="#57a4ff" d="M290.75,267.88a16,16,0,1,1,0-22.63A16,16,0,0,1,290.75,267.88Z"/><path fill="#57a4ff" d="M403.88,267.88a16,16,0,1,1,0-22.63A16,16,0,0,1,403.88,267.88Z"/><path fill="#57a4ff" d="M290.75,154.75a16,16,0,1,1,0-22.63A16.018,16.018,0,0,1,290.75,154.75Z"/><line x1="381.255" x2="358.627" y1="154.745" y2="177.373" fill="none"/><line x1="313.373" x2="290.745" y1="222.627" y2="245.255" fill="none"/><line x1="358.627" x2="381.255" y1="222.627" y2="245.255" fill="none"/><line x1="313.373" x2="290.745" y1="177.373" y2="154.745" fill="none"/><circle cx="344" cy="192" r="8" fill="#57a4ff"/><line x1="207.029" x2="240.971" y1="424.971" y2="391.029" fill="none"/><line x1="207.029" x2="240.971" y1="391.029" y2="424.971" fill="none"/><circle cx="128" cy="280" r="8" fill="#57a4ff"/><circle cx="104" cy="456" r="8" fill="#57a4ff"/><circle cx="112" cy="200" r="8" fill="#57a4ff"/><circle cx="112" cy="304" r="8" fill="#57a4ff"/><g><path fill="#004fac" d="M184,8H40a8,8,0,0,0-8,8V48a8,8,0,0,0,8,8H56V456a48.051,48.051,0,0,0,48,48h16a48.051,48.051,0,0,0,48-48V56h16a8,8,0,0,0,8-8V16A8,8,0,0,0,184,8ZM152,456a32.036,32.036,0,0,1-32,32H104a32.036,32.036,0,0,1-32-32V352h80Zm0-120H72V56h80ZM176,40H48V24H176Z"/><path fill="#004fac" d="M336,72A128,128,0,1,0,464,200,128.145,128.145,0,0,0,336,72Zm0,240A112,112,0,1,1,448,200,112.127,112.127,0,0,1,336,312Z"/><path fill="#004fac" d="M375.2,208h18.181a24,24,0,1,0,0-16H375.2a39.764,39.764,0,0,0-5.839-14.042L382.218,165.1a24.032,24.032,0,0,0,27.32-4.694h0a24,24,0,1,0-38.608-6.647l-12.889,12.889A39.764,39.764,0,0,0,344,160.805V142.624a24,24,0,1,0-16,0v18.181a39.764,39.764,0,0,0-14.042,5.839l-12.889-12.889a23.985,23.985,0,1,0-38.608,6.647h0a24.032,24.032,0,0,0,27.32,4.694l12.862,12.862A39.764,39.764,0,0,0,296.805,192H278.624a24,24,0,1,0,0,16h18.181a39.764,39.764,0,0,0,5.839,14.042L289.782,234.9a24.054,24.054,0,1,0,11.287,11.341l12.889-12.889A39.764,39.764,0,0,0,328,239.2v18.181a24,24,0,1,0,16,0V239.2a39.764,39.764,0,0,0,14.042-5.839l12.889,12.889A23.874,23.874,0,1,0,382.218,234.9l-12.862-12.862A39.764,39.764,0,0,0,375.2,208ZM336,224a24,24,0,1,1,24-24A24.028,24.028,0,0,1,336,224Zm80-32a8,8,0,1,1-8,8A8.009,8.009,0,0,1,416,192Zm-29.088-54.226a8,8,0,0,1,11.314,11.314h0a8,8,0,1,1-11.313-11.314ZM336,112a8,8,0,1,1-8,8A8.009,8.009,0,0,1,336,112Zm-62.225,37.088h0a8,8,0,1,1,5.658,2.344A7.95,7.95,0,0,1,273.774,149.088ZM256,208a8,8,0,1,1,8-8A8.009,8.009,0,0,1,256,208Zm29.088,54.226a8,8,0,1,1,0-11.314A7.947,7.947,0,0,1,285.088,262.226ZM336,288a8,8,0,1,1,8-8A8.009,8.009,0,0,1,336,288Zm62.226-37.088a8,8,0,1,1-5.658-2.344A7.95,7.95,0,0,1,398.226,250.912Z"/><circle cx="344" cy="192" r="8" fill="#004fac"/><path fill="#004fac" d="M336,48c-83.81,0-152,68.19-152,152a151.154,151.154,0,0,0,24.18,82.27l-23.81,75.32a8,8,0,0,0,10.67,9.81l74.62-30.62A152.321,152.321,0,0,0,336,352c83.81,0,152-68.19,152-152S419.81,48,336,48Zm0,288a134.34,134.34,0,0,1-62.33-15.1,7.981,7.981,0,0,0-6.72-.3l-62.17,25.51,19.81-62.66a8.014,8.014,0,0,0-1.02-6.92A135.239,135.239,0,0,1,200,200c0-74.99,61.01-136,136-136s136,61.01,136,136S410.99,336,336,336Z"/><path fill="#004fac" d="M256,400H243.314l3.314-3.314a8,8,0,0,0-11.315-11.313L232,388.686V376a8,8,0,0,0-16,0v12.686l-3.313-3.313a8,8,0,0,0-11.315,11.313L204.686,400H192a8,8,0,0,0,0,16h12.686l-3.314,3.314a8,8,0,1,0,11.315,11.313L216,427.314V440a8,8,0,0,0,16,0V427.314l3.313,3.313a8,8,0,0,0,11.315-11.313L243.314,416H256a8,8,0,0,0,0-16Z"/><circle cx="128" cy="280" r="8" fill="#004fac"/><circle cx="104" cy="456" r="8" fill="#004fac"/><circle cx="112" cy="200" r="8" fill="#004fac"/><circle cx="112" cy="304" r="8" fill="#004fac"/></g></svg>