<svg xmlns="http://www.w3.org/2000/svg"  viewBox="0 0 128 128" width="64px" height="64px"><path fill="#e6e7e8" d="M110.959,101.621c-2.111-3.874-6.98-5.307-10.853-3.197l-10.039,5.47v-7.633c0-4.411-3.589-8-8-8V59.657 c0-2.289-0.8-4.525-2.252-6.297L64.724,34.969v-6.532h1.563c2.109,0,3.826-1.717,3.826-3.826V13.397 c0-2.109-1.717-3.825-3.826-3.825H35.847c-2.109,0-3.826,1.716-3.826,3.825V24.61c0,2.109,1.717,3.826,3.826,3.826h1.554v6.543 L22.319,53.361c-1.452,1.771-2.252,4.007-2.252,6.296v52.844c0,5.474,4.453,9.927,9.927,9.927H72.14c1.93,0,3.728-0.563,5.254-1.52 c1.316,0.952,2.928,1.52,4.673,1.52c1.186,0,2.308-0.266,3.321-0.731c0.848,0.291,1.724,0.445,2.6,0.445 c1.317,0,2.629-0.327,3.821-0.977l15.952-8.691C111.636,110.363,113.069,105.495,110.959,101.621z"/><path fill="#6dc9f7" d="M59.744,31.351h-0.019v-7.915H34.401v7.915h-0.011L19.093,49.995c-1.31,1.596-2.026,3.597-2.026,5.662 v52.844c0,4.93,3.996,8.926,8.926,8.926h42.147c4.93,0,8.926-3.996,8.926-8.926V55.658c0-2.065-0.716-4.066-2.026-5.662 L59.744,31.351z"/><path fill="#0089ef" d="M62.287,6.572h-30.44c-1.56,0-2.825,1.265-2.825,2.825v11.213c0,1.56,1.265,2.825,2.825,2.825h30.44 c1.56,0,2.825-1.265,2.825-2.825V9.397C65.113,7.837,63.848,6.572,62.287,6.572z"/><rect width="60" height="40.241" x="17.067" y="59.682" fill="#d4fbff"/><polygon fill="#fff" points="60.922,74.935 50.812,74.935 50.812,64.825 41.076,64.825 41.076,74.935 30.966,74.935 30.966,84.671 41.076,84.671 41.076,94.781 50.812,94.781 50.812,84.671 60.922,84.671"/><polygon fill="#fa759e" points="63.168,74.935 53.058,74.935 53.058,64.825 43.323,64.825 43.323,74.935 33.213,74.935 33.213,84.671 43.323,84.671 43.323,94.781 53.058,94.781 53.058,84.671 63.168,84.671"/><g><path fill="#0089ef" d="M106.081,98.099c-1.85-3.395-6.101-4.647-9.496-2.798l-11.518,6.275v8.851c0,2.686-1.515,5.016-3.736,6.19 c1.88,0.768,4.076,0.717,5.999-0.331l15.952-8.692C106.678,105.746,107.93,101.494,106.081,98.099z"/><path fill="#d4fbff" d="M88.608,99.647l-3.541,1.93v8.851c0,2.686-1.515,5.016-3.736,6.19c1.88,0.768,4.076,0.717,5.999-0.331 l7.976-4.346L88.608,99.647z"/></g><g><path fill="#0089ef" d="M78.067,85.261c-3.866,0-7,3.134-7,7v18.167c0,3.866,3.134,7,7,7c3.866,0,7-3.134,7-7V92.261 C85.067,88.395,81.933,85.261,78.067,85.261z"/><path fill="#d4fbff" d="M71.067,101.344v9.083c0,3.866,3.134,7,7,7c3.866,0,7-3.134,7-7v-9.083H71.067z"/></g><g><path fill="#3a2c60" d="M50.811,63.825h-9.735c-0.553,0-1,0.447-1,1v9.11h-9.11c-0.553,0-1,0.447-1,1v9.735c0,0.553,0.447,1,1,1 h9.11v9.11c0,0.553,0.447,1,1,1h9.735c0.553,0,1-0.447,1-1v-9.11h9.11c0.553,0,1-0.447,1-1v-9.735c0-0.553-0.447-1-1-1h-9.11 v-9.11C51.811,64.272,51.364,63.825,50.811,63.825z M59.922,75.936v7.735h-9.11c-0.553,0-1,0.447-1,1v9.11h-7.735v-9.11 c0-0.553-0.447-1-1-1h-9.11v-7.735h9.11c0.553,0,1-0.447,1-1v-9.11h7.735v9.11c0,0.553,0.447,1,1,1H59.922z"/><path fill="#3a2c60" d="M25.538,43.14c0.289,0,0.576-0.125,0.774-0.365l4.047-4.932c0.35-0.428,0.288-1.058-0.139-1.408 c-0.428-0.351-1.058-0.287-1.408,0.139l-4.047,4.932c-0.35,0.428-0.288,1.058,0.139,1.408 C25.091,43.065,25.315,43.14,25.538,43.14z"/><path fill="#3a2c60" d="M106.959,97.621c-1.022-1.876-2.714-3.242-4.764-3.846c-2.051-0.604-4.214-0.375-6.089,0.648l-10.039,5.47 v-7.633c0-4.411-3.589-8-8-8V55.657c0-2.289-0.8-4.525-2.252-6.297L60.725,30.97v-6.533h1.563c2.109,0,3.825-1.717,3.825-3.826 V9.397c0-2.109-1.716-3.825-3.825-3.825H31.848c-2.109,0-3.826,1.716-3.826,3.825V20.61c0,2.109,1.717,3.826,3.826,3.826h1.554 v6.544l-2.139,2.605c-0.35,0.428-0.288,1.058,0.139,1.408c0.429,0.351,1.057,0.287,1.408-0.139l2.276-2.775 c0.194-0.183,0.315-0.441,0.315-0.729v-6.915h23.323v6.915c0,0.284,0.124,0.54,0.318,0.723l15.226,18.555 c1.16,1.414,1.799,3.2,1.799,5.028v28.867c-3.445,0.892-6,4.017-6,7.737v18.167c0,1.913,0.676,3.669,1.8,5.047 c-1.113,0.6-2.377,0.953-3.727,0.953H25.994c-4.371,0-7.927-3.556-7.927-7.927V55.657c0-1.828,0.639-3.614,1.799-5.027 l3.954-4.819c0.35-0.428,0.288-1.058-0.139-1.408c-0.428-0.351-1.057-0.286-1.408,0.139l-3.954,4.82 c-1.452,1.771-2.252,4.007-2.252,6.296v52.844c0,5.474,4.453,9.927,9.927,9.927h42.146c1.93,0,3.726-0.564,5.25-1.523 c1.317,0.954,2.93,1.523,4.676,1.523c1.185,0,2.307-0.266,3.32-0.731c0.848,0.292,1.725,0.446,2.601,0.446 c1.318,0,2.63-0.328,3.821-0.978l15.952-8.691C107.636,106.363,109.069,101.495,106.959,97.621z M34.401,22.436h-2.554 c-1.007,0-1.826-0.819-1.826-1.826V9.397c0-1.007,0.819-1.825,1.826-1.825h30.439c1.007,0,1.825,0.818,1.825,1.825V20.61 c0,1.007-0.818,1.826-1.825,1.826h-2.563H34.401z M72.067,110.428V92.261c0-3.309,2.691-6,6-6s6,2.691,6,6v18.167 c0,3.309-2.691,6-6,6S72.067,113.736,72.067,110.428z M105.689,103.145c-0.453,1.537-1.478,2.807-2.885,3.573l-15.952,8.691 c-0.988,0.538-2.082,0.775-3.178,0.725c1.104-1.083,1.867-2.466,2.2-3.982c0.009-0.039,0.022-0.076,0.03-0.115 c0.032-0.158,0.051-0.32,0.074-0.48c0.015-0.105,0.037-0.208,0.048-0.315c0.027-0.268,0.041-0.54,0.041-0.814v-8.257 l10.996-5.991c1.407-0.766,3.028-0.938,4.566-0.486c1.537,0.453,2.807,1.478,3.573,2.885S106.143,101.606,105.689,103.145z"/><path fill="#3a2c60" d="M35.067,9.678c-0.553,0-1,0.447-1,1v8.875c0,0.553,0.447,1,1,1s1-0.447,1-1v-8.875 C36.067,10.125,35.62,9.678,35.067,9.678z"/><path fill="#3a2c60" d="M39.067,9.678c-0.553,0-1,0.447-1,1v8.875c0,0.553,0.447,1,1,1s1-0.447,1-1v-8.875 C40.067,10.125,39.62,9.678,39.067,9.678z"/><path fill="#3a2c60" d="M43.067,9.678c-0.553,0-1,0.447-1,1v8.875c0,0.553,0.447,1,1,1s1-0.447,1-1v-8.875 C44.067,10.125,43.62,9.678,43.067,9.678z"/><path fill="#3a2c60" d="M47.067,9.678c-0.553,0-1,0.447-1,1v8.875c0,0.553,0.447,1,1,1s1-0.447,1-1v-8.875 C48.067,10.125,47.62,9.678,47.067,9.678z"/><path fill="#3a2c60" d="M51.067,9.678c-0.553,0-1,0.447-1,1v8.875c0,0.553,0.447,1,1,1s1-0.447,1-1v-8.875 C52.067,10.125,51.62,9.678,51.067,9.678z"/><path fill="#3a2c60" d="M55.067,9.678c-0.553,0-1,0.447-1,1v8.875c0,0.553,0.447,1,1,1s1-0.447,1-1v-8.875 C56.067,10.125,55.62,9.678,55.067,9.678z"/><path fill="#3a2c60" d="M60.067,19.553v-8.875c0-0.553-0.447-1-1-1s-1,0.447-1,1v8.875c0,0.553,0.447,1,1,1 S60.067,20.105,60.067,19.553z"/></g></svg>