<svg xmlns="http://www.w3.org/2000/svg"  viewBox="0 0 64 64" width="50px" height="50px"><path fill="#73dcff" d="M32,8.59A11.26,11.26,0,1,0,43.26,19.86,11.28,11.28,0,0,0,32,8.59Z"/><path fill="#fff" d="M40.92,13a11.11,11.11,0,0,0-5.59-1.49,11.26,11.26,0,0,0-8.94,18.11A11.26,11.26,0,1,1,40.92,13Z"/><path fill="#73dcff" d="M32.94,28.42H31.06a19.42,19.42,0,0,0-19.4,19.4v6.09a1.5,1.5,0,0,0,1.5,1.5H50.83a1.5,1.5,0,0,0,1.5-1.5V47.81A19.42,19.42,0,0,0,32.94,28.42Z"/><path fill="#fff" d="M40.46,29.94a19.23,19.23,0,0,0-3.24-.27H35.35A19.42,19.42,0,0,0,16,49.06v6.1a1,1,0,0,0,0,.25H13.17a1.5,1.5,0,0,1-1.5-1.5v-6.1A19.41,19.41,0,0,1,31.06,28.42h1.88A19.28,19.28,0,0,1,40.46,29.94Z"/><path fill="#3e618b" d="M38.31,29.19a11.26,11.26,0,1,0-12.61,0,19.42,19.42,0,0,0-14,18.62v6.09a1.5,1.5,0,0,0,1.5,1.5H50.83a1.5,1.5,0,0,0,1.5-1.5V47.81A19.42,19.42,0,0,0,38.31,29.19ZM23.74,19.86A8.26,8.26,0,1,1,32,28.12,8.27,8.27,0,0,1,23.74,19.86Zm25.6,32.55H14.67V47.81a16.42,16.42,0,0,1,16.4-16.4h1.87a16.42,16.42,0,0,1,16.4,16.4Z"/></svg>