<svg xmlns="http://www.w3.org/2000/svg"  viewBox="0 0 512 512" width="64px" height="64px"><g data-name="&lt;Group&gt;"><g data-name="&lt;Group&gt;"><g data-name="&lt;Group&gt;"><path fill="#00acea" d="M361.58,249.17A122.307,122.307,0,1,1,310.5,260.3,122.412,122.412,0,0,1,361.58,249.17ZM416.49,399.6a55.663,55.663,0,0,0-16.29-39.43,52.7,52.7,0,0,0-4.07-3.69V327.52a35.43,35.43,0,1,0-70.86,0v27.69l.62.78a54.339,54.339,0,0,0-4.61,4.11,55.8,55.8,0,1,0,95.21,39.5Z" data-name="&lt;Compound Path&gt;"/></g><g data-name="&lt;Group&gt;"><path fill="#fedb41" d="M396.13,356.48a52.7,52.7,0,0,1,4.07,3.69,55.8,55.8,0,1,1-78.92-.07,54.339,54.339,0,0,1,4.61-4.11,55.853,55.853,0,0,1,70.24.49Z" data-name="&lt;Path&gt;"/></g><g data-name="&lt;Group&gt;"><path fill="#00acea" d="M396.13,327.52v28.96a55.853,55.853,0,0,0-70.24-.49l-.62-.78V327.52a35.43,35.43,0,0,1,70.86,0Z" data-name="&lt;Path&gt;"/></g><g data-name="&lt;Group&gt;"><path fill="#00efd1" d="M310.49,260.29l.01.01a122.653,122.653,0,0,0-69.66,131.57H28V286.47a69.338,69.338,0,0,1,69.3-69.34,92.432,92.432,0,0,0,149,0A69.354,69.354,0,0,1,310.49,260.29Z" data-name="&lt;Path&gt;"/></g><g data-name="&lt;Group&gt;"><path fill="#00efd1" d="M171.8,18A77.035,77.035,0,1,1,94.77,95.04,77.037,77.037,0,0,1,171.8,18Z" data-name="&lt;Path&gt;"/></g></g><g data-name="&lt;Group&gt;"><path fill="#083863" d="M171.8,10a85.035,85.035,0,1,0,85.04,85.04A85.131,85.131,0,0,0,171.8,10Zm0,154.07a69.035,69.035,0,1,1,69.04-69.03A69.108,69.108,0,0,1,171.8,164.07Z" data-name="&lt;Compound Path&gt;"/><path fill="#083863" d="M361.58,241.17a129.457,129.457,0,0,0-47.125,8.717A77.063,77.063,0,0,0,246.306,209h0a8.062,8.062,0,0,0-6.452,3.333,84.354,84.354,0,0,1-136.1-.022A8.046,8.046,0,0,0,97.3,209h0C54.675,209,20,243.847,20,286.47v105.4A8.112,8.112,0,0,0,28,400H234.255a132.142,132.142,0,0,0,42.62,70.812,130.4,130.4,0,0,0,84.7,31.22C433.494,502.032,492,443.51,492,371.6S433.494,241.17,361.58,241.17ZM36,286.47a61.426,61.426,0,0,1,57.451-61.219,100.435,100.435,0,0,0,156.7,0A61.077,61.077,0,0,1,299.9,256.67,130.978,130.978,0,0,0,231.17,371.645c0,4.105.213,8.355.594,12.355H36ZM361.58,486a114.451,114.451,0,0,1-112.849-95.445A114.655,114.655,0,0,1,313.838,267.57h0A114.43,114.43,0,1,1,361.58,486Z" data-name="&lt;Compound Path&gt;"/><path fill="#083863" d="M361,391.8a8,8,0,0,0-8,8v20.18a8,8,0,0,0,16,0V399.8A8,8,0,0,0,361,391.8Z" data-name="&lt;Path&gt;"/><path fill="#083863" d="M404,352.864V327.52a43.346,43.346,0,0,0-43.467-43.43A43.568,43.568,0,0,0,317,327.52v25.369c0,.512-.977,1.02-1.5,1.546a63.879,63.879,0,1,0,90.312.1A6.558,6.558,0,0,0,404,352.864ZM360.565,300.09A27.462,27.462,0,0,1,388,327.52v14.491a62.655,62.655,0,0,0-27.5-6.2,65.991,65.991,0,0,0-27.5,6.215v-14.5A27.577,27.577,0,0,1,360.565,300.09Zm33.97,133.282a47.8,47.8,0,1,1-67.6-67.615,46.5,46.5,0,0,1,3.945-3.517A47.292,47.292,0,0,1,360.7,351.81a47.846,47.846,0,0,1,30.346,10.847l.022.018a45.275,45.275,0,0,1,3.467,3.143,47.855,47.855,0,0,1,0,67.554Z" data-name="&lt;Compound Path&gt;"/></g></g></svg>