<?xml version="1.0" encoding="UTF-8"?>
<svg xmlns="http://www.w3.org/2000/svg" xmlns:xlink="http://www.w3.org/1999/xlink" width="500px" height="500px" viewBox="0 0 500 500" version="1.1">
<defs>
<linearGradient id="linear0" gradientUnits="userSpaceOnUse" x1="1027.1329" y1="1767.8253" x2="1170.205" y2="1767.8253" gradientTransform="matrix(0.166667,0,0,0.166667,0,0)">
<stop offset="0.0247" style="stop-color:rgb(58.039216%,85.882353%,93.72549%);stop-opacity:1;"/>
<stop offset="0.5485" style="stop-color:rgb(44.705882%,74.509804%,87.843137%);stop-opacity:1;"/>
</linearGradient>
<linearGradient id="linear1" gradientUnits="userSpaceOnUse" x1="1020.9681" y1="1869.2173" x2="1181.1079" y2="1869.2173" gradientTransform="matrix(0.166667,0,0,0.166667,0,0)">
<stop offset="0.0247" style="stop-color:rgb(58.039216%,85.882353%,93.72549%);stop-opacity:1;"/>
<stop offset="0.5485" style="stop-color:rgb(44.705882%,74.509804%,87.843137%);stop-opacity:1;"/>
</linearGradient>
<linearGradient id="linear2" gradientUnits="userSpaceOnUse" x1="1007.439" y1="2010.803" x2="1183.8064" y2="2010.803" gradientTransform="matrix(0.166667,0,0,0.166667,0,0)">
<stop offset="0.0247" style="stop-color:rgb(58.039216%,85.882353%,93.72549%);stop-opacity:1;"/>
<stop offset="0.5485" style="stop-color:rgb(44.705882%,74.509804%,87.843137%);stop-opacity:1;"/>
</linearGradient>
<linearGradient id="linear3" gradientUnits="userSpaceOnUse" x1="994.6309" y1="2117.7759" x2="1181.2612" y2="2117.7759" gradientTransform="matrix(0.166667,0,0,0.166667,0,0)">
<stop offset="0.0247" style="stop-color:rgb(58.039216%,85.882353%,93.72549%);stop-opacity:1;"/>
<stop offset="0.2957" style="stop-color:rgb(44.705882%,74.509804%,87.843137%);stop-opacity:1;"/>
</linearGradient>
<linearGradient id="linear4" gradientUnits="userSpaceOnUse" x1="975.4867" y1="2198.5247" x2="1175.0177" y2="2198.5247" gradientTransform="matrix(0.166667,0,0,0.166667,0,0)">
<stop offset="0.0368" style="stop-color:rgb(58.039216%,85.882353%,93.72549%);stop-opacity:1;"/>
<stop offset="0.3515" style="stop-color:rgb(44.705882%,74.509804%,87.843137%);stop-opacity:1;"/>
</linearGradient>
<linearGradient id="linear5" gradientUnits="userSpaceOnUse" x1="953.3942" y1="2271.4277" x2="1166.1824" y2="2271.4277" gradientTransform="matrix(0.166667,0,0,0.166667,0,0)">
<stop offset="0.2957" style="stop-color:rgb(44.705882%,74.509804%,87.843137%);stop-opacity:1;"/>
<stop offset="1" style="stop-color:rgb(58.039216%,85.882353%,93.72549%);stop-opacity:1;"/>
</linearGradient>
<linearGradient id="linear6" gradientUnits="userSpaceOnUse" x1="918.7723" y1="2348.3982" x2="1150.7465" y2="2348.3982" gradientTransform="matrix(0.166667,0,0,0.166667,0,0)">
<stop offset="0.2957" style="stop-color:rgb(44.705882%,74.509804%,87.843137%);stop-opacity:1;"/>
<stop offset="0.768" style="stop-color:rgb(58.039216%,85.882353%,93.72549%);stop-opacity:1;"/>
</linearGradient>
<linearGradient id="linear7" gradientUnits="userSpaceOnUse" x1="876.5" y1="2487.4182" x2="1134.501" y2="2487.4182" gradientTransform="matrix(0.166667,0,0,0.166667,0,0)">
<stop offset="0.4542" style="stop-color:rgb(44.705882%,74.509804%,87.843137%);stop-opacity:1;"/>
<stop offset="0.768" style="stop-color:rgb(58.039216%,85.882353%,93.72549%);stop-opacity:1;"/>
</linearGradient>
<linearGradient id="linear8" gradientUnits="userSpaceOnUse" x1="689.9982" y1="1816.2505" x2="830.7809" y2="1660.7548" gradientTransform="matrix(0.166667,0,0,0.166667,0,0)">
<stop offset="0.0247" style="stop-color:rgb(58.039216%,85.882353%,93.72549%);stop-opacity:1;"/>
<stop offset="0.5485" style="stop-color:rgb(44.705882%,74.509804%,87.843137%);stop-opacity:1;"/>
</linearGradient>
<linearGradient id="linear9" gradientUnits="userSpaceOnUse" x1="808.0978" y1="1969.6937" x2="735.3969" y2="1792.053" gradientTransform="matrix(0.166667,0,0,0.166667,0,0)">
<stop offset="0.2672" style="stop-color:rgb(58.039216%,85.882353%,93.72549%);stop-opacity:1;"/>
<stop offset="0.7007" style="stop-color:rgb(44.705882%,74.509804%,87.843137%);stop-opacity:1;"/>
</linearGradient>
<linearGradient id="linear10" gradientUnits="userSpaceOnUse" x1="844.1218" y1="2067.6704" x2="675.205" y2="1937.877" gradientTransform="matrix(0.166667,0,0,0.166667,0,0)">
<stop offset="0.2672" style="stop-color:rgb(58.039216%,85.882353%,93.72549%);stop-opacity:1;"/>
<stop offset="0.7007" style="stop-color:rgb(44.705882%,74.509804%,87.843137%);stop-opacity:1;"/>
</linearGradient>
<linearGradient id="linear11" gradientUnits="userSpaceOnUse" x1="918.7733" y1="2111.4399" x2="701.9642" y2="2153.3674" gradientTransform="matrix(0.166667,0,0,0.166667,0,0)">
<stop offset="0.5533" style="stop-color:rgb(58.039216%,85.882353%,93.72549%);stop-opacity:1;"/>
<stop offset="1" style="stop-color:rgb(44.705882%,74.509804%,87.843137%);stop-opacity:1;"/>
</linearGradient>
<linearGradient id="linear12" gradientUnits="userSpaceOnUse" x1="896.1754" y1="2213.7329" x2="681.4435" y2="2289.9119" gradientTransform="matrix(0.166667,0,0,0.166667,0,0)">
<stop offset="0.5533" style="stop-color:rgb(58.039216%,85.882353%,93.72549%);stop-opacity:1;"/>
<stop offset="1" style="stop-color:rgb(44.705882%,74.509804%,87.843137%);stop-opacity:1;"/>
</linearGradient>
<linearGradient id="linear13" gradientUnits="userSpaceOnUse" x1="914.746" y1="2338.0657" x2="685.7273" y2="2418.907" gradientTransform="matrix(0.166667,0,0,0.166667,0,0)">
<stop offset="0.5533" style="stop-color:rgb(58.039216%,85.882353%,93.72549%);stop-opacity:1;"/>
<stop offset="1" style="stop-color:rgb(44.705882%,74.509804%,87.843137%);stop-opacity:1;"/>
</linearGradient>
<linearGradient id="linear14" gradientUnits="userSpaceOnUse" x1="717.3347" y1="2507.9619" x2="962.4918" y2="2507.9619" gradientTransform="matrix(0.166667,0,0,0.166667,0,0)">
<stop offset="0.208" style="stop-color:rgb(44.705882%,74.509804%,87.843137%);stop-opacity:1;"/>
<stop offset="0.9004" style="stop-color:rgb(58.039216%,85.882353%,93.72549%);stop-opacity:1;"/>
</linearGradient>
<linearGradient id="linear15" gradientUnits="userSpaceOnUse" x1="734.8057" y1="1648.8804" x2="775.5048" y2="1573.91" gradientTransform="matrix(0.166667,0,0,0.166667,0,0)">
<stop offset="0.1402" style="stop-color:rgb(58.039216%,85.882353%,93.72549%);stop-opacity:1;"/>
<stop offset="0.7007" style="stop-color:rgb(44.705882%,74.509804%,87.843137%);stop-opacity:1;"/>
</linearGradient>
<linearGradient id="linear16" gradientUnits="userSpaceOnUse" x1="855.9465" y1="1732.9443" x2="864.014" y2="1665.9362" gradientTransform="matrix(0.166667,0,0,0.166667,0,0)">
<stop offset="0.1402" style="stop-color:rgb(58.039216%,85.882353%,93.72549%);stop-opacity:1;"/>
<stop offset="0.7007" style="stop-color:rgb(44.705882%,74.509804%,87.843137%);stop-opacity:1;"/>
</linearGradient>
<linearGradient id="linear17" gradientUnits="userSpaceOnUse" x1="946.7199" y1="1753.0217" x2="944.7023" y2="1684.432" gradientTransform="matrix(0.166667,0,0,0.166667,0,0)">
<stop offset="0.1402" style="stop-color:rgb(58.039216%,85.882353%,93.72549%);stop-opacity:1;"/>
<stop offset="0.7007" style="stop-color:rgb(44.705882%,74.509804%,87.843137%);stop-opacity:1;"/>
</linearGradient>
<linearGradient id="linear18" gradientUnits="userSpaceOnUse" x1="1103.7787" y1="1743.9049" x2="1048.072" y2="1655.8088" gradientTransform="matrix(0.166667,0,0,0.166667,0,0)">
<stop offset="0.1402" style="stop-color:rgb(58.039216%,85.882353%,93.72549%);stop-opacity:1;"/>
<stop offset="0.7007" style="stop-color:rgb(44.705882%,74.509804%,87.843137%);stop-opacity:1;"/>
</linearGradient>
<linearGradient id="linear19" gradientUnits="userSpaceOnUse" x1="688.0571" y1="1506.8108" x2="803.4844" y2="1402.4199" gradientTransform="matrix(0.166667,0,0,0.166667,0,0)">
<stop offset="0.4246" style="stop-color:rgb(58.039216%,85.882353%,93.72549%);stop-opacity:1;"/>
<stop offset="0.7007" style="stop-color:rgb(44.705882%,74.509804%,87.843137%);stop-opacity:1;"/>
</linearGradient>
<linearGradient id="linear20" gradientUnits="userSpaceOnUse" x1="818.3798" y1="1563.5326" x2="849.809" y2="1513.879" gradientTransform="matrix(0.166667,0,0,0.166667,0,0)">
<stop offset="0" style="stop-color:rgb(58.039216%,85.882353%,93.72549%);stop-opacity:1;"/>
<stop offset="0.7007" style="stop-color:rgb(44.705882%,74.509804%,87.843137%);stop-opacity:1;"/>
</linearGradient>
<linearGradient id="linear21" gradientUnits="userSpaceOnUse" x1="922.5289" y1="1587.8132" x2="910.4772" y2="1523.7554" gradientTransform="matrix(0.166667,0,0,0.166667,0,0)">
<stop offset="0" style="stop-color:rgb(58.039216%,85.882353%,93.72549%);stop-opacity:1;"/>
<stop offset="0.7007" style="stop-color:rgb(44.705882%,74.509804%,87.843137%);stop-opacity:1;"/>
</linearGradient>
<linearGradient id="linear22" gradientUnits="userSpaceOnUse" x1="1026.8066" y1="1590.8241" x2="986.1602" y2="1485.8076" gradientTransform="matrix(0.166667,0,0,0.166667,0,0)">
<stop offset="0" style="stop-color:rgb(58.039216%,85.882353%,93.72549%);stop-opacity:1;"/>
<stop offset="0.7007" style="stop-color:rgb(44.705882%,74.509804%,87.843137%);stop-opacity:1;"/>
</linearGradient>
<linearGradient id="linear23" gradientUnits="userSpaceOnUse" x1="1151.7633" y1="1519.0331" x2="971.8681" y2="1455.2628" gradientTransform="matrix(0.166667,0,0,0.166667,0,0)">
<stop offset="0" style="stop-color:rgb(58.039216%,85.882353%,93.72549%);stop-opacity:1;"/>
<stop offset="0.4403" style="stop-color:rgb(44.705882%,74.509804%,87.843137%);stop-opacity:1;"/>
</linearGradient>
<linearGradient id="linear24" gradientUnits="userSpaceOnUse" x1="833" y1="1229.5" x2="944" y2="1229.5" gradientTransform="matrix(0.166667,0,0,0.166667,0,0)">
<stop offset="0.3823" style="stop-color:rgb(97.254902%,58.431373%,47.058824%);stop-opacity:1;"/>
<stop offset="0.9941" style="stop-color:rgb(99.215686%,72.156863%,60%);stop-opacity:1;"/>
</linearGradient>
<linearGradient id="linear25" gradientUnits="userSpaceOnUse" x1="1056.9771" y1="1235.6152" x2="1130.797" y2="1235.6152" gradientTransform="matrix(0.166667,0,0,0.166667,0,0)">
<stop offset="0.1972" style="stop-color:rgb(99.215686%,72.156863%,60%);stop-opacity:1;"/>
<stop offset="0.724" style="stop-color:rgb(97.254902%,58.431373%,47.058824%);stop-opacity:1;"/>
</linearGradient>
<filter id="alpha" filterUnits="objectBoundingBox" x="0%" y="0%" width="100%" height="100%">
  <feColorMatrix type="matrix" in="SourceGraphic" values="0 0 0 0 1 0 0 0 0 1 0 0 0 0 1 0 0 0 1 0"/>
</filter>
<mask id="mask0">
  <g filter="url(#alpha)">
<rect x="0" y="0" width="500" height="500" style="fill:rgb(0%,0%,0%);fill-opacity:0.301961;stroke:none;"/>
  </g>
</mask>
<linearGradient id="linear26" gradientUnits="userSpaceOnUse" x1="2033.5" y1="661.5854" x2="2233.5" y2="661.5854" gradientTransform="matrix(0.166667,0,0,0.166667,0,0)">
<stop offset="0.4648" style="stop-color:rgb(100%,100%,100%);stop-opacity:1;"/>
<stop offset="0.9346" style="stop-color:rgb(30.196078%,77.254902%,74.901961%);stop-opacity:1;"/>
<stop offset="0.9642" style="stop-color:rgb(25.490196%,75.686275%,73.333333%);stop-opacity:1;"/>
</linearGradient>
<clipPath id="clip1">
  <rect x="0" y="0" width="500" height="500"/>
</clipPath>
<g id="surface5" clip-path="url(#clip1)">
<path style=" stroke:none;fill-rule:nonzero;fill:url(#linear26);" d="M 338.917969 112.636719 C 342.589844 108.378906 351.5 112.183594 372.25 107.890625 C 351.234375 112.175781 342.75 107.726562 338.917969 112.636719 Z M 338.917969 112.636719 "/>
</g>
<mask id="mask1">
  <g filter="url(#alpha)">
<rect x="0" y="0" width="500" height="500" style="fill:rgb(0%,0%,0%);fill-opacity:0.301961;stroke:none;"/>
  </g>
</mask>
<linearGradient id="linear27" gradientUnits="userSpaceOnUse" x1="2032.3738" y1="673.5366" x2="2231.5366" y2="673.5366" gradientTransform="matrix(0.166667,0,0,0.166667,0,0)">
<stop offset="0.4648" style="stop-color:rgb(100%,100%,100%);stop-opacity:1;"/>
<stop offset="0.9346" style="stop-color:rgb(30.196078%,77.254902%,74.901961%);stop-opacity:1;"/>
<stop offset="0.9642" style="stop-color:rgb(25.490196%,75.686275%,73.333333%);stop-opacity:1;"/>
</linearGradient>
<clipPath id="clip2">
  <rect x="0" y="0" width="500" height="500"/>
</clipPath>
<g id="surface8" clip-path="url(#clip2)">
<path style=" stroke:none;fill-rule:nonzero;fill:url(#linear27);" d="M 338.726562 114.25 C 342.847656 109.972656 364.117188 114.949219 371.921875 110.265625 C 360.734375 115.082031 342.566406 109.335938 338.726562 114.25 Z M 338.726562 114.25 "/>
</g>
<mask id="mask2">
  <g filter="url(#alpha)">
<rect x="0" y="0" width="500" height="500" style="fill:rgb(0%,0%,0%);fill-opacity:0.301961;stroke:none;"/>
  </g>
</mask>
<linearGradient id="linear28" gradientUnits="userSpaceOnUse" x1="2033.5" y1="691.4903" x2="2234.1409" y2="691.4903" gradientTransform="matrix(0.166667,0,0,0.166667,0,0)">
<stop offset="0.4648" style="stop-color:rgb(100%,100%,100%);stop-opacity:1;"/>
<stop offset="0.9346" style="stop-color:rgb(30.196078%,77.254902%,74.901961%);stop-opacity:1;"/>
<stop offset="0.9642" style="stop-color:rgb(25.490196%,75.686275%,73.333333%);stop-opacity:1;"/>
</linearGradient>
<clipPath id="clip3">
  <rect x="0" y="0" width="500" height="500"/>
</clipPath>
<g id="surface11" clip-path="url(#clip3)">
<path style=" stroke:none;fill-rule:nonzero;fill:url(#linear28);" d="M 338.917969 115.375 C 338.917969 115.375 346.917969 117.484375 354.128906 117.160156 C 361.125 116.847656 367.550781 114.890625 372.355469 113.300781 C 352.117188 119.726562 338.917969 115.375 338.917969 115.375 Z M 338.917969 115.375 "/>
</g>
<mask id="mask3">
  <g filter="url(#alpha)">
<rect x="0" y="0" width="500" height="500" style="fill:rgb(0%,0%,0%);fill-opacity:0.301961;stroke:none;"/>
  </g>
</mask>
<linearGradient id="linear29" gradientUnits="userSpaceOnUse" x1="2041.2174" y1="723.7698" x2="2241.8584" y2="723.7698" gradientTransform="matrix(0.147283,0.01315,0.01315,0.223217,30.02925,-69.531733)">
<stop offset="0.4648" style="stop-color:rgb(100%,100%,100%);stop-opacity:1;"/>
<stop offset="0.9346" style="stop-color:rgb(30.196078%,77.254902%,74.901961%);stop-opacity:1;"/>
<stop offset="0.9642" style="stop-color:rgb(25.490196%,75.686275%,73.333333%);stop-opacity:1;"/>
</linearGradient>
<clipPath id="clip4">
  <rect x="0" y="0" width="500" height="500"/>
</clipPath>
<g id="surface14" clip-path="url(#clip4)">
<path style=" stroke:none;fill-rule:nonzero;fill:url(#linear29);" d="M 340.203125 118.914062 C 340.203125 118.914062 344.582031 122.101562 350.65625 122.511719 C 359.046875 123.078125 365.46875 120.53125 369.589844 118.777344 C 349.613281 126.980469 340.203125 118.914062 340.203125 118.914062 Z M 340.203125 118.914062 "/>
</g>
<mask id="mask4">
  <g filter="url(#alpha)">
<rect x="0" y="0" width="500" height="500" style="fill:rgb(0%,0%,0%);fill-opacity:0.301961;stroke:none;"/>
  </g>
</mask>
<linearGradient id="linear30" gradientUnits="userSpaceOnUse" x1="2052.0349" y1="744.0664" x2="2252.6758" y2="744.0664" gradientTransform="matrix(0.132383,0.0156667,0.0156667,0.222783,58.73625,-74.363617)">
<stop offset="0.4648" style="stop-color:rgb(100%,100%,100%);stop-opacity:1;"/>
<stop offset="0.9346" style="stop-color:rgb(30.196078%,77.254902%,74.901961%);stop-opacity:1;"/>
<stop offset="0.9642" style="stop-color:rgb(25.490196%,75.686275%,73.333333%);stop-opacity:1;"/>
</linearGradient>
<clipPath id="clip5">
  <rect x="0" y="0" width="500" height="500"/>
</clipPath>
<g id="surface17" clip-path="url(#clip5)">
<path style=" stroke:none;fill-rule:nonzero;fill:url(#linear30);" d="M 342.0625 123.585938 C 342.0625 123.585938 346.046875 126.839844 351.503906 127.351562 C 359.042969 128.0625 364.761719 125.632812 368.433594 123.957031 C 350.648438 131.792969 342.0625 123.585938 342.0625 123.585938 Z M 342.0625 123.585938 "/>
</g>
</defs>
<g id="surface1">
<path style="fill-rule:nonzero;fill:rgb(0%,0%,0%);fill-opacity:1;stroke-width:1;stroke-linecap:butt;stroke-linejoin:miter;stroke:rgb(0%,0%,0%);stroke-opacity:1;stroke-miterlimit:10;" d="M 1268.507812 1103.507812 L 1217.507812 1505.507812 L 1266.28125 1513.546875 L 1319.296875 1109.554688 Z M 1268.507812 1103.507812 " transform="matrix(0.166667,0,0,0.166667,0,0)"/>
<path style=" stroke:none;fill-rule:nonzero;fill:rgb(90.588235%,92.941176%,92.54902%);fill-opacity:1;" d="M 361.65625 66.695312 C 306.796875 66.695312 262.324219 111.171875 262.324219 166.03125 C 262.324219 172.699219 262.980469 179.210938 264.234375 185.511719 L 228.574219 209.78125 L 270.59375 205.777344 C 285.925781 240.851562 320.929688 265.363281 361.65625 265.363281 C 416.515625 265.363281 460.988281 220.890625 460.988281 166.03125 C 460.988281 111.171875 416.515625 66.695312 361.65625 66.695312 Z M 361.65625 66.695312 "/>
<path style="fill:none;stroke-width:7;stroke-linecap:butt;stroke-linejoin:miter;stroke:rgb(73.333333%,76.470588%,76.862745%);stroke-opacity:1;stroke-miterlimit:10;" d="M 1093.5 557.507812 C 1096.125 561.914062 1244.015625 643.546875 1279.78125 663.257812 C 1284.585938 665.90625 1290.421875 665.90625 1295.226562 663.257812 C 1330.734375 643.757812 1476.539062 563.414062 1479.492188 558.492188 " transform="matrix(0.166667,0,0,0.166667,0,0)"/>
<path style="fill:none;stroke-width:7;stroke-linecap:butt;stroke-linejoin:miter;stroke:rgb(73.333333%,76.470588%,76.862745%);stroke-opacity:1;stroke-miterlimit:10;" d="M 1469.835938 790.007812 L 1105.148438 790.007812 C 1097.34375 790.007812 1090.992188 783.65625 1090.992188 775.851562 L 1090.992188 568.148438 C 1090.992188 560.34375 1097.34375 553.992188 1105.148438 553.992188 L 1469.835938 553.992188 C 1477.664062 553.992188 1483.992188 560.34375 1483.992188 568.148438 L 1483.992188 775.851562 C 1483.992188 783.65625 1477.664062 790.007812 1469.835938 790.007812 Z M 1469.835938 790.007812 " transform="matrix(0.166667,0,0,0.166667,0,0)"/>
<path style=" stroke:none;fill-rule:nonzero;fill:rgb(100%,32.941176%,32.941176%);fill-opacity:1;" d="M 312.417969 85.75 L 295.25 85.75 L 295.25 68.582031 L 284.582031 68.582031 L 284.582031 85.75 L 267.417969 85.75 L 267.417969 96.417969 L 284.582031 96.417969 L 284.582031 113.582031 L 295.25 113.582031 L 295.25 96.417969 L 312.417969 96.417969 Z M 312.417969 85.75 "/>
<path style=" stroke:none;fill-rule:nonzero;fill:rgb(90.980392%,93.333333%,92.941176%);fill-opacity:1;" d="M 138.371094 246.347656 C 135.679688 246.734375 67.625 278.464844 61.203125 302.679688 C 57.539062 316.511719 59.148438 409.328125 82.371094 426.347656 C 90.777344 432.507812 100.296875 434.027344 108.011719 430.558594 C 114.441406 427.664062 120.742188 415.304688 126.703125 409.847656 C 142.882812 395.039062 161.015625 394.933594 192.871094 400.011719 C 215.871094 403.679688 226.988281 402.777344 246.871094 362.511719 C 260.203125 335.511719 241.355469 316.46875 237.539062 306.347656 C 225.785156 275.179688 227.660156 277.949219 221.703125 273.179688 C 197.535156 253.820312 165.632812 242.414062 138.371094 246.347656 Z M 138.371094 246.347656 "/>
<path style=" stroke:none;fill-rule:nonzero;fill:rgb(81.176471%,85.098039%,85.490196%);fill-opacity:1;" d="M 66.332031 299.832031 C 67.351562 299.964844 94.886719 317.011719 102 329.332031 C 99.921875 329.953125 98.179688 330.828125 96.832031 332 C 92.921875 322.070312 65.808594 299.765625 66.332031 299.832031 Z M 66.332031 299.832031 "/>
<path style=" stroke:none;fill-rule:nonzero;fill:rgb(81.176471%,85.098039%,85.490196%);fill-opacity:1;" d="M 117.332031 256.332031 C 106.5 261.3125 114.058594 269.578125 115.832031 268.667969 C 110.15625 272.386719 105.851562 312.496094 115.332031 329.832031 Z M 117.332031 256.332031 "/>
<path style=" stroke:none;fill-rule:nonzero;fill:rgb(73.333333%,76.078431%,76.470588%);fill-opacity:1;" d="M 175.832031 303 C 170.582031 311.914062 158.96875 334.125 156 353 C 154.007812 365.667969 156.21875 377.847656 157.167969 386.167969 C 166.332031 364.332031 170.554688 327.722656 175.832031 303 Z M 175.832031 303 "/>
<path style=" stroke:none;fill-rule:nonzero;fill:rgb(86.666667%,89.411765%,89.411765%);fill-opacity:1;" d="M 187.832031 261.667969 C 205 292.335938 203.574219 317.617188 201.5 321 C 201.492188 321.011719 201.453125 321.148438 201.5 321.183594 C 201.679688 321.316406 202.84375 320.011719 203.332031 319.332031 C 204.953125 317.074219 233.03125 299.917969 240.832031 312.667969 C 260.8125 345.3125 249.332031 358.832031 237 380.5 C 233 386.167969 223.789062 402.261719 206.832031 401.332031 C 199.5 401.667969 183.832031 398.667969 183.832031 398.667969 C 189.832031 398.832031 178.792969 334.710938 187.832031 261.667969 Z M 187.832031 261.667969 "/>
<path style=" stroke:none;fill-rule:nonzero;fill:rgb(81.176471%,85.098039%,85.490196%);fill-opacity:1;" d="M 93.667969 369.832031 C 86.988281 369.222656 77.5 373.332031 73.667969 377.667969 C 67.707031 384.40625 66.132812 392.511719 67.167969 396 C 69.832031 405 73.332031 419.167969 82.167969 426.167969 C 85.058594 428.460938 93.949219 434.476562 105.667969 431.332031 C 112.5 429.5 120.222656 418.316406 120.667969 416.332031 C 129 379 112.007812 371.511719 93.667969 369.832031 Z M 93.667969 369.832031 "/>
<path style=" stroke:none;fill-rule:nonzero;fill:rgb(73.333333%,76.078431%,76.470588%);fill-opacity:1;" d="M 195.832031 340.667969 L 197.332031 331.5 C 197.332031 331.5 196.679688 355.65625 204 367.5 C 209.03125 375.644531 217.425781 381.417969 226.332031 379.5 C 237.703125 377.050781 244.332031 367.332031 244.332031 367.332031 C 223.5 413.667969 200.667969 399.832031 184.191406 398.859375 C 167.714844 397.882812 184.332031 398.832031 184.332031 398.832031 Z M 195.832031 340.667969 "/>
<path style=" stroke:none;fill-rule:nonzero;fill:rgb(72.941176%,76.078431%,76.470588%);fill-opacity:1;" d="M 93.832031 431.667969 C 93.832031 431.667969 102.90625 434.203125 109.332031 429.832031 C 113.5 427 121.132812 417.28125 122.167969 414.5 C 126.824219 401.992188 118.734375 389.207031 118.5 389.167969 C 115.789062 412.128906 109.914062 420.789062 104.832031 424.332031 C 103.441406 425.304688 93.84375 431.660156 93.832031 431.667969 Z M 93.832031 431.667969 "/>
<path style=" stroke:none;fill-rule:nonzero;fill:rgb(76.470588%,92.156863%,96.470588%);fill-opacity:1;" d="M 171.582031 301.582031 C 171.582031 301.582031 171.371094 344.542969 158.25 378.75 C 154.003906 389.816406 146.082031 414.582031 146.082031 414.582031 L 148.75 415.082031 C 148.589844 417.417969 148.914062 419.8125 149.582031 422.25 C 151.25 422.082031 151.917969 423.25 152.917969 423.75 C 153.675781 424.128906 151.277344 418.671875 152.082031 415.082031 C 154.875 415.121094 157.539062 415.28125 160.417969 416.75 C 159.808594 418.816406 159.636719 420.871094 159.917969 422.917969 C 160.796875 422.632812 161.921875 423.660156 162.917969 424.582031 C 162.46875 422.996094 162.570312 420.152344 164.082031 416.917969 C 165.808594 415.976562 167.761719 415.722656 169.917969 416.082031 C 170.601562 419.992188 169.273438 422.148438 168.582031 425.25 C 169.753906 425.234375 170.585938 427.070312 171.417969 427.75 C 173.257812 424.292969 174.035156 420.332031 174.417969 416.417969 C 176.304688 415.78125 178.386719 415.625 180.582031 415.75 C 179.753906 418.894531 179.925781 424.523438 180.417969 426.75 C 181 425.917969 181.441406 425.359375 183.25 425.75 C 182.871094 421.785156 182.851562 418.234375 184.082031 415.417969 C 184.972656 415.21875 185.960938 415 187.082031 414.75 C 192.410156 393.316406 197.078125 365.816406 197.25 333.75 C 197.363281 312.636719 195.511719 293.730469 192.917969 277.582031 Z M 171.582031 301.582031 "/>
<path style=" stroke:none;fill-rule:nonzero;fill:url(#linear0);" d="M 195.035156 292.988281 L 192.917969 277.582031 L 171.582031 301.582031 L 171.1875 311.691406 C 181.128906 309.230469 186.582031 304.066406 195.035156 292.988281 Z M 195.035156 292.988281 "/>
<path style=" stroke:none;fill-rule:nonzero;fill:url(#linear1);" d="M 195.644531 298.746094 C 183.429688 314.011719 177.039062 318.414062 170.902344 315.949219 L 170.160156 324.324219 C 178.375 324.199219 184.175781 321.941406 196.851562 315.289062 C 196.539062 309.433594 196.148438 303.875 195.644531 298.746094 Z M 195.644531 298.746094 "/>
<path style=" stroke:none;fill-rule:nonzero;fill:url(#linear2);" d="M 169.339844 331.5 L 167.90625 341.402344 C 177.40625 346.566406 184.570312 345.136719 197.136719 340.984375 C 197.328125 335.65625 197.363281 330.496094 197.195312 325.546875 C 185.007812 332.664062 176.761719 336.695312 169.339844 331.5 Z M 169.339844 331.5 "/>
<path style=" stroke:none;fill-rule:nonzero;fill:url(#linear3);" d="M 166.6875 348.199219 L 165.773438 352.71875 C 174.605469 357.597656 182.6875 359.433594 196.355469 356.671875 C 196.59375 354.355469 196.75 350.867188 196.875 347.964844 C 186.527344 351.703125 177.761719 352.015625 166.6875 348.199219 Z M 166.6875 348.199219 "/>
<path style=" stroke:none;fill-rule:nonzero;fill:url(#linear4);" d="M 164.042969 360.183594 L 162.582031 365.644531 C 179.636719 373.78125 188.160156 374.355469 195.140625 369.84375 C 195.386719 367.886719 195.613281 365.539062 195.835938 363.003906 C 188.277344 367.207031 178.648438 365.835938 164.042969 360.183594 Z M 164.042969 360.183594 "/>
<path style=" stroke:none;fill-rule:nonzero;fill:url(#linear5);" d="M 160.90625 371.183594 L 158.898438 377.023438 C 178.796875 384.425781 187.933594 386.792969 192.996094 385.710938 C 193.492188 382.582031 193.949219 379.433594 194.363281 376.261719 C 187.125 379.9375 176.863281 377.675781 160.90625 371.183594 Z M 160.90625 371.183594 "/>
<path style=" stroke:none;fill-rule:nonzero;fill:url(#linear6);" d="M 153.128906 393.210938 C 158.972656 393.484375 179.324219 401.925781 190.824219 397.925781 C 191.167969 396.296875 191.488281 394.582031 191.789062 392.792969 C 182.597656 392.277344 166.9375 391.253906 156.386719 383.796875 Z M 153.128906 393.210938 "/>
<path style=" stroke:none;fill-rule:nonzero;fill:url(#linear7);" d="M 187.082031 414.742188 C 187.761719 412.007812 188.433594 409.171875 189.082031 406.238281 C 174.351562 407.699219 161.324219 406.808594 150.378906 401.398438 C 147.960938 408.703125 146.082031 414.578125 146.082031 414.578125 L 148.75 415.078125 C 148.589844 417.414062 148.914062 419.808594 149.582031 422.246094 C 151.25 422.078125 151.917969 423.246094 152.917969 423.746094 C 153.675781 424.125 151.277344 418.667969 152.082031 415.078125 C 154.875 415.113281 157.539062 415.277344 160.417969 416.746094 C 159.808594 418.808594 159.636719 420.867188 159.917969 422.910156 C 160.796875 422.625 161.921875 423.65625 162.917969 424.578125 C 162.46875 422.992188 162.570312 420.148438 164.082031 416.910156 C 165.808594 415.972656 167.761719 415.71875 169.917969 416.078125 C 170.601562 419.988281 169.273438 422.140625 168.582031 425.246094 C 169.753906 425.230469 170.585938 427.066406 171.417969 427.746094 C 173.257812 424.285156 174.035156 420.328125 174.417969 416.410156 C 176.304688 415.777344 178.386719 415.617188 180.582031 415.746094 C 179.753906 418.890625 179.925781 424.519531 180.417969 426.746094 C 181 425.914062 181.441406 425.351562 183.25 425.746094 C 182.871094 421.78125 182.851562 418.230469 184.082031 415.410156 C 184.972656 415.210938 185.960938 414.992188 187.082031 414.742188 Z M 187.082031 414.742188 "/>
<path style=" stroke:none;fill-rule:nonzero;fill:rgb(76.470588%,92.156863%,96.470588%);fill-opacity:1;" d="M 117.667969 263 C 116.046875 273.25 114.027344 289.3125 113.800781 309.105469 C 113.546875 331.238281 115.707031 343.714844 117.582031 370.582031 C 118.542969 384.316406 119.617188 404.535156 119.667969 429.5 C 120.722656 428.777344 121.777344 428.054688 122.832031 427.332031 C 122.855469 429.082031 123.484375 431.300781 124.417969 432.75 C 124.847656 432.386719 126.160156 432.277344 126.332031 432.667969 C 126.332031 432.667969 125.171875 428.273438 125.667969 425.667969 C 126.886719 425.113281 128.113281 424.554688 129.332031 424 C 129.824219 425.847656 132.25 428.082031 132.25 428.082031 C 132.441406 428.238281 133.765625 427.710938 134.417969 427.75 C 134.417969 427.75 133.472656 426.734375 132.863281 425.027344 C 132.488281 423.96875 132.460938 423 132.5 422.332031 C 133.722656 421.613281 136.167969 420.167969 136.167969 420.167969 C 135.933594 420.316406 137.445312 424.738281 139.332031 426.167969 C 139.546875 425.941406 141.917969 425.582031 142.082031 425.75 C 141.109375 424.773438 139.636719 419.246094 140 418.832031 C 140 418.832031 141.777344 417.945312 142.667969 417.5 C 143.339844 420.933594 146.417969 423.082031 147.332031 423.332031 C 147.335938 422.972656 147.828125 422.730469 148.5 422.5 C 146.65625 420.890625 145.519531 418.886719 145.667969 416.167969 C 150.554688 414.613281 155.445312 413.054688 160.332031 411.5 C 159.375 380.449219 154.664062 360.691406 150.25 348.082031 C 148.332031 342.601562 146.015625 333.179688 144.917969 320.582031 C 143.929688 309.273438 143.65625 295.117188 143.667969 294.332031 Z M 117.667969 263 "/>
<path style=" stroke:none;fill-rule:nonzero;fill:url(#linear8);" d="M 144.078125 307.355469 L 143.667969 294.332031 L 117.667969 263 C 116.105469 272.476562 115.019531 281.789062 114.539062 290.898438 C 121.539062 301.230469 128.457031 299.761719 144.078125 307.355469 Z M 144.078125 307.355469 "/>
<path style=" stroke:none;fill-rule:nonzero;fill:url(#linear9);" d="M 144.414062 313.722656 C 132.550781 313.027344 123.632812 309.59375 113.957031 302.132812 C 113.78125 306.429688 113.757812 310.90625 113.78125 315.546875 C 121.613281 323.210938 132.320312 321.269531 145.058594 322.105469 Z M 144.414062 313.722656 "/>
<path style=" stroke:none;fill-rule:nonzero;fill:url(#linear10);" d="M 148.738281 343.167969 L 146.042969 330.203125 C 134.5 334.746094 125.875 330.46875 114.054688 325.015625 L 115.363281 343.679688 C 125.574219 341.214844 130.460938 339.464844 148.738281 343.167969 Z M 148.738281 343.167969 "/>
<path style=" stroke:none;fill-rule:nonzero;fill:url(#linear11);" d="M 153.046875 357.0625 C 152.292969 354.246094 151.394531 351.363281 150.367188 348.425781 C 142.453125 352.902344 131.875 352.839844 116.179688 352.761719 L 117.136719 364.542969 C 134.140625 363.542969 147.714844 355.898438 153.046875 357.0625 Z M 153.046875 357.0625 "/>
<path style=" stroke:none;fill-rule:nonzero;fill:url(#linear12);" d="M 155.289062 366.25 C 135.726562 372.570312 123.570312 375.335938 117.714844 372.480469 L 118.503906 385.683594 C 124.296875 386.339844 149.984375 376.558594 156.652344 373.226562 C 156.417969 371.535156 155.882812 368.976562 155.289062 366.25 Z M 155.289062 366.25 "/>
<path style=" stroke:none;fill-rule:nonzero;fill:url(#linear13);" d="M 159.292969 393.636719 C 158.894531 389.078125 158.488281 384.714844 158.015625 382.082031 C 138.941406 390.878906 126.355469 395.75 118.9375 395.140625 L 119.332031 406.6875 C 130.289062 405.070312 149.355469 392.738281 159.292969 393.636719 Z M 159.292969 393.636719 "/>
<path style=" stroke:none;fill-rule:nonzero;fill:url(#linear14);" d="M 119.667969 429.5 C 120.722656 428.777344 121.777344 428.054688 122.832031 427.332031 C 122.855469 429.082031 123.484375 431.300781 124.417969 432.75 C 124.847656 432.386719 126.160156 432.277344 126.332031 432.667969 C 126.332031 432.667969 125.171875 428.273438 125.667969 425.667969 C 126.886719 425.113281 128.113281 424.554688 129.332031 424 C 129.824219 425.847656 132.25 428.082031 132.25 428.082031 C 132.441406 428.238281 133.765625 427.710938 134.417969 427.75 C 134.417969 427.75 133.472656 426.734375 132.863281 425.027344 C 132.488281 423.96875 132.460938 423 132.5 422.332031 C 133.722656 421.613281 136.167969 420.167969 136.167969 420.167969 C 135.933594 420.316406 137.445312 424.738281 139.332031 426.167969 C 139.546875 425.941406 141.917969 425.582031 142.082031 425.75 C 141.109375 424.773438 139.636719 419.246094 140 418.832031 C 140 418.832031 141.777344 417.945312 142.667969 417.5 C 143.339844 420.933594 146.417969 423.082031 147.332031 423.332031 C 147.335938 422.972656 147.828125 422.730469 148.5 422.5 C 146.65625 420.890625 145.519531 418.886719 145.667969 416.167969 C 150.554688 414.613281 155.527344 413.097656 160.414062 411.542969 C 160.328125 408.695312 160.125 405.898438 159.976562 403.238281 C 129.976562 410.160156 120.226562 415.796875 119.558594 417.011719 C 119.621094 421.027344 119.660156 425.191406 119.667969 429.5 Z M 119.667969 429.5 "/>
<path style=" stroke:none;fill-rule:nonzero;fill:rgb(76.470588%,92.156863%,96.470588%);fill-opacity:1;" d="M 118.667969 254.5 C 113.632812 249.871094 113.167969 263.332031 117.332031 272.667969 C 128.601562 297.90625 155.113281 319.453125 171.832031 310.332031 C 175.5 308.332031 179.332031 304.832031 183.5 299.332031 C 189.300781 291.675781 194.667969 284.167969 194.667969 271 C 194.667969 265.652344 190.5 253.167969 189.5 257.832031 C 184.589844 280.757812 143.335938 277.195312 118.667969 254.5 Z M 118.667969 254.5 "/>
<path style=" stroke:none;fill-rule:nonzero;fill:url(#linear15);" d="M 118.941406 276.039062 C 120.144531 278.613281 122.222656 282.160156 124.714844 285.71875 C 126.023438 272.375 126.496094 266.273438 132.597656 264.472656 L 124.910156 259.601562 C 119.972656 259.105469 121.726562 264.269531 118.941406 276.039062 Z M 118.941406 276.039062 "/>
<path style=" stroke:none;fill-rule:nonzero;fill:url(#linear16);" d="M 142.640625 269.09375 C 135.910156 281.039062 135.1875 289.605469 138.398438 301.054688 C 140.242188 302.964844 143.382812 305.058594 146.742188 307.183594 C 142.304688 293.960938 140.738281 289.152344 148.40625 270.988281 Z M 142.640625 269.09375 "/>
<path style=" stroke:none;fill-rule:nonzero;fill:url(#linear17);" d="M 153.660156 272.246094 C 156.488281 289.773438 157.738281 301.75 151.785156 309.808594 C 154.3125 311.015625 158.464844 312.253906 161.667969 312.414062 C 165.660156 301.816406 164.871094 290.285156 161.847656 273.296875 C 159.210938 273.136719 156.480469 272.785156 153.660156 272.246094 Z M 153.660156 272.246094 "/>
<path style=" stroke:none;fill-rule:nonzero;fill:url(#linear18);" d="M 181.714844 269.085938 C 178.839844 270.601562 175.820312 271.988281 172.09375 272.71875 C 182.441406 281.726562 183.058594 290.363281 180.078125 303.488281 C 183.398438 299.695312 186.402344 295.847656 188.75 291.886719 C 191.476562 281.144531 186.832031 275.714844 181.714844 269.085938 Z M 181.714844 269.085938 "/>
<path style=" stroke:none;fill-rule:nonzero;fill:rgb(76.470588%,92.156863%,96.470588%);fill-opacity:1;" d="M 175.332031 236.667969 C 147.640625 236.667969 137 227.332031 127.332031 230.167969 C 118.148438 232.859375 109 247.667969 118.667969 256.5 C 120.855469 258.5 129.40625 263.480469 136.667969 268.5 C 146.558594 275.339844 158.832031 285 164.5 284.167969 C 179.816406 281.914062 190.667969 265.195312 190.667969 252 C 190.667969 244.5 183.667969 236.667969 175.332031 236.667969 Z M 175.332031 236.667969 "/>
<path style=" stroke:none;fill-rule:nonzero;fill:url(#linear19);" d="M 137.570312 233.394531 C 137.570312 233.394531 140.25 227.917969 129.582031 228.082031 C 118.753906 228.253906 109.214844 245.863281 114.582031 253.917969 C 114.980469 254.511719 121.484375 258.582031 121.484375 258.582031 C 119.53125 242.660156 122.175781 232.789062 137.570312 233.394531 Z M 137.570312 233.394531 "/>
<path style=" stroke:none;fill-rule:nonzero;fill:url(#linear20);" d="M 138.28125 245.441406 C 129.9375 252.574219 132.105469 256.816406 132.25 265.539062 L 139.296875 270.339844 C 137.152344 261.910156 135.289062 258.285156 142.070312 250.074219 C 139.902344 248.824219 138.367188 247.367188 138.28125 245.441406 Z M 138.28125 245.441406 "/>
<path style=" stroke:none;fill-rule:nonzero;fill:url(#linear21);" d="M 150.171875 251.949219 C 154.207031 264.261719 153.28125 269.941406 148.378906 276.71875 C 149.910156 277.792969 151.691406 278.929688 153.601562 280.097656 C 159.777344 270.996094 160.789062 263.378906 158.851562 251.066406 C 156.070312 251.78125 153.183594 252.101562 150.171875 251.949219 Z M 150.171875 251.949219 "/>
<path style=" stroke:none;fill-rule:nonzero;fill:url(#linear22);" d="M 162.761719 246.066406 L 162.667969 248.832031 C 175.488281 258.507812 176.664062 266.71875 167.082031 283.640625 C 169.660156 283.117188 175.125 280.523438 176.957031 278.660156 C 184.910156 254.289062 176.832031 250.042969 162.761719 246.066406 Z M 162.761719 246.066406 "/>
<path style=" stroke:none;fill-rule:nonzero;fill:url(#linear23);" d="M 176.582031 234.582031 C 171.789062 233.824219 161.75 239.082031 161.75 239.082031 C 175.140625 241.128906 190.703125 240.171875 187.582031 265.082031 C 187.582031 265.082031 193.308594 256.339844 193.417969 255.582031 C 194.757812 246.195312 186.558594 236.160156 176.582031 234.582031 Z M 176.582031 234.582031 "/>
<path style=" stroke:none;fill-rule:nonzero;fill:rgb(100%,98.431373%,97.254902%);fill-opacity:1;" d="M 132.75 327.417969 C 132.082031 328.582031 133.25 333.082031 135.582031 334.417969 C 136.75 335.082031 153.820312 327.269531 161 322.667969 C 164.25 320.582031 164.117188 320.128906 165.917969 318.75 C 178.082031 309.417969 188.742188 303.761719 188.925781 303.5625 C 189.265625 303.195312 188.960938 302.441406 188.332031 302.667969 C 187.535156 302.953125 178.046875 308.660156 162.75 313.25 C 161.082031 313.75 160.75 313.25 156.667969 315 C 136.214844 323.765625 133.042969 326.90625 132.75 327.417969 Z M 132.75 327.417969 "/>
<path style=" stroke:none;fill-rule:nonzero;fill:rgb(31.372549%,50.196078%,55.294118%);fill-opacity:1;" d="M 185.089844 304.339844 C 185.046875 304.535156 185.1875 305.164062 185.589844 305.507812 L 188.988281 303.558594 C 189.390625 303.148438 188.839844 302.363281 188.300781 302.609375 Z M 185.089844 304.339844 "/>
<path style=" stroke:none;fill-rule:nonzero;fill:rgb(31.372549%,50.196078%,55.294118%);fill-opacity:1;" d="M 137.25 324.246094 C 138.414062 327.238281 139.59375 329.375 141.40625 332.5625 C 141.40625 332.5625 136.742188 335.332031 135.75 334.75 C 134.757812 334.171875 131.941406 328.53125 132.492188 327.097656 C 132.5625 326.292969 137.25 324.246094 137.25 324.246094 Z M 137.25 324.246094 "/>
<path style=" stroke:none;fill-rule:nonzero;fill:rgb(78.431373%,73.333333%,69.803922%);fill-opacity:1;" d="M 154.140625 323.261719 L 149.027344 325.964844 C 148.628906 326.175781 148.132812 326.023438 147.921875 325.625 L 147.207031 324.269531 C 146.996094 323.871094 147.148438 323.375 147.550781 323.164062 L 152.664062 320.464844 C 153.0625 320.25 153.558594 320.40625 153.769531 320.804688 L 154.484375 322.160156 C 154.695312 322.558594 154.542969 323.050781 154.140625 323.261719 Z M 154.140625 323.261719 "/>
<path style="fill:none;stroke-width:3;stroke-linecap:butt;stroke-linejoin:miter;stroke:rgb(78.431373%,73.72549%,69.803922%);stroke-opacity:1;stroke-miterlimit:10;" d="M 869.774708 1962.570182 C 869.767194 1957.601445 863.789564 1953.589497 856.430694 1953.593992 C 849.071824 1953.598487 843.119919 1957.605481 843.106302 1962.564079 C 843.113816 1967.532816 849.091446 1971.544764 856.440177 1971.5614 C 863.799047 1971.556905 869.761091 1967.52878 869.774708 1962.570182 Z M 869.774708 1962.570182 " transform="matrix(0.150267,-0.0721,0.0721,0.150267,-127.44555,93.930783)"/>
<path style=" stroke:none;fill-rule:nonzero;fill:rgb(100%,70.588235%,57.647059%);fill-opacity:1;" d="M 221.667969 186.832031 C 220.25 186.550781 217.75 189.070312 216.734375 191.671875 C 216 194 216.492188 197.617188 216.832031 198.5 C 216.511719 197.976562 214.921875 210.597656 215.832031 214.332031 C 215.832031 214.332031 211.667969 214.667969 205.332031 215.332031 C 203.5 215.667969 200.511719 218.101562 200.167969 218.5 C 198.167969 220.832031 197.273438 223.386719 198 224 C 200 225.332031 204 221.5 204 221.5 C 204 221.5 196.421875 228.445312 197 229.832031 C 197.828125 231.824219 202.167969 230.667969 202.167969 230.667969 C 202.167969 230.667969 198.691406 234.765625 198.832031 235.667969 C 201.167969 238.832031 207.5 234.5 208.167969 234 L 212.667969 235 C 213.328125 236.523438 207.167969 245.414062 205.5 252.5 C 204.25 257.820312 208 263.332031 208 263.332031 C 207.425781 281.070312 206.316406 295.324219 205.457031 304.6875 C 201.578125 347.121094 200.851562 364.0625 209.832031 370.832031 C 213.332031 373.667969 225.167969 375 230.832031 370.167969 C 251.542969 352.519531 223 275 223.332031 267.667969 C 223.730469 258.921875 226.410156 244.15625 227.609375 240.480469 C 227.734375 240.09375 227.828125 239.84375 228 239.332031 C 229.972656 233.445312 230.007812 231.703125 229.957031 230.71875 C 229.933594 230.265625 229.871094 229.550781 229.667969 228.667969 C 229.667969 228.667969 231.359375 225.703125 231 224.167969 C 230.730469 223.019531 229.5 221.832031 229.5 221.832031 C 229.984375 220.632812 230.519531 218.785156 229.667969 217.5 C 228.59375 215.878906 224.667969 215.832031 224.667969 215.832031 C 224.667969 215.832031 223.167969 187.5 221.667969 186.832031 Z M 221.667969 186.832031 "/>
<path style=" stroke:none;fill-rule:nonzero;fill:rgb(96.862745%,56.862745%,45.098039%);fill-opacity:1;" d="M 198.167969 223.832031 C 198.15625 223.402344 205.035156 217.796875 205.332031 218.167969 C 220.179688 218.519531 226.996094 220.246094 227 220.667969 C 227.003906 221.085938 219.523438 220.25 204.667969 220.832031 C 202.628906 223.09375 200.773438 223.828125 199.832031 224.167969 C 199.339844 224.347656 198.183594 224.402344 198.167969 223.832031 Z M 198.167969 223.832031 "/>
<path style=" stroke:none;fill-rule:nonzero;fill:rgb(96.862745%,56.862745%,45.098039%);fill-opacity:1;" d="M 202.167969 230.667969 C 202.167969 230.082031 207.5 225.332031 207.5 225.332031 C 207.5 225.332031 226.285156 225.941406 226.167969 226.667969 C 226.066406 227.292969 207 228 207 228 C 206.019531 228.136719 202.167969 231 202.167969 230.667969 Z M 202.167969 230.667969 "/>
<path style=" stroke:none;fill-rule:nonzero;fill:rgb(96.862745%,56.862745%,45.098039%);fill-opacity:1;" d="M 208.292969 234.027344 C 208.261719 234.023438 208.257812 233.976562 208.289062 233.964844 C 209.136719 233.742188 214.097656 232.488281 215.667969 233.667969 C 216.332031 234.167969 209.195312 243.183594 209.195312 243.183594 C 209.195312 243.183594 212.640625 236.207031 212.667969 235 Z M 208.292969 234.027344 "/>
<path style=" stroke:none;fill-rule:nonzero;fill:rgb(96.862745%,56.862745%,45.098039%);fill-opacity:1;" d="M 215.832031 214.332031 C 224.667969 215.832031 224.667969 215.832031 224.667969 215.832031 C 224.667969 215.832031 223.5 186.832031 221.667969 186.832031 C 219.796875 186.617188 217.519531 189.4375 216.667969 191.832031 C 215.8125 194.238281 216.832031 198.5 216.832031 198.5 C 216.523438 198.503906 214.816406 207.335938 215.832031 214.332031 Z M 215.832031 214.332031 "/>
<path style=" stroke:none;fill-rule:nonzero;fill:rgb(96.862745%,56.862745%,45.098039%);fill-opacity:1;" d="M 224.902344 253.832031 C 224.902344 253.832031 219.332031 259.355469 219.332031 266.167969 C 219.332031 268.5 225.167969 276.5 225.167969 276.5 L 223.332031 268 C 223.332031 268 224.363281 258.691406 224.902344 253.832031 Z M 224.902344 253.832031 "/>
<path style=" stroke:none;fill-rule:nonzero;fill:rgb(96.862745%,56.862745%,45.098039%);fill-opacity:1;" d="M 215.066406 351.609375 C 221.738281 359.644531 229.683594 363.601562 234.5 365.5 C 234.5 365.5 232.078125 371.566406 226.332031 372.832031 C 215 375.332031 209.457031 371.078125 208 369.167969 C 205.332031 365.667969 202.265625 360.980469 202.667969 343.832031 C 203.078125 326.292969 205.101562 308.628906 205.101562 308.628906 C 205.101562 308.628906 202.632812 332.34375 215.066406 351.609375 Z M 215.066406 351.609375 "/>
<path style=" stroke:none;fill-rule:nonzero;fill:rgb(100%,70.588235%,57.647059%);fill-opacity:1;" d="M 94.671875 335.179688 C 94.492188 336.648438 95.226562 337.996094 96 339 C 93.449219 341.910156 92.949219 344.953125 95 348.167969 C 93.070312 350.726562 93.03125 353.125 95.167969 355.332031 C 93.773438 356.214844 93.332031 362 96.832031 363.332031 C 98.5 368.667969 84.664062 376.304688 82 382.832031 C 79.5 391.167969 88.265625 395.757812 89 396.332031 C 97.347656 402.902344 110.625 401.175781 114.832031 395.167969 C 118.703125 389.640625 117.5 376 117.5 376 C 117.5 376 123.285156 370.890625 123.832031 366.5 C 124.332031 362.488281 122.667969 358.832031 122.667969 358.832031 C 136.667969 352.332031 141.167969 347.5 139.332031 343.167969 C 139.789062 342.945312 144 339.5 141.332031 336 C 142.480469 331.460938 140.75 329.316406 134 328.832031 C 133.554688 328.800781 134.5 327.332031 133.667969 326.332031 C 130.101562 322.054688 111.488281 326.535156 109.167969 327.167969 C 102.566406 328.957031 95.175781 331.042969 94.671875 335.179688 Z M 94.671875 335.179688 "/>
<path style=" stroke:none;fill-rule:nonzero;fill:rgb(96.862745%,56.862745%,45.098039%);fill-opacity:1;" d="M 134 328.832031 L 104.167969 337 C 104.167969 337 136.160156 329.535156 137.183594 329.261719 C 137.183594 329.089844 133.78125 328.773438 134 328.832031 Z M 134 328.832031 "/>
<path style=" stroke:none;fill-rule:nonzero;fill:rgb(96.862745%,56.862745%,45.098039%);fill-opacity:1;" d="M 141.644531 334.175781 C 141.644531 333.84375 104.167969 345 104.167969 345 L 141.332031 336 C 141.332031 336 141.644531 334.511719 141.644531 334.175781 Z M 141.644531 334.175781 "/>
<path style=" stroke:none;fill-rule:nonzero;fill:rgb(96.862745%,56.862745%,45.098039%);fill-opacity:1;" d="M 139.332031 343.167969 L 103.332031 352 C 103.332031 352 139.574219 344.992188 139.667969 344.332031 C 139.691406 344.160156 139.355469 343.160156 139.332031 343.167969 Z M 139.332031 343.167969 "/>
<path style=" stroke:none;fill-rule:nonzero;fill:rgb(96.862745%,56.862745%,45.098039%);fill-opacity:1;" d="M 96.832031 363.332031 L 100 370.5 C 100 370.5 92.75 372.851562 89.832031 376.667969 C 84.949219 383.054688 93.667969 399 93.667969 399 C 83.597656 394.808594 80.8125 388.65625 81.667969 384.167969 C 82.171875 381.5 83.820312 379.230469 89.332031 374.167969 C 95.5 368.5 97.386719 365.769531 96.832031 363.332031 Z M 96.832031 363.332031 "/>
<path style=" stroke:none;fill-rule:nonzero;fill:rgb(96.862745%,56.862745%,45.098039%);fill-opacity:1;" d="M 122.667969 358.832031 C 119.503906 360.667969 114.789062 361.957031 109.832031 363.167969 C 115.105469 364.703125 119.953125 365.8125 123.910156 365.582031 C 123.910156 363.25 123.53125 360.5 122.667969 358.832031 Z M 122.667969 358.832031 "/>
<path style=" stroke:none;fill-rule:nonzero;fill:rgb(96.862745%,56.862745%,45.098039%);fill-opacity:1;" d="M 119.699219 373.703125 C 115.601562 374.789062 111.117188 374.398438 106.667969 373.167969 C 109.882812 376.019531 113.542969 376.71875 117.5 376 C 118.4375 375.238281 119.035156 374.628906 119.734375 373.765625 C 119.992188 373.445312 119.738281 373.691406 119.699219 373.703125 Z M 119.699219 373.703125 "/>
<path style=" stroke:none;fill-rule:nonzero;fill:rgb(100%,70.588235%,57.647059%);fill-opacity:1;" d="M 137.5 232.167969 L 138.332031 246.332031 C 141 253.667969 159.667969 253.167969 162.667969 248.832031 L 163 239 C 153.519531 240.6875 145.214844 237.628906 137.5 232.167969 Z M 137.5 232.167969 "/>
<path style=" stroke:none;fill-rule:nonzero;fill:rgb(97.254902%,58.431373%,47.058824%);fill-opacity:1;" d="M 137.5 232.167969 C 137.5 232.167969 137.816406 242.578125 138.167969 242.832031 C 155.832031 255.667969 162.667969 248.832031 162.667969 248.832031 L 163 239 C 155.167969 239.832031 147.066406 239.027344 137.5 232.167969 Z M 137.5 232.167969 "/>
<path style=" stroke:none;fill-rule:nonzero;fill:rgb(100%,70.588235%,57.647059%);fill-opacity:1;" d="M 107.582031 200.75 C 105.832031 205.5 110.820312 214.328125 116.082031 216.082031 C 119.820312 217.328125 123.175781 215.589844 122.917969 215.25 C 124.742188 218.96875 128.972656 226.765625 137.5 232.5 C 141.300781 235.058594 149.878906 240.675781 161.667969 239.332031 C 163.917969 239.078125 175.796875 237.582031 183.25 227.25 C 192.429688 214.523438 186.910156 199.375 186.417969 198.082031 C 187.445312 195.210938 191.410156 183.136719 185.5 171 C 176.246094 152 152.136719 152.058594 150.75 152.082031 C 148.308594 152.128906 125.363281 152.921875 117.75 170.917969 C 112.183594 184.070312 121.605469 200.460938 119.917969 198.917969 C 115.570312 194.953125 109.667969 195.667969 107.582031 200.75 Z M 107.582031 200.75 "/>
<path style=" stroke:none;fill-rule:nonzero;fill:rgb(96.862745%,56.862745%,45.098039%);fill-opacity:1;" d="M 164.667969 205.5 C 163.699219 203.804688 168.910156 197.742188 171.832031 198.667969 C 172.746094 198.953125 173.566406 199.964844 173.667969 201 C 173.800781 202.40625 172.570312 203.496094 172 204 C 169.570312 206.148438 165.363281 206.726562 164.667969 205.5 Z M 164.667969 205.5 "/>
<path style=" stroke:none;fill-rule:nonzero;fill:rgb(96.862745%,56.862745%,45.098039%);fill-opacity:1;" d="M 156.667969 216.167969 C 157.871094 215.203125 168.667969 211.167969 171.667969 212.332031 C 172.136719 212.515625 172.542969 214.125 172 214.167969 C 163 214.832031 155.832031 216.832031 156.667969 216.167969 Z M 156.667969 216.167969 "/>
<path style=" stroke:none;fill-rule:nonzero;fill:rgb(96.862745%,56.862745%,45.098039%);fill-opacity:1;" d="M 120.21875 199.070312 C 129.386719 184.238281 149.832031 174.5 183.667969 167.667969 C 182.992188 167.804688 173.667969 148.667969 143.332031 152.832031 C 129.667969 154.773438 116 165.332031 116 179.5 C 116 190.667969 120.21875 199.070312 120.21875 199.070312 Z M 120.21875 199.070312 "/>
<path style=" stroke:none;fill-rule:nonzero;fill:url(#linear24);" d="M 157.332031 204.917969 C 157.332031 210.023438 153.191406 214.167969 148.082031 214.167969 C 142.976562 214.167969 138.832031 210.023438 138.832031 204.917969 C 138.832031 199.808594 142.976562 195.667969 148.082031 195.667969 C 153.191406 195.667969 157.332031 199.808594 157.332031 204.917969 Z M 157.332031 204.917969 "/>
<path style=" stroke:none;fill-rule:nonzero;fill:url(#linear25);" d="M 188.425781 210.695312 C 188.425781 210.695312 186.382812 213.320312 183.464844 213.425781 C 179.949219 213.554688 176.390625 210.277344 176.175781 206.316406 C 175.949219 202.179688 178.847656 198.65625 182.648438 198.449219 C 184.871094 198.328125 187.039062 199.855469 187.039062 199.855469 C 188.066406 203.738281 188.625 207.398438 188.425781 210.695312 Z M 188.425781 210.695312 "/>
<path style=" stroke:none;fill-rule:nonzero;fill:rgb(0.784314%,0.784314%,0.784314%);fill-opacity:1;" d="M 156 190.25 C 156 192.136719 154.46875 193.667969 152.582031 193.667969 C 150.695312 193.667969 149.167969 192.136719 149.167969 190.25 C 149.167969 188.363281 150.695312 186.832031 152.582031 186.832031 C 154.46875 186.832031 156 188.363281 156 190.25 Z M 156 190.25 "/>
<path style=" stroke:none;fill-rule:nonzero;fill:rgb(0.784314%,0.784314%,0.784314%);fill-opacity:1;" d="M 182.332031 190.75 C 182.332031 192.359375 181.027344 193.667969 179.417969 193.667969 C 177.804688 193.667969 176.5 192.359375 176.5 190.75 C 176.5 189.140625 177.804688 187.832031 179.417969 187.832031 C 181.027344 187.832031 182.332031 189.140625 182.332031 190.75 Z M 182.332031 190.75 "/>
<path style=" stroke:none;fill-rule:nonzero;fill:rgb(73.72549%,49.803922%,38.823529%);fill-opacity:1;" d="M 144.125 185.441406 C 144.019531 185.957031 144.777344 186.707031 145.605469 186.609375 C 148.589844 186.257812 156.546875 182.632812 156.984375 182.078125 C 158.457031 180.207031 144.667969 182.820312 144.125 185.441406 Z M 144.125 185.441406 "/>
<path style=" stroke:none;fill-rule:nonzero;fill:rgb(73.72549%,49.803922%,38.823529%);fill-opacity:1;" d="M 176.613281 181.691406 C 175.613281 181.601562 174.59375 182.121094 176.066406 183.007812 C 179.800781 185.257812 184.222656 188.132812 184.886719 188.15625 C 186.0625 188.199219 185.953125 186.359375 185.316406 185.503906 C 183.769531 183.421875 178.722656 181.882812 176.613281 181.691406 Z M 176.613281 181.691406 "/>
<path style=" stroke:none;fill-rule:nonzero;fill:rgb(73.72549%,49.803922%,38.823529%);fill-opacity:1;" d="M 193.667969 159.5 C 196.789062 153.707031 193.898438 149.71875 185.667969 147.332031 C 183.136719 142.0625 177.597656 141.035156 170.167969 142.667969 C 165.667969 136.480469 158.160156 134.980469 147.332031 138.667969 C 138.832031 130.5 126.886719 134.761719 121.832031 146.832031 C 113.601562 149.585938 110.675781 153.816406 111.167969 159 C 103.199219 158.835938 99.976562 164.011719 101.332031 174.332031 C 94 175.667969 95.5 184.5 97.332031 185.167969 C 96.789062 188.4375 97.867188 190.640625 101.5 191.167969 C 98.097656 197.558594 100.011719 201.761719 107.167969 202.667969 C 107.5 199.5 111.550781 194.367188 117.480469 197.207031 C 118.976562 197.921875 120.164062 199.15625 120.847656 200.667969 C 123.398438 206.328125 124.167969 209.332031 124.167969 209.332031 C 124.167969 209.332031 129.652344 195.035156 124.332031 190.332031 C 128.601562 187.886719 130.382812 182.300781 130.832031 174.667969 C 137.441406 176.527344 142.566406 175.203125 145.667969 169.5 C 150.445312 171.980469 155.753906 170.714844 161.667969 165.167969 C 165.527344 175.136719 171.203125 179.082031 179.5 174.332031 C 188.214844 182.40625 202.667969 173.667969 193.667969 159.5 Z M 99.332031 184.5 C 99.332031 184.5 97.195312 181.265625 98.5 178.667969 C 99.230469 177.207031 101.5 176.167969 101.5 176.167969 C 99.207031 178.523438 98.703125 181.359375 99.332031 184.5 Z M 102.167969 196.667969 C 101.519531 194.734375 102.171875 192.535156 103.832031 191.167969 C 103.488281 194.996094 104.179688 198.367188 105.667969 199.832031 C 105.667969 199.832031 102.855469 198.71875 102.167969 196.667969 Z M 129.332031 140.5 C 131.011719 137.539062 134.125 135.792969 137.332031 136 C 140.394531 136.199219 143.332031 139.332031 143.332031 139.332031 C 141.039062 137.589844 133.644531 136.246094 129.332031 140.5 Z M 182.167969 150 C 182.183594 147.089844 179.148438 145.417969 173 145 C 173 145 182.625 144.546875 183.332031 147.5 C 183.554688 148.425781 182.167969 150 182.167969 150 Z M 189.832031 174.332031 C 193.691406 171.878906 194.839844 168.066406 192.167969 162.332031 C 192.167969 162.332031 195.386719 165.769531 194.667969 169.167969 C 193.976562 172.425781 189.832031 174.332031 189.832031 174.332031 Z M 189.832031 174.332031 "/>
<path style=" stroke:none;fill-rule:nonzero;fill:rgb(73.72549%,49.803922%,38.823529%);fill-opacity:1;" d="M 118.167969 216.5 C 119.535156 220.238281 122.320312 222.488281 126.5 221.5 C 125.226562 219.351562 123.816406 217.007812 123 215.167969 C 121.65625 216.328125 119.976562 216.582031 118.167969 216.5 Z M 118.167969 216.5 "/>
<path style=" stroke:none;fill-rule:nonzero;fill:rgb(25.882353%,75.686275%,73.333333%);fill-opacity:1;" d="M 351.832031 140.332031 C 337.71875 142.363281 325.417969 146.75 323.832031 148.332031 C 314.046875 158.117188 309.082031 184.417969 305.5 190.832031 C 295.808594 208.1875 316.167969 236.832031 316.167969 236.832031 L 312.007812 252.085938 C 343.507812 269.585938 378.550781 268.308594 404.214844 255.808594 L 397.332031 201.667969 C 397.332031 201.667969 403.582031 201.25 408.582031 193.582031 C 409.578125 192.058594 411.75 188.417969 410.667969 184.167969 C 409.851562 180.96875 402.082031 152.25 401 151.167969 C 397.175781 147.339844 393.511719 145.304688 391 144 C 377.253906 136.863281 363.347656 138.679688 351.832031 140.332031 Z M 351.832031 140.332031 "/>
<path style=" stroke:none;fill-rule:nonzero;fill:rgb(18.823529%,68.235294%,66.27451%);fill-opacity:1;" d="M 324.851562 147.648438 C 329.613281 164.207031 330.246094 180.609375 325.75 197.75 L 323.25 195.917969 C 327.261719 181.6875 327.972656 165.863281 324.851562 147.648438 Z M 324.851562 147.648438 "/>
<path style=" stroke:none;fill-rule:nonzero;fill:rgb(18.823529%,68.235294%,66.27451%);fill-opacity:1;" d="M 387.417969 197.75 C 389.394531 207.859375 391.453125 217.953125 393.59375 228.03125 C 395.785156 238.34375 397.433594 247.492188 399.792969 257.769531 L 404.214844 255.808594 L 397.332031 201.667969 C 397.332031 201.667969 393.753906 202.996094 391.082031 201.75 C 388.34375 200.472656 387.417969 197.75 387.417969 197.75 Z M 387.417969 197.75 "/>
<path style=" stroke:none;fill-rule:nonzero;fill:rgb(18.823529%,68.235294%,66.27451%);fill-opacity:1;" d="M 390.75 197.082031 C 390.78125 197.378906 390.875 198.109375 391.417969 198.582031 C 393.03125 199.996094 395.78125 198.160156 398.25 195.917969 C 402.566406 191.992188 402.996094 184.386719 402.917969 182.25 C 402.59375 173.546875 394.25 165.582031 394.25 165.582031 C 387.800781 166.480469 390.578125 195.484375 390.75 197.082031 Z M 390.75 197.082031 "/>
<path style=" stroke:none;fill-rule:nonzero;fill:rgb(18.823529%,68.235294%,66.27451%);fill-opacity:1;" d="M 392.582031 161.582031 C 392.582031 161.582031 396.214844 154.40625 398.25 153.25 C 398.25 153.25 392.503906 155.105469 392.082031 159.082031 C 392.0625 159.273438 392.582031 161.582031 392.582031 161.582031 Z M 392.582031 161.582031 "/>
<path style="fill-rule:nonzero;fill:rgb(0%,0%,0%);fill-opacity:1;stroke-width:1;stroke-linecap:butt;stroke-linejoin:miter;stroke:rgb(0%,0%,0%);stroke-opacity:1;stroke-miterlimit:10;" d="M 2083.5 1036.5 C 2083.5 1050.867188 2071.851562 1062.492188 2057.507812 1062.492188 C 2043.140625 1062.492188 2031.492188 1050.867188 2031.492188 1036.5 C 2031.492188 1022.132812 2043.140625 1010.507812 2057.507812 1010.507812 C 2071.851562 1010.507812 2083.5 1022.132812 2083.5 1036.5 Z M 2083.5 1036.5 " transform="matrix(0.166667,0,0,0.166667,0,0)"/>
<path style="fill-rule:nonzero;fill:rgb(0%,0%,0%);fill-opacity:1;stroke-width:2;stroke-linecap:butt;stroke-linejoin:miter;stroke:rgb(100%,100%,100%);stroke-opacity:1;stroke-miterlimit:10;" d="M 2068.5 1035.492188 C 2068.5 1048.195312 2058.210938 1058.507812 2045.507812 1058.507812 C 2032.804688 1058.507812 2022.492188 1048.195312 2022.492188 1035.492188 C 2022.492188 1022.789062 2032.804688 1012.5 2045.507812 1012.5 C 2058.210938 1012.5 2068.5 1022.789062 2068.5 1035.492188 Z M 2068.5 1035.492188 " transform="matrix(0.166667,0,0,0.166667,0,0)"/>
<path style=" stroke:none;fill-rule:nonzero;fill:rgb(0%,0%,0%);fill-opacity:1;" d="M 372.25 163.183594 C 376.417969 155.015625 379.5 143.597656 369.082031 135.683594 C 364.660156 132.320312 355.410156 132.117188 349.25 137.015625 C 335.417969 148.015625 341.917969 168.683594 341.917969 168.683594 L 343.417969 168.515625 C 343.417969 168.515625 336.917969 150.847656 349.582031 138.515625 C 352.808594 135.375 360.78125 132.089844 368.417969 137.183594 C 380.917969 145.515625 370.917969 162.847656 370.917969 162.847656 C 370.917969 162.847656 367.105469 161.878906 363.917969 164.183594 C 354.917969 170.683594 362.082031 192.347656 362.417969 192.183594 C 361.25 192.765625 359.546875 192.511719 357.582031 191.847656 L 357.25 192.847656 C 359.15625 193.765625 361.347656 193.925781 363.75 193.515625 C 366.015625 195.203125 368.53125 196.046875 371.25 196.183594 L 370.917969 194.847656 C 368.671875 194.6875 366.847656 194.066406 365.582031 192.847656 C 365.582031 192.847656 374.25 187.480469 376.917969 180.515625 C 379.917969 172.683594 379.25 165.683594 372.25 163.183594 Z M 373.878906 182.972656 C 370.960938 187.726562 366.992188 190.566406 364.082031 192.183594 C 362.605469 188.546875 362.160156 187.050781 361.75 184.847656 C 361.046875 181.066406 360.144531 175.980469 361.214844 171.835938 C 361.8125 169.511719 362.601562 166.449219 365.378906 164.929688 C 366.898438 164.101562 368.675781 163.96875 370.5625 164.316406 C 374.652344 165.066406 376.703125 168 377.085938 171.183594 C 377.570312 175.234375 375.5 180.332031 373.878906 182.972656 Z M 373.878906 182.972656 "/>
<path style=" stroke:none;fill-rule:nonzero;fill:rgb(100%,100%,100%);fill-opacity:1;" d="M 359.441406 177.824219 L 360.796875 178.058594 C 361.453125 183.066406 362.226562 187.976562 364.167969 191.832031 C 364.167969 191.832031 370.839844 189.046875 375.28125 180.15625 C 376 180.101562 377.066406 180.019531 377.066406 180.019531 C 375.125 185.734375 370.273438 190.808594 365.753906 192.894531 C 366.261719 193.335938 366.769531 193.660156 367.910156 194.105469 C 369.253906 194.625 370.445312 194.683594 371.164062 194.667969 C 371.21875 195.386719 371.351562 196.351562 371.351562 196.351562 C 369.230469 196.441406 364.246094 194.5 363.75 193.582031 C 363.773438 193.792969 359.5 194 357.332031 193 C 357.609375 192.554688 357.886719 192.113281 358.164062 191.667969 C 359.523438 192.042969 362.246094 192.183594 362.246094 192.183594 C 361.03125 189.933594 359.480469 182.261719 359.441406 177.824219 Z M 359.441406 177.824219 "/>
<path style="fill-rule:nonzero;fill:rgb(0%,0%,0%);fill-opacity:1;stroke-width:1;stroke-linecap:butt;stroke-linejoin:miter;stroke:rgb(0%,0%,0%);stroke-opacity:1;stroke-miterlimit:10;" d="M 2116.5 1133.507812 C 2111.554688 1134.492188 2106.492188 1144.5 2109.492188 1147.5 C 2116.570312 1154.578125 2134.5 1159.5 2142.492188 1158.492188 C 2147.53125 1157.859375 2150.648438 1148.648438 2147.507812 1145.507812 C 2141.507812 1139.507812 2121.492188 1132.5 2116.5 1133.507812 Z M 2116.5 1133.507812 " transform="matrix(0.166667,0,0,0.166667,0,0)"/>
<path style="fill-rule:nonzero;fill:rgb(0%,0%,0%);fill-opacity:1;stroke-width:1;stroke-linecap:butt;stroke-linejoin:miter;stroke:rgb(0%,0%,0%);stroke-opacity:1;stroke-miterlimit:10;" d="M 2228.390625 1164.164062 C 2236.21875 1160.882812 2257.382812 1161.984375 2261.648438 1164.796875 C 2265.84375 1167.585938 2266.734375 1178.765625 2262.820312 1180.40625 C 2253.609375 1184.273438 2235.140625 1182.046875 2228.109375 1178.109375 C 2223.703125 1175.601562 2224.289062 1165.898438 2228.390625 1164.164062 " transform="matrix(0.166667,0,0,0.166667,0,0)"/>
<path style=" stroke:none;fill-rule:nonzero;fill:rgb(96.862745%,56.862745%,45.098039%);fill-opacity:1;" d="M 356.5 130.332031 C 356.5 130.332031 358.796875 137.546875 356.5 140.667969 C 355.484375 142.046875 353.167969 142.832031 353.167969 142.832031 C 353.683594 148.09375 354.714844 153.441406 356 158.832031 C 360.285156 156.933594 363.929688 153.195312 366.832031 147.332031 C 364.296875 145.367188 364.289062 137.320312 364.667969 127.5 C 362.75 128.828125 359.765625 129.933594 356.5 130.332031 Z M 356.5 130.332031 "/>
<path style=" stroke:none;fill-rule:nonzero;fill:rgb(100%,70.588235%,57.647059%);fill-opacity:1;" d="M 381.667969 105.167969 C 382.5 108.332031 379.714844 112.671875 377 113.667969 C 375.230469 114.316406 373.226562 114.074219 373.011719 113.882812 C 373 113.871094 372.984375 113.871094 372.976562 113.886719 C 372.019531 116.054688 371.667969 120.667969 365.667969 126.667969 C 363.941406 128.390625 358.914062 131.09375 352.832031 130.332031 C 351.671875 130.1875 345.351562 129.074219 341.628906 123.128906 C 336.332031 114.667969 339.359375 108.902344 340.167969 106 C 340.363281 105.289062 340.714844 104.535156 340.5 103.832031 C 339.625 100.960938 338.601562 96.972656 341.167969 91.5 C 345.9375 80.710938 357.671875 80.429688 358.390625 80.445312 C 359.648438 80.46875 368.238281 80.945312 372.167969 91.167969 C 375.035156 98.636719 373.476562 107.183594 373.832031 106 C 375.242188 101.320312 380.3125 100.027344 381.667969 105.167969 Z M 381.667969 105.167969 "/>
<path style=" stroke:none;fill-rule:nonzero;fill:rgb(96.862745%,56.862745%,45.098039%);fill-opacity:1;" d="M 339.75 101.082031 C 342.46875 96.871094 351.992188 90.917969 366.917969 83.582031 C 367.261719 83.375 362.417969 80.417969 358.417969 80.417969 C 343.058594 80.417969 337.917969 95.082031 339.75 101.082031 Z M 339.75 101.082031 "/>
<path style=" stroke:none;fill-rule:nonzero;fill:rgb(0%,0%,0%);fill-opacity:1;" d="M 341.914062 218.0625 L 312.082031 215.75 L 285.441406 187.355469 C 284.976562 186.859375 285.316406 186.046875 285.992188 186.023438 L 313.90625 185.433594 C 314.976562 185.421875 315.996094 185.863281 316.71875 186.648438 L 343.003906 215.851562 C 343.777344 216.746094 343.09375 218.132812 341.914062 218.0625 Z M 341.914062 218.0625 "/>
<path style="fill-rule:nonzero;fill:rgb(100%,100%,100%);fill-opacity:1;stroke-width:1;stroke-linecap:butt;stroke-linejoin:miter;stroke:rgb(100%,100%,100%);stroke-opacity:1;stroke-miterlimit:10;" d="M 1881.64756 1138.944336 C 1881.644804 1133.11382 1878.256669 1128.410401 1874.083395 1128.400126 C 1869.890443 1128.416523 1866.500068 1133.123523 1866.499327 1138.930864 C 1866.502084 1144.761379 1869.890218 1149.464798 1874.086667 1149.471576 C 1878.259941 1149.481851 1881.646819 1144.751676 1881.64756 1138.944336 Z M 1881.64756 1138.944336 " transform="matrix(0.0248667,-0.1648,0.1648,0.0248667,78.050733,470.3558)"/>
<path style="fill:none;stroke-width:1;stroke-linecap:butt;stroke-linejoin:miter;stroke:rgb(100%,100%,100%);stroke-opacity:1;stroke-miterlimit:10;" d="M 1892.507812 1123.5 L 2054.507812 1303.5 " transform="matrix(0.166667,0,0,0.166667,0,0)"/>
<path style=" stroke:none;fill-rule:nonzero;fill:rgb(0%,0%,0%);fill-opacity:1;" d="M 373.5 106.667969 L 370.917969 107.082031 C 371.492188 104.878906 367.816406 88.242188 364.832031 83.667969 C 364.832031 83.667969 343.078125 89.796875 341 94.667969 C 339.871094 97.316406 340 99.167969 340 99.167969 C 340.121094 100.886719 340.777344 101.59375 340.832031 103.5 C 340.886719 105.289062 340.378906 106.59375 340.167969 107.167969 C 338.671875 111.164062 338.257812 119.238281 342.25 124.082031 C 348.5 131.667969 356.832031 130.332031 356.832031 130.332031 C 356.832031 130.332031 358.757812 139.070312 356.082031 141.25 C 351.582031 144.917969 346.332031 142.5 346.332031 142.5 C 339.25 147.25 333.804688 143.136719 332.25 140.917969 C 327.792969 134.550781 333.855469 126.183594 335.621094 108.507812 C 337.003906 94.683594 335.582031 90.917969 336.917969 87.417969 C 338.917969 82.917969 363.417969 76.25 370.917969 79.082031 C 381.050781 82.910156 387.742188 98.683594 387.832031 100.832031 C 388.082031 106.75 384.746094 115.867188 388.917969 126.582031 C 392.191406 135 398.507812 139.492188 396.566406 144.878906 C 395.703125 147.28125 393.605469 148.714844 392.167969 149.5 C 390.917969 155.082031 381.082031 158.25 377.167969 151.167969 C 377.300781 152.804688 366.632812 153.09375 365.167969 144.667969 C 364.042969 138.191406 364.332031 127.667969 364.332031 127.667969 C 369.167969 119.78125 373 113.832031 373 113.832031 C 373.96875 114 375.21875 114.339844 376.722656 113.660156 C 381.300781 111.59375 382.421875 104.726562 380.5 103.167969 C 378.996094 101.945312 375.667969 101.667969 373.5 106.667969 Z M 373.5 106.667969 "/>
<path style=" stroke:none;fill-rule:nonzero;fill:rgb(0%,0%,0%);fill-opacity:1;" d="M 342.082031 99.917969 C 341.75 99.25 345.625 96.789062 348.082031 98.917969 C 348.410156 99.199219 349.082031 100.417969 347.417969 99.917969 C 344.894531 99.160156 342.082031 99.917969 342.082031 99.917969 Z M 342.082031 99.917969 "/>
<path style=" stroke:none;fill-rule:nonzero;fill:rgb(0%,0%,0%);fill-opacity:1;" d="M 365.25 98.582031 C 365.25 98.582031 363.058594 95.328125 360.25 95.25 C 359.0625 95.214844 357.816406 95.695312 357.582031 96.082031 C 357.082031 96.917969 359.539062 96.953125 360.25 97.082031 C 363.691406 97.703125 365.25 98.582031 365.25 98.582031 Z M 365.25 98.582031 "/>
<path style=" stroke:none;fill-rule:nonzero;fill:rgb(0%,0%,0%);fill-opacity:1;" d="M 346.917969 104.667969 C 346.917969 105.726562 346.058594 106.582031 345 106.582031 C 343.941406 106.582031 343.082031 105.726562 343.082031 104.667969 C 343.082031 103.609375 343.941406 102.75 345 102.75 C 346.058594 102.75 346.917969 103.609375 346.917969 104.667969 Z M 346.917969 104.667969 "/>
<path style=" stroke:none;fill-rule:nonzero;fill:rgb(0%,0%,0%);fill-opacity:1;" d="M 361.417969 103.332031 C 361.417969 104.484375 360.484375 105.417969 359.332031 105.417969 C 358.183594 105.417969 357.25 104.484375 357.25 103.332031 C 357.25 102.183594 358.183594 101.25 359.332031 101.25 C 360.484375 101.25 361.417969 102.183594 361.417969 103.332031 Z M 361.417969 103.332031 "/>
<path style=" stroke:none;fill-rule:nonzero;fill:rgb(25.882353%,75.686275%,73.333333%);fill-opacity:1;" d="M 338.917969 112.25 C 338.082031 117.082031 340.082031 122.25 343.75 126.082031 C 348.167969 130.5 354.65625 130.585938 355.832031 130.5 C 356.34375 130.460938 360.464844 130.347656 364.332031 127.832031 C 374.332031 121.332031 373.703125 107.726562 373.667969 106.667969 C 353.082031 110.417969 341.242188 106.640625 338.917969 112.25 Z M 338.917969 112.25 "/>
<use xlink:href="#surface5" mask="url(#mask0)"/>
<use xlink:href="#surface8" mask="url(#mask1)"/>
<use xlink:href="#surface11" mask="url(#mask2)"/>
<use xlink:href="#surface14" mask="url(#mask3)"/>
<use xlink:href="#surface17" mask="url(#mask4)"/>
<path style=" stroke:none;fill-rule:nonzero;fill:rgb(45.882353%,56.862745%,56.078431%);fill-opacity:1;" d="M 384.832031 140.703125 L 374.910156 137.207031 C 374.445312 137.046875 374.191406 136.546875 374.328125 136.074219 L 382.679688 107.398438 C 382.804688 106.96875 383.28125 106.75 383.691406 106.933594 L 393.316406 111.324219 C 393.855469 111.566406 394.132812 112.171875 393.972656 112.738281 L 386.234375 139.976562 C 386.058594 140.578125 385.421875 140.910156 384.832031 140.703125 Z M 384.832031 140.703125 "/>
<path style=" stroke:none;fill-rule:nonzero;fill:rgb(54.509804%,65.098039%,64.313725%);fill-opacity:1;" d="M 376.191406 129.683594 L 393.355469 111.34375 C 393.339844 111.339844 393.328125 111.328125 393.316406 111.324219 L 383.6875 106.9375 C 383.28125 106.75 382.804688 106.96875 382.679688 107.398438 Z M 376.191406 129.683594 "/>
<path style=" stroke:none;fill-rule:nonzero;fill:rgb(100%,70.588235%,57.647059%);fill-opacity:1;" d="M 393 125.5 C 393.175781 124.402344 393.441406 122.796875 391.832031 121.5 C 388.375 118.710938 382.21875 114.34375 380.167969 113.5 C 378.945312 113 378.667969 115.5 378.667969 116.167969 C 378.667969 116.167969 377.425781 116.230469 377 116.667969 C 376.117188 117.570312 376.832031 121 376.832031 121 C 376.832031 121 375.886719 121.34375 375.5 122 C 374.863281 123.070312 375.5 125.667969 375.5 125.667969 C 375.5 125.667969 374.867188 126.339844 374.5 127.167969 C 373.632812 129.113281 375.332031 131.667969 375.332031 131.667969 L 376.332031 129.5 L 379 132.667969 C 378.414062 136.550781 379.5 141 381.167969 142.167969 C 381.027344 142.566406 374.964844 191.035156 384 196.667969 C 387.546875 198.875 390.976562 197.058594 391.832031 196.5 C 397.058594 193.082031 400.621094 186.046875 401.167969 181.5 C 401.84375 175.847656 396.5 170.667969 394.667969 166.5 C 392.355469 161.25 390.832031 142.667969 390.832031 142.667969 C 390.832031 142.667969 391.84375 132.769531 393 125.5 Z M 393 125.5 "/>
<path style=" stroke:none;fill-rule:nonzero;fill:rgb(96.862745%,56.862745%,45.098039%);fill-opacity:1;" d="M 394.832031 167 C 398.34375 176.738281 398.390625 184.894531 396.5 192.167969 C 396.5 192.167969 401.0625 185.824219 401.25 180.582031 C 401.417969 175.917969 394.832031 167 394.832031 167 Z M 394.832031 167 "/>
<path style=" stroke:none;fill-rule:nonzero;fill:rgb(96.862745%,59.607843%,48.235294%);fill-opacity:1;" d="M 381.082031 142.082031 C 381.082031 142.082031 381.34375 142.097656 381.417969 142.25 C 382.917969 145.417969 380.082031 152.417969 380.082031 152.417969 Z M 381.082031 142.082031 "/>
<path style=" stroke:none;fill-rule:nonzero;fill:rgb(96.862745%,56.862745%,45.098039%);fill-opacity:1;" d="M 376.332031 129.5 C 376.332031 129.5 375.960938 127.796875 376.25 128.082031 C 376.332031 128.167969 379.5 131 380.082031 132.25 C 381.078125 134.382812 378.917969 136.582031 378.917969 136.582031 C 378.78125 134.730469 378.441406 132.730469 376.332031 129.5 Z M 376.332031 129.5 "/>
<path style=" stroke:none;fill-rule:nonzero;fill:rgb(96.862745%,56.862745%,45.098039%);fill-opacity:1;" d="M 375.324219 124.738281 C 375.324219 124.738281 375.730469 123.640625 376.582031 123.25 C 378.648438 122.304688 382.75 129.417969 382.75 129.417969 C 379.503906 126.933594 377.082031 124.25 375.417969 125.75 Z M 375.324219 124.738281 "/>
<path style=" stroke:none;fill-rule:nonzero;fill:rgb(96.862745%,56.862745%,45.098039%);fill-opacity:1;" d="M 376.832031 121 L 376.605469 119.433594 C 379.34375 118.554688 381.566406 121.804688 383.917969 125.582031 C 383.351562 124.558594 379.488281 120.304688 376.832031 121 Z M 376.832031 121 "/>
<path style=" stroke:none;fill-rule:nonzero;fill:rgb(96.862745%,56.862745%,45.098039%);fill-opacity:1;" d="M 378.667969 116.167969 C 378.667969 116.167969 378.660156 115.394531 378.75 115.25 C 379.707031 113.707031 386.855469 121.609375 386.75 121.917969 C 383.421875 119.464844 380.351562 116.605469 378.667969 116.167969 Z M 378.667969 116.167969 "/>
<path style=" stroke:none;fill-rule:nonzero;fill:rgb(100%,70.588235%,57.647059%);fill-opacity:1;" d="M 300.832031 187.832031 C 299.25 188.625 294.546875 193.25 292 196.332031 C 290.714844 197.890625 292.667969 200 293.5 200.167969 C 293.078125 201.601562 293.449219 202.746094 295.332031 203.332031 C 295.398438 205.089844 296.183594 205.953125 297.5 206.167969 C 297.847656 208.152344 299.085938 209.054688 300.832031 209.332031 C 301.828125 209.15625 305.667969 231.167969 311.5 236.167969 C 312.5 237 314.648438 238.046875 316.167969 236.832031 C 319.5 234.167969 321 216.441406 321 216.441406 L 313.25 215.839844 L 304.167969 206.332031 C 304.167969 206.332031 307.53125 202.027344 308.667969 200.667969 C 309.5 199.667969 309 198.667969 308 199 C 306.058594 199.648438 302.5 202.332031 302.5 202.332031 C 302.5 202.332031 306.667969 197.832031 307 196.832031 C 307.066406 196.636719 307.136719 196.066406 306.816406 195.75 C 306.605469 195.539062 306.273438 195.421875 305.832031 195.5 C 304.847656 195.671875 300.167969 199.332031 300.167969 199.332031 C 300.167969 199.332031 305.136719 193.546875 305.5 192.667969 C 305.824219 191.882812 305.332031 191 304.167969 191.332031 C 302.273438 191.875 297.167969 196.667969 296.832031 197 C 296.832031 197 302 190.332031 302.167969 189 C 302.332031 187.667969 301.167969 187.667969 300.832031 187.832031 Z M 300.832031 187.832031 "/>
<path style=" stroke:none;fill-rule:nonzero;fill:rgb(96.862745%,56.862745%,45.098039%);fill-opacity:1;" d="M 321 216.441406 L 313.25 215.839844 C 316.769531 220.730469 318.265625 226.78125 317.917969 233.75 C 318.929688 231.496094 321 220.441406 321 216.441406 Z M 321 216.441406 "/>
<path style=" stroke:none;fill-rule:nonzero;fill:rgb(96.862745%,56.862745%,45.098039%);fill-opacity:1;" d="M 306.25 208.582031 C 305.886719 211.9375 303.917969 212.25 301.417969 210.25 C 301.417969 210.25 303.859375 212.550781 305.417969 211.417969 C 306.394531 210.703125 306.25 208.582031 306.25 208.582031 Z M 306.25 208.582031 "/>
<path style=" stroke:none;fill-rule:nonzero;fill:rgb(96.862745%,56.862745%,45.098039%);fill-opacity:1;" d="M 301.660156 190.148438 C 297.832031 193.621094 294.699219 196.671875 294.582031 197.261719 C 294.40625 198.167969 296.59375 197.324219 297 196.777344 C 298.75 194.71875 300.316406 192.511719 301.660156 190.148438 Z M 301.660156 190.148438 "/>
<path style=" stroke:none;fill-rule:nonzero;fill:rgb(96.862745%,56.862745%,45.098039%);fill-opacity:1;" d="M 300.417969 199.082031 C 299.878906 199.601562 298.992188 200.65625 299.082031 200.75 C 299.175781 200.84375 300.601562 199.863281 304.894531 195.949219 C 304.894531 195.949219 301.859375 197.695312 300.417969 199.082031 Z M 300.417969 199.082031 "/>
<path style=" stroke:none;fill-rule:nonzero;fill:rgb(96.862745%,56.862745%,45.098039%);fill-opacity:1;" d="M 302.75 202.082031 C 301.789062 203.117188 301.34375 203.671875 301.417969 203.75 C 301.546875 203.886719 303.214844 202.535156 306.640625 199.617188 C 305.328125 200.28125 304.160156 201.03125 302.75 202.082031 Z M 302.75 202.082031 "/>
<path style=" stroke:none;fill-rule:nonzero;fill:rgb(98.823529%,33.72549%,33.72549%);fill-opacity:1;" d="M 318.582031 254.582031 C 318.582031 254.582031 298.25 230.75 273.25 233.25 C 254.476562 235.128906 236.0625 253.214844 258.917969 296.25 C 284.582031 344.582031 319.75 365.417969 319.75 365.417969 C 319.75 365.417969 355.917969 346.25 380.917969 295.75 C 396.070312 265.136719 392.492188 242.011719 368.582031 235.25 C 343.25 228.082031 320.105469 251.804688 318.582031 254.582031 Z M 318.582031 254.582031 "/>
<path style=" stroke:none;fill-rule:nonzero;fill:rgb(100%,100%,100%);fill-opacity:1;" d="M 261.277344 300.570312 L 284.25 300.25 L 286.25 297.082031 L 291.417969 301.75 L 297.417969 283.75 L 299.082031 283.917969 L 304.917969 311.25 L 308 300.167969 L 328.5 300.167969 L 330.667969 296.667969 L 335.832031 302.167969 L 341.75 283.582031 L 343.75 283.582031 C 343.75 283.582031 348.375 311.574219 349.082031 311.582031 L 351.25 300.582031 L 378.132812 301.167969 C 377.988281 301.46875 377.839844 301.753906 377.683594 302 L 352.75 301.585938 L 350.082031 316.585938 L 347.917969 316.585938 L 342.582031 288.25 L 337.582031 303.75 L 335.25 303.75 L 330.832031 298.832031 L 329.332031 301.167969 L 309 301.167969 L 305.75 315.75 L 303.75 315.917969 L 298.25 286.917969 L 293.082031 303.582031 L 291.167969 303.589844 L 286.417969 299.25 L 285.082031 301.25 L 261.738281 301.386719 C 261.59375 301.144531 261.441406 300.875 261.277344 300.570312 Z M 261.277344 300.570312 "/>
</g>
</svg>
